<?xml version="1.0" encoding="UTF-8"?>
<svg version="1.1" xmlns="http://www.w3.org/2000/svg" width="200" height="200">
<path d="M0 0 C0.99837891 -0.00773437 1.99675781 -0.01546875 3.02539062 -0.0234375 C17.25226529 0.01397703 17.25226529 0.01397703 22.24536133 4.84667969 C25.00503555 8.34992379 25.29007939 11.70770597 25.2265625 16.0625 C25.23134613 16.7944458 25.23612976 17.5263916 25.24105835 18.28051758 C25.24444414 19.82017175 25.23533418 21.3598991 25.21435547 22.89941406 C25.18756304 25.24448242 25.2141399 27.58476644 25.24609375 29.9296875 C25.24278941 31.43230214 25.23638265 32.93491382 25.2265625 34.4375 C25.24174423 35.47837769 25.24174423 35.47837769 25.25723267 36.5402832 C25.12360556 42.14357101 23.38038578 44.44582426 19.5625 48.25 C15.71104957 50.17572521 10.76206748 49.29883218 6.5625 49.25 C6.5625 52.88 6.5625 56.51 6.5625 60.25 C8.15904419 60.23428955 8.15904419 60.23428955 9.7878418 60.21826172 C13.74809386 60.18197924 17.7083313 60.15906955 21.66870117 60.14013672 C23.38064039 60.13009792 25.09256255 60.11646405 26.80444336 60.09912109 C29.26941142 60.07477927 31.73415215 60.06349562 34.19921875 60.0546875 C35.34169319 60.03920364 35.34169319 60.03920364 36.50724792 60.02340698 C40.63834909 60.02254069 43.86692515 60.34714387 47.5625 62.25 C48.5625 63.25 48.5625 63.25 48.67602539 65.38305664 C48.66817017 66.75772095 48.66817017 66.75772095 48.66015625 68.16015625 C48.65532227 69.64418945 48.65532227 69.64418945 48.65039062 71.15820312 C48.63782227 72.71958008 48.63782227 72.71958008 48.625 74.3125 C48.62048828 75.35728516 48.61597656 76.40207031 48.61132812 77.47851562 C48.59949913 80.0690666 48.58301689 82.65950559 48.5625 85.25 C49.31450684 85.22244629 50.06651367 85.19489258 50.84130859 85.16650391 C51.82953613 85.14507324 52.81776367 85.12364258 53.8359375 85.1015625 C55.30426025 85.06023193 55.30426025 85.06023193 56.80224609 85.01806641 C61.13766127 85.38235479 62.69509083 87.08075829 65.5625 90.25 C67.84646328 94.81792656 66.87407122 101.52466202 66.91259766 106.59765625 C66.92912653 108.19220608 66.95637651 109.78668275 66.99462891 111.38085938 C67.04964107 113.68658655 67.07130817 115.9905783 67.0859375 118.296875 C67.10860687 119.00334167 67.13127625 119.70980835 67.15463257 120.43768311 C67.13823732 124.31379798 66.55528501 126.71968132 64.15478516 129.68457031 C58.95110137 134.83434515 52.14045544 133.54750167 45.21484375 133.60009766 C43.62029392 133.61662653 42.02581725 133.64387651 40.43164062 133.68212891 C38.12591345 133.73714107 35.8219217 133.75880817 33.515625 133.7734375 C32.80915833 133.79610687 32.10269165 133.81877625 31.37481689 133.84213257 C27.49870202 133.82573732 25.09281868 133.24278501 22.12792969 130.84228516 C16.97815485 125.63860137 18.26499833 118.82795544 18.21240234 111.90234375 C18.19587347 110.30779392 18.16862349 108.71331725 18.13037109 107.11914062 C18.07535893 104.81341345 18.05369183 102.5094217 18.0390625 100.203125 C18.01639313 99.49665833 17.99372375 98.79019165 17.97036743 98.06231689 C17.98676268 94.18620202 18.56971499 91.78031868 20.97021484 88.81542969 C24.533955 85.28860905 24.533955 85.28860905 28.1640625 85.15234375 C32.36328125 85.20117188 32.36328125 85.20117188 36.5625 85.25 C36.5625 81.29 36.5625 77.33 36.5625 73.25 C12.8025 73.25 -10.9575 73.25 -35.4375 73.25 C-35.4375 77.21 -35.4375 81.17 -35.4375 85.25 C-33.74625 85.146875 -32.055 85.04375 -30.3125 84.9375 C-26.34743562 84.92217114 -23.89759898 85.04652266 -20.8125 87.625 C-15.95265053 92.99641258 -17.13977494 99.70145889 -17.08740234 106.59765625 C-17.07087347 108.19220608 -17.04362349 109.78668275 -17.00537109 111.38085938 C-16.95035893 113.68658655 -16.92869183 115.9905783 -16.9140625 118.296875 C-16.89139313 119.00334167 -16.86872375 119.70980835 -16.84536743 120.43768311 C-16.86176268 124.31379798 -17.44471499 126.71968132 -19.84521484 129.68457031 C-25.04889863 134.83434515 -31.85954456 133.54750167 -38.78515625 133.60009766 C-40.37970608 133.61662653 -41.97418275 133.64387651 -43.56835938 133.68212891 C-45.87408655 133.73714107 -48.1780783 133.75880817 -50.484375 133.7734375 C-51.19084167 133.79610687 -51.89730835 133.81877625 -52.62518311 133.84213257 C-56.50129798 133.82573732 -58.90718132 133.24278501 -61.87207031 130.84228516 C-67.02184515 125.63860137 -65.73500167 118.82795544 -65.78759766 111.90234375 C-65.80412653 110.30779392 -65.83137651 108.71331725 -65.86962891 107.11914062 C-65.92464107 104.81341345 -65.94630817 102.5094217 -65.9609375 100.203125 C-65.98360687 99.49665833 -66.00627625 98.79019165 -66.02963257 98.06231689 C-66.01323732 94.18620202 -65.43028501 91.78031868 -63.02978516 88.81542969 C-59.46978127 85.29230661 -59.46978127 85.29230661 -56.0546875 85.15234375 C-55.14976563 85.16394531 -54.24484375 85.17554687 -53.3125 85.1875 C-51.94738281 85.20103516 -51.94738281 85.20103516 -50.5546875 85.21484375 C-49.85601562 85.22644531 -49.15734375 85.23804687 -48.4375 85.25 C-48.46070312 84.00863281 -48.48390625 82.76726562 -48.5078125 81.48828125 C-48.52657731 79.8463602 -48.54477675 78.20443262 -48.5625 76.5625 C-48.57925781 75.74587891 -48.59601562 74.92925781 -48.61328125 74.08789062 C-48.68069296 65.76254466 -48.68069296 65.76254466 -46.4375 62.25 C-42.11186107 59.90636852 -37.86836103 59.98971291 -33.07421875 60.0546875 C-32.28223587 60.0575174 -31.49025299 60.06034729 -30.67427063 60.06326294 C-28.15769001 60.07441137 -25.64147211 60.09950578 -23.125 60.125 C-21.41341662 60.13503671 -19.70182763 60.14416136 -17.99023438 60.15234375 C-13.80585094 60.17433319 -9.62173686 60.20882592 -5.4375 60.25 C-5.4375 56.62 -5.4375 52.99 -5.4375 49.25 C-7.12875 49.353125 -8.82 49.45625 -10.5625 49.5625 C-14.52756438 49.57782886 -16.97740102 49.45347734 -20.0625 46.875 C-24.92234947 41.50358742 -23.73522506 34.79854111 -23.78759766 27.90234375 C-23.80412653 26.30779392 -23.83137651 24.71331725 -23.86962891 23.11914062 C-23.92464107 20.81341345 -23.94630817 18.5094217 -23.9609375 16.203125 C-23.98360687 15.49665833 -24.00627625 14.79019165 -24.02963257 14.06231689 C-24.01343619 10.23321723 -23.44860569 7.78995109 -21.09838867 4.83789062 C-15.25771666 -0.84255009 -7.66039294 -0.05911557 0 0 Z M-11.4375 13.25 C-11.4375 21.17 -11.4375 29.09 -11.4375 37.25 C-3.5175 37.25 4.4025 37.25 12.5625 37.25 C12.5625 29.33 12.5625 21.41 12.5625 13.25 C4.6425 13.25 -3.2775 13.25 -11.4375 13.25 Z M-53.4375 97.25 C-53.4375 104.84 -53.4375 112.43 -53.4375 120.25 C-45.5175 120.25 -37.5975 120.25 -29.4375 120.25 C-29.4375 112.66 -29.4375 105.07 -29.4375 97.25 C-37.3575 97.25 -45.2775 97.25 -53.4375 97.25 Z M30.5625 97.25 C30.5625 104.84 30.5625 112.43 30.5625 120.25 C38.1525 120.25 45.7425 120.25 53.5625 120.25 C53.5625 112.66 53.5625 105.07 53.5625 97.25 C45.9725 97.25 38.3825 97.25 30.5625 97.25 Z " fill="#000000" transform="translate(99.4375,32.75)"/>
</svg>
