<?xml version="1.0" encoding="UTF-8"?>
<svg version="1.1" xmlns="http://www.w3.org/2000/svg" width="512" height="512">
<path d="M0 0 C11.48577665 10.64790844 18.63259337 24.92749441 19.62109375 40.59765625 C20.08662476 58.05716621 15.7968974 73.39470997 3.703125 86.45703125 C3.26742187 86.90691406 2.83171875 87.35679688 2.3828125 87.8203125 C5.07944605 92.66930494 7.96013699 97.27140033 11.1328125 101.8203125 C11.82540161 102.81998047 11.82540161 102.81998047 12.53198242 103.83984375 C13.56542335 105.33033513 14.60025042 106.81986609 15.63623047 108.30859375 C17.57815467 111.10122951 19.51375994 113.89819232 21.44921875 116.6953125 C22.86434386 118.73714516 24.27970728 120.77881267 25.6953125 122.8203125 C26.3646582 123.78710938 27.03400391 124.75390625 27.72363281 125.75 C31.50453597 131.19058212 35.35875038 136.55669974 39.3828125 141.8203125 C40.18460938 141.37300781 40.98640625 140.92570313 41.8125 140.46484375 C64.91236623 128.18158155 94.34665343 123.9556216 119.671875 131.5625 C120.89648438 131.97757813 122.12109375 132.39265625 123.3828125 132.8203125 C124.0231543 133.03461914 124.66349609 133.24892578 125.32324219 133.46972656 C133.76833729 136.36338259 141.25310618 140.28182719 148.67578125 145.18359375 C151.84567684 147.14068954 151.84567684 147.14068954 155.3828125 147.8203125 C157.59308384 146.34110645 157.59308384 146.34110645 159.69238281 144.07836914 C160.53295227 143.23742203 161.37352173 142.39647491 162.23956299 141.53004456 C163.13761658 140.60618454 164.03567017 139.68232452 164.9609375 138.73046875 C165.8875116 137.79681992 166.81408569 136.86317108 167.76873779 135.90122986 C170.23272583 133.41814528 172.68133367 130.92041379 175.1270752 128.41937256 C177.62510823 125.87020427 180.13734478 123.33512107 182.6484375 120.79882812 C187.5739195 115.81971189 192.4833024 110.82498379 197.3828125 105.8203125 C195.42465975 100.8519201 193.14060992 96.07834765 190.8203125 91.26953125 C185.2014492 77.78731306 185.38421458 60.70243886 190.05078125 46.93359375 C197.67976365 29.10280498 209.60751657 18.26516047 227.3828125 10.8203125 C243.40258275 5.44875446 260.22169558 6.81557541 275.5078125 13.8203125 C291.09864067 22.13192123 300.95813241 35.10127893 306.3828125 51.8203125 C306.6303125 52.57957031 306.8778125 53.33882813 307.1328125 54.12109375 C311.00045361 68.38302034 308.33261275 84.69843223 301.6328125 97.6953125 C292.36049246 113.10304829 280.3513897 122.27631995 263.3828125 127.8203125 C247.58047461 131.45467387 231.299974 129.44417393 217.3203125 121.4453125 C216.46308594 120.90132812 215.60585938 120.35734375 214.72265625 119.796875 C212.46985547 118.54512861 212.46985547 118.54512861 210.4944458 119.51559448 C208.06868604 121.01440229 206.26757723 122.69577077 204.25683594 124.71923828 C203.45630798 125.5199173 202.65578003 126.32059631 201.83099365 127.14553833 C200.54953461 128.44248123 200.54953461 128.44248123 199.2421875 129.765625 C198.36000549 130.6506369 197.47782349 131.5356488 196.56890869 132.44747925 C194.23086707 134.79481381 191.89725376 137.14638035 189.56567383 139.50012207 C187.18284724 141.90345177 184.79430902 144.30109017 182.40625 146.69921875 C177.72649388 151.40102717 173.05249383 156.10849914 168.3828125 160.8203125 C169.34443863 162.10360943 170.30621968 163.38679027 171.26806641 164.66992188 C172.07142929 165.74179749 172.07142929 165.74179749 172.89102173 166.83532715 C173.99440451 168.30349461 175.10471298 169.76646292 176.21875 171.2265625 C193.38925737 194.58542532 198.1145856 222.15497111 195.08251953 250.64160156 C194.30212551 255.53869831 192.98552761 260.13199635 191.3828125 264.8203125 C191.17382324 265.44856934 190.96483398 266.07682617 190.74951172 266.72412109 C186.03762848 280.60564676 178.74982976 293.39679923 168.3828125 303.8203125 C172.7211318 308.2185297 177.19668855 312.46177897 181.6953125 316.6953125 C182.41654297 317.37722656 183.13777344 318.05914062 183.88085938 318.76171875 C188.01763647 322.65733843 192.21808776 326.45687078 196.50952148 330.18115234 C199.30988003 332.63151169 202.03465193 335.15986784 204.7578125 337.6953125 C209.41979719 342.01770472 214.11683736 346.29625685 218.8515625 350.5390625 C221.73282664 353.13575734 224.59017688 355.7574728 227.4453125 358.3828125 C232.37694143 362.91620586 237.35728041 367.39124507 242.3828125 371.8203125 C243.33800781 371.27761719 244.29320312 370.73492187 245.27734375 370.17578125 C260.73238011 361.54073948 276.55896732 357.69366167 294.34375 361.546875 C297.46981873 362.46019199 300.39357654 363.53251042 303.3828125 364.8203125 C304.23488281 365.14773438 305.08695312 365.47515625 305.96484375 365.8125 C321.09416962 372.34074455 331.14345007 386.43445971 337.359375 401.12890625 C342.46951028 416.05336678 340.39281318 433.61252982 334.09765625 447.6953125 C326.61936748 462.69355182 313.94909309 473.05436224 298.3828125 478.8203125 C282.08377382 483.52717185 264.88829471 481.68315583 249.7578125 474.2578125 C234.09465966 465.06321836 224.47217281 450.96129846 219.765625 433.53515625 C217.46148933 417.19460228 219.70208712 402.69137868 227.95703125 388.4375 C229.5422768 386.02432322 229.5422768 386.02432322 229.3828125 383.8203125 C228.03685679 382.41968523 228.03685679 382.41968523 226.1953125 380.9453125 C222.37659064 377.70108862 218.67774743 374.3551015 215.0078125 370.9453125 C210.34404936 366.6221312 205.64585925 362.3421356 200.91015625 358.09765625 C198.05199047 355.52221475 195.21570989 352.92345486 192.3828125 350.3203125 C187.93219272 346.23110705 183.45203133 342.17662135 178.953125 338.140625 C176.0385251 335.50951202 173.14762022 332.85357381 170.2578125 330.1953125 C162.86787077 322.75268186 162.86787077 322.75268186 154.3828125 316.8203125 C152.29589837 318.09513817 150.32015745 319.4194855 148.3203125 320.8203125 C125.03293125 336.3543442 96.55105182 340.55092858 69.1328125 335.6953125 C48.43626739 330.59303923 31.00557097 320.63503154 15.8828125 305.6328125 C15.2952417 305.05080078 14.7076709 304.46878906 14.10229492 303.86914062 C10.70253666 300.41185934 7.93588214 296.94402057 5.3828125 292.8203125 C-5.11091014 298.30090497 -15.41128737 304.08361271 -25.671875 309.98828125 C-30.29451149 312.64606929 -34.94796527 315.24538416 -39.6171875 317.8203125 C-39.38652588 318.51552002 -39.15586426 319.21072754 -38.91821289 319.92700195 C-34.44041002 334.00458092 -34.6038022 351.30898739 -40.6171875 364.8203125 C-41.0296875 365.75746094 -41.4421875 366.69460938 -41.8671875 367.66015625 C-48.60913802 381.31643672 -60.09875387 391.97200121 -74.4621582 397.09814453 C-91.39642743 402.7758211 -107.83253553 402.02871058 -123.9296875 394.1328125 C-138.83963436 386.41121165 -148.03170461 374.47696862 -153.7421875 358.79296875 C-158.42723888 342.8763433 -156.0975011 325.57549256 -148.64257812 310.97094727 C-140.83547375 296.7008115 -127.72292342 287.14452452 -112.3359375 282.4765625 C-95.44137832 278.39856546 -78.33557028 280.7610308 -63.35009766 289.66064453 C-58.25350316 293.07129878 -53.9104356 297.47202276 -49.6171875 301.8203125 C-45.76059671 300.37303948 -42.2409756 298.59469175 -38.64453125 296.58984375 C-37.49662109 295.95111328 -36.34871094 295.31238281 -35.16601562 294.65429688 C-34.57119385 294.32131592 -33.97637207 293.98833496 -33.36352539 293.64526367 C-31.58590791 292.65028733 -29.80590585 291.65970141 -28.02539062 290.66992188 C-21.26968382 286.90577156 -14.57798617 283.05740491 -7.94750977 279.0769043 C-5.6171875 277.8203125 -5.6171875 277.8203125 -3.6171875 277.8203125 C-4.01550781 276.82773437 -4.41382813 275.83515625 -4.82421875 274.8125 C-15.31823497 248.14585873 -16.92838305 219.5544233 -5.74902344 192.73779297 C1.23807096 176.97422635 10.91017508 164.59895464 23.3828125 152.8203125 C20.26391495 146.7473299 16.61219235 141.20388839 12.60668945 135.68798828 C8.29379104 129.73954304 4.15167971 123.68063932 0.01879883 117.60620117 C-3.43569158 112.53246695 -6.93719754 107.50291368 -10.54296875 102.53515625 C-11.6171875 100.8203125 -11.6171875 100.8203125 -11.6171875 98.8203125 C-12.58140625 99.16964844 -13.545625 99.51898438 -14.5390625 99.87890625 C-15.81506753 100.33864336 -17.09111124 100.79827313 -18.3671875 101.2578125 C-19.00140625 101.48791016 -19.635625 101.71800781 -20.2890625 101.95507812 C-34.21560023 106.95992762 -51.01249716 106.8647362 -64.6171875 100.8203125 C-65.54273437 100.41941406 -66.46828125 100.01851563 -67.421875 99.60546875 C-82.22879915 92.36979052 -92.66739129 79.8736856 -98.0546875 64.3828125 C-103.02016008 48.3730601 -101.48966869 31.06957889 -94.0546875 16.0703125 C-85.65282276 2.0672046 -72.59022011 -9.07356472 -56.6171875 -13.1796875 C-35.79772417 -17.67787143 -16.41755299 -13.67312622 0 0 Z " fill="#000101" transform="translate(164.6171875,23.1796875)"/>
<path d="M0 0 C19.99246224 14.15280607 33.28686985 34.82938941 37.89111328 58.89135742 C41.39360704 82.09081804 34.62436196 103.37556131 23.26611328 123.37524414 C22.93611328 123.37524414 22.60611328 123.37524414 22.26611328 123.37524414 C22.22744141 121.78196289 22.22744141 121.78196289 22.18798828 120.15649414 C21.88271496 107.80487125 21.88271496 107.80487125 15.51611328 97.60571289 C13.20951392 95.55380054 11.03212441 93.7582497 8.26611328 92.37524414 C10.14111328 86.62524414 10.14111328 86.62524414 11.26611328 84.37524414 C12.20808823 71.70704946 12.20808823 71.70704946 7.26611328 60.37524414 C6.46173828 59.04493164 6.46173828 59.04493164 5.64111328 57.68774414 C-0.73116486 51.48315753 -9.05778574 49.0020182 -17.74951172 49.09399414 C-25.08687192 49.78547311 -31.70715288 52.99780794 -36.73388672 58.37524414 C-42.37793829 66.10025902 -42.69042941 74.061539 -41.73388672 83.37524414 C-41.17076638 85.75767634 -40.48026845 88.04017841 -39.73388672 90.37524414 C-47.74106989 95.57380751 -47.74106989 95.57380751 -51.54638672 94.81274414 C-52.26826172 94.33836914 -52.99013672 93.86399414 -53.73388672 93.37524414 C-55.06183633 92.69791701 -56.39443286 92.02952663 -57.73388672 91.37524414 C-57.58951172 90.79258789 -57.44513672 90.20993164 -57.29638672 89.60961914 C-55.05997058 79.73211455 -53.99650996 70.64204553 -59.19091797 61.56274414 C-63.52114815 55.42368362 -69.52854046 51.46255394 -76.73388672 49.37524414 C-85.26360234 48.17974069 -92.88754463 50.21619329 -99.98388672 55.00024414 C-105.55599016 59.46015129 -108.64426104 65.37522461 -109.73388672 72.37524414 C-110.39262888 79.20336001 -108.98724256 84.95049743 -106.73388672 91.37524414 C-107.26498047 91.75036133 -107.79607422 92.12547852 -108.34326172 92.51196289 C-114.0940086 96.67810616 -118.46934988 100.44953565 -120.73388672 107.37524414 C-121.10072637 110.14073261 -121.2393849 112.90185806 -121.35888672 115.68774414 C-121.39755859 116.42831055 -121.43623047 117.16887695 -121.47607422 117.93188477 C-121.56970377 119.74595723 -121.65285523 121.5605653 -121.73388672 123.37524414 C-128.12919976 115.72837521 -131.73823757 107.104176 -134.54638672 97.62524414 C-134.75320068 96.92882812 -134.96001465 96.23241211 -135.1730957 95.51489258 C-141.38091496 73.46237855 -138.06321657 49.2974567 -126.90771484 29.37768555 C-123.42896016 23.55191793 -119.29972781 18.37592724 -114.73388672 13.37524414 C-113.74582031 12.28276367 -113.74582031 12.28276367 -112.73779297 11.16821289 C-83.61659506 -19.47642796 -34.56930319 -23.21977056 0 0 Z " fill="#B2D1EF" transform="translate(305.73388671875,182.624755859375)"/>
<path d="M0 0 C6.17298916 4.82759409 9.95858294 11.16740614 12.015625 18.6796875 C12.80439221 27.53038935 12.97566889 35.977756 8.015625 43.6796875 C7.57992187 44.38609375 7.14421875 45.0925 6.6953125 45.8203125 C2.01468365 52.72615834 -3.98458851 56.47684774 -11.984375 58.6796875 C-23.08414772 59.67820262 -32.7188616 59.02915952 -41.796875 51.9296875 C-47.8546089 46.27199263 -51.57544868 39.22542658 -52.3203125 30.9453125 C-52.55914847 20.33023456 -51.35658181 11.38586422 -43.828125 3.28125 C-31.53311603 -7.39873661 -13.71778073 -9.12718482 0 0 Z " fill="#000000" transform="translate(251.984375,405.3203125)"/>
<path d="M0 0 C8.34468007 4.97590182 13.53387008 11.86345977 16.109375 21.2578125 C17.10789012 32.35758522 16.45884702 41.9922991 9.359375 51.0703125 C3.70168013 57.1280464 -3.34488592 60.84888618 -11.625 61.59375 C-22.35447774 61.83515993 -31.19802606 60.58332943 -39.359375 52.9609375 C-46.75303791 44.73737365 -48.47252567 36.02335615 -48.203125 25.24609375 C-47.72879865 16.86039919 -44.11592977 9.8548755 -37.890625 4.2578125 C-27.15195714 -3.81766573 -12.32399863 -5.91386512 0 0 Z " fill="#000000" transform="translate(279.890625,66.7421875)"/>
<path d="M0 0 C10.22424627 6.16006282 17.6472162 14.57588932 21.25 26.125 C24.50981329 40.19049066 21.3725031 51.16739814 15.3125 63.75 C14.6525 63.75 13.9925 63.75 13.3125 63.75 C13.16554688 63.18152344 13.01859375 62.61304688 12.8671875 62.02734375 C11.17445925 56.20007811 8.90730995 51.80556575 4.3125 47.75 C2.21052666 46.57055898 2.21052666 46.57055898 0.3125 45.75 C0.4775 44.986875 0.6425 44.22375 0.8125 43.4375 C1.93089164 35.18936163 2.53189703 27.67995572 -2.6875 20.75 C-8.52370268 14.34410291 -13.94606727 11.81225921 -22.625 11.375 C-28.84159667 11.54454355 -33.14867425 13.35138553 -37.66796875 17.62109375 C-43.43231826 23.90839456 -44.97309347 28.60371796 -44.82421875 37.078125 C-44.67330244 40.02746082 -44.31175645 42.86281392 -43.6875 45.75 C-44.595 46.306875 -45.5025 46.86375 -46.4375 47.4375 C-52.67714168 51.87724504 -54.63644042 56.61790647 -56.6875 63.75 C-57.3475 63.75 -58.0075 63.75 -58.6875 63.75 C-59.67100025 61.66870896 -60.64914458 59.58488641 -61.625 57.5 C-62.17027344 56.33984375 -62.71554687 55.1796875 -63.27734375 53.984375 C-67.66833831 43.91306337 -66.64462046 32.01788088 -63.07421875 21.8203125 C-57.18931969 8.79064867 -46.94730788 0.74471511 -33.8984375 -4.3359375 C-22.62590021 -7.54490797 -10.25370153 -5.29279653 0 0 Z " fill="#CADBED" transform="translate(465.6875,405.25)"/>
<path d="M0 0 C10.22424627 6.16006282 17.6472162 14.57588932 21.25 26.125 C24.50981329 40.19049066 21.3725031 51.16739814 15.3125 63.75 C14.6525 63.75 13.9925 63.75 13.3125 63.75 C13.16554688 63.18152344 13.01859375 62.61304688 12.8671875 62.02734375 C11.17445925 56.20007811 8.90730995 51.80556575 4.3125 47.75 C2.21052666 46.57055898 2.21052666 46.57055898 0.3125 45.75 C0.4775 44.986875 0.6425 44.22375 0.8125 43.4375 C1.93089164 35.18936163 2.53189703 27.67995572 -2.6875 20.75 C-8.52370268 14.34410291 -13.94606727 11.81225921 -22.625 11.375 C-28.84159667 11.54454355 -33.14867425 13.35138553 -37.66796875 17.62109375 C-43.43231826 23.90839456 -44.97309347 28.60371796 -44.82421875 37.078125 C-44.67330244 40.02746082 -44.31175645 42.86281392 -43.6875 45.75 C-44.595 46.306875 -45.5025 46.86375 -46.4375 47.4375 C-52.67714168 51.87724504 -54.63644042 56.61790647 -56.6875 63.75 C-57.3475 63.75 -58.0075 63.75 -58.6875 63.75 C-59.67100025 61.66870896 -60.64914458 59.58488641 -61.625 57.5 C-62.17027344 56.33984375 -62.71554688 55.1796875 -63.27734375 53.984375 C-67.66833831 43.91306337 -66.64462046 32.01788088 -63.07421875 21.8203125 C-57.18931969 8.79064867 -46.94730788 0.74471511 -33.8984375 -4.3359375 C-22.62590021 -7.54490797 -10.25370153 -5.29279653 0 0 Z " fill="#CADBED" transform="translate(89.6875,325.25)"/>
<path d="M0 0 C9.53511101 6.17615145 15.71080681 15.32737269 19 26.125 C21.8623296 39.56431898 18.43964343 50.36911823 12.6875 62.3125 C12.0275 62.3125 11.3675 62.3125 10.6875 62.3125 C10.54054688 61.74402344 10.39359375 61.17554687 10.2421875 60.58984375 C8.54945925 54.76257811 6.28230995 50.36806575 1.6875 46.3125 C-0.41447334 45.13305898 -0.41447334 45.13305898 -2.3125 44.3125 C-2.1475 43.549375 -1.9825 42.78625 -1.8125 42 C-0.69410836 33.75186163 -0.09310297 26.24245572 -5.3125 19.3125 C-11.14870268 12.90660291 -16.57106727 10.37475921 -25.25 9.9375 C-31.46659667 10.10704355 -35.77367425 11.91388553 -40.29296875 16.18359375 C-46.05731826 22.47089456 -47.59809347 27.16621796 -47.44921875 35.640625 C-47.29830244 38.58996082 -46.93675645 41.42531392 -46.3125 44.3125 C-47.22 44.869375 -48.1275 45.42625 -49.0625 46 C-55.30214168 50.43974504 -57.26144042 55.18040647 -59.3125 62.3125 C-59.9725 62.3125 -60.6325 62.3125 -61.3125 62.3125 C-62.10806657 60.60597935 -62.8987638 58.8971883 -63.6875 57.1875 C-64.12835938 56.23617187 -64.56921875 55.28484375 -65.0234375 54.3046875 C-69.74923201 43.335116 -70.036418 31.30778868 -65.6953125 20.12109375 C-59.54176559 7.62278802 -49.99153843 -1.2672546 -36.80078125 -5.83984375 C-23.93030052 -8.96738498 -11.46245387 -6.27289778 0 0 Z " fill="#CADBED" transform="translate(148.3125,30.6875)"/>
<path d="M0 0 C8.92141565 7.31319082 13.59754613 16.1601871 15.87109375 27.4375 C16.98977532 39.75698076 14.14889422 48.47901352 8.87109375 59.4375 C8.21109375 59.4375 7.55109375 59.4375 6.87109375 59.4375 C6.72414063 58.86902344 6.5771875 58.30054687 6.42578125 57.71484375 C4.733053 51.88757811 2.4659037 47.49306575 -2.12890625 43.4375 C-4.23087959 42.25805898 -4.23087959 42.25805898 -6.12890625 41.4375 C-5.96390625 40.674375 -5.79890625 39.91125 -5.62890625 39.125 C-4.51051461 30.87686163 -3.90950922 23.36745572 -9.12890625 16.4375 C-14.96510893 10.03160291 -20.38747352 7.49975921 -29.06640625 7.0625 C-35.28300292 7.23204355 -39.5900805 9.03888553 -44.109375 13.30859375 C-49.87372451 19.59589456 -51.41449972 24.29121796 -51.265625 32.765625 C-51.11470869 35.71496082 -50.7531627 38.55031392 -50.12890625 41.4375 C-51.03640625 41.994375 -51.94390625 42.55125 -52.87890625 43.125 C-59.11854793 47.56474504 -61.07784667 52.30540647 -63.12890625 59.4375 C-63.78890625 59.4375 -64.44890625 59.4375 -65.12890625 59.4375 C-66.1124065 57.35620896 -67.09055083 55.27238641 -68.06640625 53.1875 C-68.61167969 52.02734375 -69.15695312 50.8671875 -69.71875 49.671875 C-74.10974456 39.60056337 -73.08602671 27.70538088 -69.515625 17.5078125 C-64.23034613 5.80575843 -55.01445354 -2.80349817 -43.12890625 -7.5625 C-27.99907773 -12.77968225 -12.63390785 -9.27259292 0 0 Z " fill="#CADBED" transform="translate(440.12890625,57.5625)"/>
<path d="M0 0 C7.22538503 4.30603754 11.61183794 10.13263188 14.4375 18 C15.58377924 27.37083278 15.35041227 36.25894094 9.4375 44 C4.17173342 49.79454649 -1.46288906 53.49851854 -9.39453125 54.46875 C-18.96468152 54.54388366 -26.27935606 53.80103194 -33.6171875 47.1328125 C-40.09535088 40.22456359 -42.12992353 33.50211038 -42.04296875 24.06860352 C-41.74395838 15.54582427 -38.83865527 9.83070397 -32.6875 4.0625 C-23.90268227 -3.41745987 -10.46364874 -4.75036814 0 0 Z " fill="#000000" transform="translate(73.5625,162)"/>
<path d="M0 0 C7.22538503 4.30603754 11.61183794 10.13263188 14.4375 18 C15.5847086 27.37843032 15.34384684 36.24881359 9.4375 44 C3.84302312 50.27440264 -1.71377993 53.5167569 -10.05078125 54.34765625 C-19.51837783 54.71874798 -26.49326214 53.59790455 -33.62109375 47.1328125 C-40.09192704 40.2180343 -42.1299429 33.50421207 -42.04296875 24.06860352 C-41.74395838 15.54582427 -38.83865527 9.83070397 -32.6875 4.0625 C-23.90268227 -3.41745987 -10.46364874 -4.75036814 0 0 Z " fill="#000000" transform="translate(425.5625,226)"/>
<path d="M0 0 C6.89374396 3.99598978 10.41738346 10.63543621 13 18 C14.50733133 26.45716434 12.22932623 33.82298639 7.75 41.00390625 C3.24714448 46.92669632 -3.73233611 50.59153801 -11 52 C-19.09887184 52.90562465 -25.31074541 51.76221767 -32 47 C-38.46199926 41.21936801 -42.36794489 35.58794173 -43.34375 26.9609375 C-43.70680743 19.20966132 -42.63989204 13.3085307 -38 7 C-27.0657057 -4.97662889 -14.51616204 -7.20146572 0 0 Z " fill="#020303" transform="translate(272,188)"/>
<path d="M0 0 C0.80232056 -0.00004028 1.60464111 -0.00008057 2.43127441 -0.00012207 C4.12239443 0.00522359 5.8135146 0.02276578 7.50439453 0.05175781 C10.08573724 0.09362006 12.66446867 0.09282315 15.24609375 0.0859375 C16.89324721 0.09643096 18.54038728 0.10936992 20.1875 0.125 C21.3392572 0.12530212 21.3392572 0.12530212 22.51428223 0.12561035 C27.02599744 0.22473308 30.01087988 0.78722566 33.59375 3.59375 C34.82455509 6.05536017 34.71418977 7.65871993 34.70727539 10.41064453 C34.70719986 11.41153107 34.70712433 12.4124176 34.70704651 13.44363403 C34.70188522 14.52700043 34.69672394 15.61036682 34.69140625 16.7265625 C34.6899913 17.83353485 34.68857635 18.9405072 34.68711853 20.08102417 C34.68150772 23.62695993 34.66895337 27.17283323 34.65625 30.71875 C34.65123639 33.11848867 34.64667325 35.51822833 34.64257812 37.91796875 C34.63153478 43.80991725 34.6147861 49.70182916 34.59375 55.59375 C33.17480112 55.61683012 31.75574168 55.6331649 30.33666992 55.64672852 C29.15133919 55.66147972 29.15133919 55.66147972 27.94206238 55.67652893 C17.11228947 55.2947752 4.75087939 49.11978646 -4.40625 43.59375 C-5.19161133 43.18560059 -5.97697266 42.77745117 -6.78613281 42.35693359 C-9.58277237 40.64750835 -11.41337156 39.21008249 -13.40625 36.59375 C-14.47380298 32.05754845 -14.5387138 27.71797155 -14.35986328 23.09570312 C-14.28109982 20.96468677 -14.27778999 18.84322288 -14.28515625 16.7109375 C-14.13518559 6.63837605 -14.13518559 6.63837605 -11.38134766 2.69189453 C-7.57423333 0.00698229 -4.49440241 -0.09596673 0 0 Z " fill="#669FE2" transform="translate(213.40625,287.40625)"/>
<path d="M0 0 C0.80232056 -0.00004028 1.60464111 -0.00008057 2.43127441 -0.00012207 C4.12239443 0.00522359 5.8135146 0.02276578 7.50439453 0.05175781 C10.08573724 0.09362006 12.66446867 0.09282315 15.24609375 0.0859375 C16.89324721 0.09643096 18.54038728 0.10936992 20.1875 0.125 C21.3392572 0.12530212 21.3392572 0.12530212 22.51428223 0.12561035 C27.02599744 0.22473308 30.01087988 0.78722566 33.59375 3.59375 C35.78892924 7.98410847 35.06769867 13.73547083 35.16357422 18.60473633 C35.20014567 20.04736673 35.25463322 21.48966206 35.32763672 22.9309082 C35.9206188 34.82744048 35.9206188 34.82744048 32.77441406 39.015625 C30.46798952 40.84986048 28.2093678 42.24415978 25.59375 43.59375 C24.4903125 44.26664062 23.386875 44.93953125 22.25 45.6328125 C15.85930883 48.84397663 9.55831753 51.46043107 2.71875 53.53125 C2.02974609 53.74281738 1.34074219 53.95438477 0.63085938 54.17236328 C-0.37364258 54.45635986 -0.37364258 54.45635986 -1.3984375 54.74609375 C-1.97964355 54.91101318 -2.56084961 55.07593262 -3.15966797 55.24584961 C-6.58255647 55.77591004 -9.94467134 55.64266018 -13.40625 55.59375 C-13.53308815 48.56473062 -13.62061744 41.5360066 -13.6809082 34.50610352 C-13.70604315 32.11504081 -13.74015633 29.72405486 -13.78344727 27.33325195 C-13.84414061 23.89515236 -13.87247072 20.45806904 -13.89453125 17.01953125 C-13.92033768 15.95164871 -13.9461441 14.88376617 -13.97273254 13.78352356 C-13.97448698 9.1348432 -13.92018544 6.40804951 -11.40112305 2.41674805 C-7.56312221 0.08053281 -4.36476369 -0.09319862 0 0 Z " fill="#669FE3" transform="translate(277.40625,287.40625)"/>
<path d="M0 0 C1.26972656 0.00257813 2.53945313 0.00515625 3.84765625 0.0078125 C5.16636719 0.03617187 6.48507812 0.06453125 7.84375 0.09375 C9.16246094 0.09117187 10.48117187 0.08859375 11.83984375 0.0859375 C22.77449158 0.19694915 22.77449158 0.19694915 27.34375 3.59375 C28.84531874 6.59688748 28.43656204 9.38442522 28.40625 12.71875 C28.39722656 14.00007813 28.38820313 15.28140625 28.37890625 16.6015625 C28.36730469 17.58898437 28.35570312 18.57640625 28.34375 19.59375 C18.82342163 24.91029701 7.78628196 26.5617272 -2.90625 23.734375 C-10.10137195 21.14862805 -10.10137195 21.14862805 -11.65625 19.59375 C-11.86185851 17.34968001 -11.97049387 15.09640037 -12.03125 12.84375 C-12.08023437 11.61140625 -12.12921875 10.3790625 -12.1796875 9.109375 C-11.12798987 2.04573421 -6.68903867 -0.04099132 0 0 Z " fill="#7BA9E1" transform="translate(435.65625,463.40625)"/>
<path d="M0 0 C1.26972656 0.00257813 2.53945313 0.00515625 3.84765625 0.0078125 C5.16636719 0.03617187 6.48507813 0.06453125 7.84375 0.09375 C9.16246094 0.09117187 10.48117188 0.08859375 11.83984375 0.0859375 C22.77449158 0.19694915 22.77449158 0.19694915 27.34375 3.59375 C28.84531874 6.59688748 28.43656204 9.38442522 28.40625 12.71875 C28.39722656 14.00007813 28.38820312 15.28140625 28.37890625 16.6015625 C28.36730469 17.58898437 28.35570312 18.57640625 28.34375 19.59375 C18.82342163 24.91029701 7.78628196 26.5617272 -2.90625 23.734375 C-10.10137195 21.14862805 -10.10137195 21.14862805 -11.65625 19.59375 C-11.86185851 17.34968001 -11.97049387 15.09640037 -12.03125 12.84375 C-12.08023438 11.61140625 -12.12921875 10.3790625 -12.1796875 9.109375 C-11.12798987 2.04573421 -6.68903867 -0.04099132 0 0 Z " fill="#7BA9E1" transform="translate(59.65625,383.40625)"/>
<path d="M0 0 C1.26972656 0.00257812 2.53945313 0.00515625 3.84765625 0.0078125 C5.16636719 0.03617187 6.48507812 0.06453125 7.84375 0.09375 C9.16246094 0.09117188 10.48117187 0.08859375 11.83984375 0.0859375 C22.77449158 0.19694915 22.77449158 0.19694915 27.34375 3.59375 C28.84531874 6.59688748 28.43656204 9.38442522 28.40625 12.71875 C28.39722656 14.00007813 28.38820313 15.28140625 28.37890625 16.6015625 C28.36730469 17.58898437 28.35570312 18.57640625 28.34375 19.59375 C18.82342163 24.91029701 7.78628196 26.5617272 -2.90625 23.734375 C-10.10137195 21.14862805 -10.10137195 21.14862805 -11.65625 19.59375 C-11.86185851 17.34968001 -11.97049387 15.09640037 -12.03125 12.84375 C-12.08023437 11.61140625 -12.12921875 10.3790625 -12.1796875 9.109375 C-11.12798987 2.04573421 -6.68903867 -0.04099132 0 0 Z " fill="#7BA9E1" transform="translate(403.65625,111.40625)"/>
<path d="M0 0 C1.26972656 0.00257812 2.53945312 0.00515625 3.84765625 0.0078125 C5.16636719 0.03617187 6.48507813 0.06453125 7.84375 0.09375 C9.16246094 0.09117188 10.48117188 0.08859375 11.83984375 0.0859375 C22.77449158 0.19694915 22.77449158 0.19694915 27.34375 3.59375 C28.84531874 6.59688748 28.43656204 9.38442522 28.40625 12.71875 C28.39722656 14.00007813 28.38820312 15.28140625 28.37890625 16.6015625 C28.36730469 17.58898437 28.35570312 18.57640625 28.34375 19.59375 C18.82342163 24.91029701 7.78628196 26.5617272 -2.90625 23.734375 C-10.10137195 21.14862805 -10.10137195 21.14862805 -11.65625 19.59375 C-11.86185851 17.34968001 -11.97049387 15.09640037 -12.03125 12.84375 C-12.08023438 11.61140625 -12.12921875 10.3790625 -12.1796875 9.109375 C-11.12798987 2.04573421 -6.68903867 -0.04099132 0 0 Z " fill="#7BA9E1" transform="translate(115.65625,87.40625)"/>
<path d="M0 0 C5.67476113 1.96434039 9.31400331 5.62800662 12 11 C12.59057744 16.67862925 12.29370905 21.16922672 9 26 C4.57092517 30.57795129 1.3260831 31.81241265 -4.875 32.3125 C-9.23455451 32.24767391 -11.6384369 30.82676897 -15 28 C-19.39893104 23.00661882 -20.35676337 20.08984773 -20.28125 13.5390625 C-19.73016315 8.56397287 -16.99302299 5.87480597 -13.375 2.6875 C-8.92314854 -0.47565762 -5.3540278 -0.48837416 0 0 Z " fill="#B0CEEC" transform="translate(236,416)"/>
<path d="M0 0 C5.67476113 1.96434039 9.31400331 5.62800662 12 11 C12.3962444 16.84460492 11.95926533 20.77196458 9 26 C5.10505806 30.11842222 1.36523384 32.12618404 -4.3125 32.3125 C-8.94226662 32.25237316 -11.4369151 31.06591027 -15 28 C-19.39893104 23.00661882 -20.35676337 20.08984773 -20.28125 13.5390625 C-19.73016315 8.56397287 -16.99302299 5.87480597 -13.375 2.6875 C-8.92314854 -0.47565762 -5.3540278 -0.48837416 0 0 Z " fill="#B0CEEC" transform="translate(268,80)"/>
<path d="M0 0 C3.3258409 2.062783 6.23502468 4.47004936 8 8 C8.79674298 14.71540516 8.79674298 14.71540516 6.73046875 18.046875 C3.40766769 21.95985727 1.56547947 23.81426515 -3.6875 24.4375 C-8.22744391 24.41264629 -10.43982485 22.53738613 -13.65234375 19.5078125 C-16.20699781 16.64956187 -16.44655204 13.96600649 -16.42578125 10.171875 C-15.65151767 6.2224204 -12.92865376 3.61757913 -10 1 C-6.7374887 -0.63125565 -3.5120384 -0.68851113 0 0 Z " fill="#B0CEEB" transform="translate(64,176)"/>
<path d="M0 0 C4.54447291 1.9023375 6.71481238 4.68353449 9 9 C9.66663169 12.99979016 9.21210252 14.61367041 7.25 18.1875 C3.89033069 22.38708663 2.59807601 23.81957206 -2.875 24.4375 C-7.1659538 24.26938427 -9.72018157 22.81127294 -13 20 C-15.3792967 16.9718042 -15.36275446 13.75230621 -15.25 9.9609375 C-14.72999704 5.88216431 -12.86871913 3.69980152 -9.75 1.1875 C-6.23330403 -0.33107326 -3.80039173 -0.40718483 0 0 Z " fill="#649CDE" transform="translate(260,200)"/>
<path d="M0 0 C4.09206332 1.808121 6.69807584 4.16345973 9 8 C9.66861666 12.1454233 9.95469912 14.44075786 7.75390625 18.03515625 C4.36534205 22.15044494 2.18673684 23.70563158 -3.25 24.4375 C-8.1843364 23.86182742 -10.79803186 21.71753928 -14 18 C-15.23534045 14.29397865 -15.45528745 11.90246386 -15 8 C-10.91704021 1.64314568 -7.65816344 -0.51919752 0 0 Z " fill="#B1CFEC" transform="translate(415,240)"/>
<path d="M0 0 C3 2.5 3 2.5 5 5 C5.33 5.33 5.66 5.66 6 6 C6.53718586 10.07493843 6.91195544 14.23242614 4.98828125 17.9609375 C2.84979723 20.59390581 1.23227732 21.92257423 -2 23 C-8.83159214 23.67195988 -8.83159214 23.67195988 -11.8203125 21.953125 C-14.79088455 19.51352476 -16.81899538 17.67651821 -17.23828125 13.79296875 C-17.43884011 6.75229732 -17.43884011 6.75229732 -15.25 3 C-10.37094286 -1.33693968 -6.21127264 -1.76041417 0 0 Z " fill="#649CDE" transform="translate(296,248)"/>
<path d="M0 0 C3.33254421 2.35998539 5.51166145 5.03150351 6.50390625 9.03125 C6.80517873 14.08485285 5.21724563 17.24654676 2 21 C-0.96610357 23.33050995 -4.23929081 23.47717205 -7.96875 23.38671875 C-12.28533005 22.56490832 -14.88680524 19.56859262 -17.375 16.0625 C-18.70972626 11.65790333 -18.4740789 8.89548236 -16.3125 4.8125 C-11.61398885 -0.90190545 -7.06299389 -2.41628738 0 0 Z " fill="#649CDF" transform="translate(229,248)"/>
<path d="M0 0 C2.66589042 0.54323805 3.75768995 0.96351964 5.875 2.75 C7.21538506 5.84964046 7.42167869 7.71409302 6.875 11.0625 C4.41905875 14.38524404 2.9493356 15.83868008 -1.125 16.6875 C-5.1993356 15.83868008 -6.66905875 14.38524404 -9.125 11.0625 C-9.75 8.0625 -9.75 8.0625 -9.125 5.0625 C-6.50620524 1.2161452 -4.62486834 -0.35838463 0 0 Z " fill="#77A4DA" transform="translate(445.125,431.9375)"/>
<path d="M0 0 C2.66589042 0.54323805 3.75768995 0.96351964 5.875 2.75 C7.21538506 5.84964046 7.42167869 7.71409302 6.875 11.0625 C4.41905875 14.38524404 2.9493356 15.83868008 -1.125 16.6875 C-5.1993356 15.83868008 -6.66905875 14.38524404 -9.125 11.0625 C-9.75 8.0625 -9.75 8.0625 -9.125 5.0625 C-6.50620524 1.2161452 -4.62486834 -0.35838463 0 0 Z " fill="#77A4DA" transform="translate(69.125,351.9375)"/>
<path d="M0 0 C2.66589042 0.54323805 3.75768995 0.96351964 5.875 2.75 C7.21538506 5.84964046 7.42167869 7.71409302 6.875 11.0625 C4.41905875 14.38524404 2.9493356 15.83868008 -1.125 16.6875 C-5.1993356 15.83868008 -6.66905875 14.38524404 -9.125 11.0625 C-9.75 8.0625 -9.75 8.0625 -9.125 5.0625 C-6.50620524 1.2161452 -4.62486834 -0.35838463 0 0 Z " fill="#77A4DA" transform="translate(413.125,79.9375)"/>
<path d="M0 0 C2.66589042 0.54323805 3.75768995 0.96351964 5.875 2.75 C7.21538506 5.84964046 7.42167869 7.71409302 6.875 11.0625 C4.41905875 14.38524404 2.9493356 15.83868008 -1.125 16.6875 C-5.1993356 15.83868008 -6.66905875 14.38524404 -9.125 11.0625 C-9.75 8.0625 -9.75 8.0625 -9.125 5.0625 C-6.50620524 1.2161452 -4.62486834 -0.35838463 0 0 Z " fill="#77A4DA" transform="translate(125.125,55.9375)"/>
</svg>
