<?xml version="1.0" encoding="UTF-8"?>
<svg version="1.1" xmlns="http://www.w3.org/2000/svg" width="512" height="512">
<path d="M0 0 C5.34036022 4.40345492 9.59718028 8.53327908 10.78125 15.46875 C11.81441849 15.46208817 12.84758698 15.45542633 13.9120636 15.44856262 C23.63846702 15.38780436 33.36483204 15.34280281 43.09138203 15.31331348 C48.09217029 15.29764316 53.09280562 15.27637996 58.09350586 15.24243164 C62.91752314 15.20988691 67.74139313 15.19190729 72.5655117 15.18411827 C74.40796414 15.17856596 76.25040833 15.16772392 78.09279823 15.15155983 C80.66922184 15.12985035 83.24503317 15.12678033 85.8215332 15.12817383 C86.58685867 15.117388 87.35218414 15.10660217 88.14070129 15.0954895 C90.93618499 15.11190028 93.23428921 15.19332691 95.75744629 16.46386719 C97.45308194 19.7843775 97.17019015 23.24606374 97.12182617 26.88745117 C97.12226425 27.74620346 97.12270233 28.60495575 97.12315369 29.48973083 C97.12106223 32.33062407 97.09771443 35.1709285 97.07421875 38.01171875 C97.06862406 39.98040952 97.06435337 41.94910447 97.06135559 43.9178009 C97.0498968 49.10138464 97.02042066 54.28471651 96.98724365 59.46820068 C96.95656508 64.75676059 96.94285499 70.04536115 96.92773438 75.33398438 C96.89555201 85.71235029 96.84434311 96.09052921 96.78125 106.46875 C97.5242334 106.30641876 98.2672168 106.14408752 99.03271484 105.97683716 C102.82037318 105.27666036 106.56892138 105.32610146 110.40625 105.3359375 C111.2307666 105.33498077 112.0552832 105.33402405 112.90478516 105.33303833 C114.64290443 105.33235976 116.38102627 105.33419146 118.11914062 105.33837891 C120.77219359 105.34373173 123.42507727 105.33842295 126.078125 105.33203125 C127.77083371 105.33269209 129.46354231 105.33397337 131.15625 105.3359375 C132.34081787 105.33290115 132.34081787 105.33290115 133.54931641 105.32980347 C137.43668978 105.34626736 140.99072536 105.64057462 144.78125 106.46875 C144.77125725 104.84715973 144.77125725 104.84715973 144.76106262 103.19281006 C144.70027765 93.010516 144.65528991 82.82825869 144.62581348 72.64582443 C144.61014997 67.41077876 144.58889906 62.17587942 144.55493164 56.94091797 C144.52236282 51.88996185 144.50440215 46.83914658 144.49661827 41.78809357 C144.49107032 39.85994499 144.48023666 37.93180421 144.46405983 36.00371552 C144.44231852 33.30536672 144.43928169 30.60760181 144.44067383 27.90917969 C144.429888 27.11004654 144.41910217 26.31091339 144.4079895 25.48756409 C144.42526137 22.39868389 144.62849546 19.8416299 145.80505371 16.96960449 C148.8790432 14.63501305 152.04032029 14.94511021 155.7409668 15.01464844 C156.55095123 15.01406433 157.36093567 15.01348022 158.19546509 15.01287842 C160.87423477 15.01566641 163.55189334 15.04679124 166.23046875 15.078125 C168.08705538 15.08558487 169.94364988 15.091279 171.80024719 15.09527588 C176.68801595 15.11055226 181.57530964 15.14985128 186.46289062 15.1940918 C191.44980441 15.23500134 196.43679492 15.25327766 201.42382812 15.2734375 C211.2098442 15.31634363 220.99550761 15.38461916 230.78125 15.46875 C231.08071533 14.52402832 231.38018066 13.57930664 231.6887207 12.60595703 C233.73071144 6.74236352 238.85805256 0.93419597 244.4375 -1.90625 C251.35084789 -3.74980944 260.73612888 -3.93342084 267.34375 -1.03125 C273.36717044 2.753377 278.2147503 8.53095097 280.34375 15.34375 C281.96796362 23.23278759 281.01749598 30.55105045 276.78125 37.46875 C271.76715496 43.06283364 266.93051086 47.06915713 259.29296875 47.8046875 C250.68670026 47.89259627 244.33287827 47.73023464 237.8203125 41.6328125 C233.95184587 37.51171131 232.65831192 35.09993576 230.78125 29.46875 C207.35125 29.46875 183.92125 29.46875 159.78125 29.46875 C159.78125 55.53875 159.78125 81.60875 159.78125 108.46875 C163.41125 108.79875 167.04125 109.12875 170.78125 109.46875 C172.73760758 109.80421018 174.68827301 110.18106869 176.62109375 110.6328125 C177.61149658 110.86427979 178.60189941 111.09574707 179.62231445 111.33422852 C180.64413818 111.58487061 181.66596191 111.8355127 182.71875 112.09375 C183.80051514 112.35663818 184.88228027 112.61952637 185.99682617 112.89038086 C200.43234266 116.50535741 214.09325525 121.68376123 227.78125 127.46875 C227.77014694 126.91386902 227.75904388 126.35898804 227.74760437 125.78729248 C227.63699371 120.01249284 227.56157648 114.23799397 227.5065918 108.46240234 C227.48144603 106.30700458 227.44732476 104.15169209 227.40405273 101.99658203 C227.34340492 98.89854908 227.31504088 95.80164319 227.29296875 92.703125 C227.26716232 91.73945007 227.2413559 90.77577515 227.21476746 89.78289795 C227.2143898 88.88226624 227.21401215 87.98163452 227.21362305 87.05371094 C227.20251999 86.26317322 227.19141693 85.4726355 227.17997742 84.65814209 C228.1024866 81.29904279 229.86695111 80.25708401 232.78125 78.46875 C235.62239075 77.98773193 235.62239075 77.98773193 238.76489258 78.01464844 C239.94573929 78.01495056 241.126586 78.01525269 242.34321594 78.01556396 C243.60796249 78.03620911 244.87270905 78.05685425 246.17578125 78.078125 C247.47827316 78.08378479 248.78076508 78.08944458 250.12272644 78.09527588 C253.57371101 78.11049711 257.02401462 78.14974684 260.47473145 78.1940918 C264.00063873 78.23512142 267.52665681 78.25330318 271.05273438 78.2734375 C277.96251807 78.31624585 284.87185128 78.38445349 291.78125 78.46875 C291.98596924 77.29614624 291.98596924 77.29614624 292.19482422 76.09985352 C293.33262932 70.99488868 297.52259618 67.08207416 301.6953125 64.1015625 C308.33477857 60.23089504 314.23228163 59.67702893 321.78125 60.46875 C329.14006483 62.69302454 334.53747497 67.10308746 338.78125 73.46875 C342.1182899 80.04204672 341.9049121 88.89587195 340.1640625 95.98046875 C337.26520648 102.50930818 331.40168503 107.59243806 324.90625 110.40625 C317.33638875 112.77183164 310.30571366 111.99138667 303.11328125 108.80859375 C298.07333592 105.91294677 294.01436311 101.87975484 291.78125 96.46875 C291.78125 95.47875 291.78125 94.48875 291.78125 93.46875 C275.61125 93.46875 259.44125 93.46875 242.78125 93.46875 C240.64810267 115.76214809 240.64810267 115.76214809 245.40185547 138.39257812 C249.40835329 142.33263798 254.20748957 144.06924559 259.51074219 145.67919922 C262.99986143 146.8925123 265.33623114 148.78545323 268.21875 151.09375 C269.15847656 151.82335937 270.09820312 152.55296875 271.06640625 153.3046875 C271.96230469 154.01882812 272.85820312 154.73296875 273.78125 155.46875 C274.66683594 156.16226563 275.55242187 156.85578125 276.46484375 157.5703125 C281.83746619 161.8590532 286.97409622 166.37861476 292.03125 171.03125 C292.59763184 171.54913086 293.16401367 172.06701172 293.74755859 172.60058594 C300.62379465 179.00557222 306.51896824 186.20335617 312.21875 193.65625 C312.77933105 194.38875977 313.33991211 195.12126953 313.91748047 195.87597656 C318.66701205 202.16401176 322.82907999 208.65466378 326.78125 215.46875 C327.34585937 216.24734375 327.91046875 217.0259375 328.4921875 217.828125 C330.25958985 221.44862193 330.51136267 224.56829427 329.78125 228.46875 C328.5044304 231.56970047 326.80135545 234.29245541 324.96875 237.09375 C324.47391113 237.87427734 323.97907227 238.65480469 323.46923828 239.45898438 C318.70649023 246.84192188 313.45260852 253.76523505 307.78125 260.46875 C307.07871094 261.30148437 306.37617188 262.13421875 305.65234375 262.9921875 C303.41849857 265.54394234 301.11929876 268.01187664 298.78125 270.46875 C298.22872559 271.05382324 297.67620117 271.63889648 297.10693359 272.24169922 C283.15255388 286.92721605 263.01313228 307.41077943 242.78125 312.46875 C242.78125 326.65875 242.78125 340.84875 242.78125 355.46875 C249.51246696 355.55563739 256.22972312 355.61202852 262.95947266 355.59082031 C265.2466674 355.59276438 267.53391982 355.61245581 269.82080078 355.65039062 C273.11406501 355.70191497 276.4018489 355.68913637 279.6953125 355.6640625 C281.22377304 355.70867111 281.22377304 355.70867111 282.78311157 355.75418091 C285.76460146 355.69438168 287.99564615 355.54553431 290.78125 354.46875 C292.88051247 352.05159964 294.23429449 349.71536561 295.61930847 346.83433533 C297.05572702 343.90994493 298.6741478 342.54009247 301.46875 340.90625 C302.21511719 340.45121094 302.96148437 339.99617188 303.73046875 339.52734375 C309.93664956 336.32377232 317.70350416 336.45541795 324.390625 338.1171875 C331.18284516 340.85749701 335.78624378 345.37970811 339.71875 351.46875 C342.23082626 358.3926602 342.25505997 368.21489713 339.28125 374.96875 C335.25130973 381.45907486 329.42122762 386.01516024 322.0625 388.03125 C314.24273752 389.53093048 307.75161295 388.41402144 300.78125 384.46875 C296.87804813 381.36491235 293.70250658 378.12410249 291.78125 373.46875 C291.78125 372.47875 291.78125 371.48875 291.78125 370.46875 C291.05319656 370.47985306 290.32514313 370.49095612 289.57502747 370.50239563 C282.70428873 370.60269863 275.83365982 370.67876607 268.96237659 370.72781086 C265.42992155 370.75387388 261.89807287 370.78920866 258.3659668 370.84594727 C254.30251339 370.91081064 250.23969402 370.93495732 246.17578125 370.95703125 C244.9110347 370.98283768 243.64628815 371.0086441 242.34321594 371.03523254 C233.76860915 371.03797485 233.76860915 371.03797485 229.48828125 368.5703125 C227.04771979 364.13597428 227.0532587 360.34753105 227.07421875 355.35546875 C227.05909744 354.38591751 227.04397614 353.41636627 227.02839661 352.41743469 C226.98551509 349.33013663 226.97668101 346.24381622 226.96875 343.15625 C226.9456061 341.05921879 226.92024099 338.96221084 226.89257812 336.86523438 C226.82972095 331.73298647 226.79738925 326.60134887 226.78125 321.46875 C226.23561401 321.69145569 225.68997803 321.91416138 225.12780762 322.14361572 C204.85925638 330.39443117 204.85925638 330.39443117 195.28125 333.21875 C194.33983154 333.50113525 193.39841309 333.78352051 192.4284668 334.07446289 C170.5206526 340.46875 170.5206526 340.46875 159.78125 340.46875 C159.78125 366.53875 159.78125 392.60875 159.78125 419.46875 C183.21125 419.46875 206.64125 419.46875 230.78125 419.46875 C231.44125 417.15875 232.10125 414.84875 232.78125 412.46875 C236.36178717 406.68480533 242.20382906 403.03992555 248.65625 401.09375 C255.62481441 399.67270941 262.68931699 400.6316489 268.8984375 404.11328125 C274.87627731 408.41682983 279.28590855 414.20566298 280.78125 421.46875 C281.73424042 428.71147719 280.6180815 435.2032858 276.78125 441.46875 C271.76715496 447.06283364 266.93051086 451.06915713 259.29296875 451.8046875 C250.42961405 451.89522228 244.22069567 451.65808605 237.5625 445.375 C233.82601783 441.42801179 231.70349064 438.87060518 230.78125 433.46875 C229.7628302 433.47763245 228.7444104 433.48651489 227.69512939 433.4956665 C218.10151186 433.57672302 208.50796373 433.63670127 198.91408157 433.67599869 C193.98163847 433.6968811 189.04947161 433.7252107 184.1171875 433.77050781 C179.35799186 433.81394221 174.59906207 433.83788218 169.83968353 433.84825897 C168.02315841 433.85565467 166.20664797 433.87009669 164.3902359 433.89167023 C161.84740156 433.92067266 159.30566821 433.9247074 156.76269531 433.92285156 C156.01031586 433.93723267 155.2579364 433.95161377 154.48275757 433.96643066 C151.24607108 433.94083976 149.09738229 433.66080685 146.31079102 431.96789551 C144.12577978 428.39776501 144.25411912 425.08643345 144.32714844 421.02832031 C144.32656433 420.17917557 144.32598022 419.33003082 144.32537842 418.45515442 C144.32816235 415.65197694 144.35926855 412.84986642 144.390625 410.046875 C144.3980863 408.10203635 144.40377976 406.15719017 144.40777588 404.21234131 C144.42304093 399.0960816 144.46233039 393.98027686 144.5065918 388.86419678 C144.54752563 383.64260004 144.56578287 378.42092972 144.5859375 373.19921875 C144.62882367 362.95552939 144.69708568 352.71217754 144.78125 342.46875 C143.53794922 342.63108124 142.29464844 342.79341248 141.01367188 342.96066284 C137.08894099 343.47309429 133.24294939 343.59798142 129.28125 343.6015625 C128.60126953 343.60251923 127.92128906 343.60347595 127.22070312 343.60446167 C125.79557196 343.60513645 124.3704376 343.60333169 122.9453125 343.59912109 C120.7863869 343.59376275 118.62766927 343.59909012 116.46875 343.60546875 C115.07291622 343.60480784 113.67708256 343.60352642 112.28125 343.6015625 C111.0334375 343.60043457 109.785625 343.59930664 108.5 343.59814453 C104.52613963 343.45987339 100.72235988 342.98331997 96.78125 342.46875 C96.79013245 343.54981018 96.79901489 344.63087036 96.8081665 345.74468994 C96.88921291 355.92695719 96.94919646 366.10915909 96.98849869 376.29167557 C97.00938361 381.52678102 97.03771796 386.76162632 97.08300781 391.99658203 C97.126433 397.04754955 97.15038029 402.09826666 97.16075897 407.14940643 C97.16815631 409.07757256 97.18260144 411.00572481 97.20417023 412.93378448 C97.23316007 415.6322656 97.23720787 418.32970882 97.23535156 421.02832031 C97.24973267 421.82745346 97.26411377 422.62658661 97.27893066 423.44993591 C97.25391116 426.80577966 97.01908595 429.08014541 95.25170898 431.96789551 C91.81043577 434.05853955 88.70552058 433.99750605 84.79980469 433.92285156 C83.9994278 433.92343567 83.1990509 433.92401978 82.37442017 433.92462158 C79.73354455 433.92183875 77.09380299 433.89073834 74.453125 433.859375 C72.62038795 433.8519133 70.78764291 433.84622003 68.95489502 433.84222412 C64.13454098 433.82696221 59.31467015 433.78767562 54.49450684 433.7434082 C49.57452939 433.70246751 44.65447375 433.68421567 39.734375 433.6640625 C30.0831212 433.62118189 20.4322258 433.55292381 10.78125 433.46875 C10.48105957 434.41347168 10.18086914 435.35819336 9.87158203 436.33154297 C7.85713233 442.12770927 3.49755599 446.75696334 -1.71875 449.96875 C-8.36225172 452.875282 -16.7905053 452.57581117 -23.71875 450.84375 C-30.25935205 447.9822366 -35.34681783 442.07907472 -38.15625 435.59375 C-40.52059719 428.027839 -39.75383383 420.97865603 -36.546875 413.796875 C-32.97431728 407.53439147 -28.13635843 403.57920681 -21.21875 401.46875 C-12.55663628 399.59586055 -5.675708 401.11413068 2.09375 405.21875 C7.12403267 409.43014945 9.48744469 412.99972347 10.78125 419.46875 C34.21125 419.46875 57.64125 419.46875 81.78125 419.46875 C81.78125 393.39875 81.78125 367.32875 81.78125 340.46875 C78.48125 340.13875 75.18125 339.80875 71.78125 339.46875 C67.84498301 338.77868838 63.97729734 337.84702705 60.09375 336.90625 C59.01738281 336.64666504 57.94101563 336.38708008 56.83203125 336.11962891 C42.3516984 332.5058893 28.37977771 327.59429431 14.78125 321.46875 C14.77714111 322.77545654 14.77303223 324.08216309 14.76879883 325.4284668 C14.74700196 330.28368395 14.69270598 335.13809134 14.62866211 339.99291992 C14.60548704 342.09277578 14.59108756 344.1927478 14.58569336 346.29272461 C14.57640037 349.31437525 14.53540154 352.33420017 14.48828125 355.35546875 C14.4922139 356.29210861 14.49614655 357.22874847 14.50019836 358.19377136 C14.40812057 362.32131602 14.08708257 364.91307252 12.07421875 368.5703125 C6.74179933 371.64451871 1.42559993 371.08025115 -4.61328125 370.95703125 C-5.91577316 370.94995651 -7.21826508 370.94288177 -8.56022644 370.93559265 C-12.01138884 370.91656513 -15.46148739 370.86750439 -18.91223145 370.81207275 C-22.43808604 370.76078649 -25.96411373 370.73805883 -29.49023438 370.71289062 C-36.40017469 370.65937898 -43.30941117 370.57411972 -50.21875 370.46875 C-50.35522949 371.25048584 -50.49170898 372.03222168 -50.63232422 372.83764648 C-51.76989018 377.94153839 -55.95400388 381.82080584 -60.09765625 384.8359375 C-66.6364577 388.70555218 -73.10986511 389.41259484 -80.5234375 388.04296875 C-87.86694879 385.97204775 -93.68348058 381.46765758 -97.71875 374.96875 C-100.6269431 368.3214515 -100.29076245 359.94848416 -98.62890625 353.00390625 C-95.85209728 346.54174713 -89.75189404 340.93930184 -83.328125 338.265625 C-76.64654618 336.55326058 -69.04708627 336.16286138 -62.71875 339.21875 C-61.53253909 339.93743963 -60.36300214 340.68497825 -59.21875 341.46875 C-58.331875 342.025625 -57.445 342.5825 -56.53125 343.15625 C-54.16953245 345.51796755 -53.53553664 347.03407681 -52.26098633 350.04467773 C-50.71575934 352.86056702 -49.97131657 354.1959178 -46.91757202 355.30300903 C-43.98948823 355.60896017 -41.17377683 355.63704148 -38.23046875 355.56640625 C-37.17213333 355.57586777 -36.11379791 355.58532928 -35.02339172 355.59507751 C-31.64958609 355.61564409 -28.27978554 355.57426324 -24.90625 355.53125 C-22.61652732 355.53432476 -20.32680626 355.54143895 -18.03710938 355.55273438 C-12.42845337 355.57916153 -6.82946541 355.52182147 -1.21875 355.46875 C-1.21875 341.27875 -1.21875 327.08875 -1.21875 312.46875 C-3.19875 311.80875 -5.17875 311.14875 -7.21875 310.46875 C-9.57373047 309.1628418 -9.57373047 309.1628418 -11.8359375 307.66796875 C-13.10449585 306.83144775 -13.10449585 306.83144775 -14.39868164 305.97802734 C-15.2880542 305.37684082 -16.17742676 304.7756543 -17.09375 304.15625 C-18.02630615 303.5267041 -18.9588623 302.8971582 -19.91967773 302.24853516 C-40.51683834 288.1712502 -60.01530828 271.13526862 -74.21875 250.46875 C-74.86360352 249.53458252 -74.86360352 249.53458252 -75.52148438 248.58154297 C-78.494442 244.25675903 -81.40637617 239.89954196 -84.21875 235.46875 C-84.80124512 234.61748535 -84.80124512 234.61748535 -85.39550781 233.74902344 C-88.28336073 229.2689215 -89.18912652 225.64409144 -88.21875 220.46875 C-87.07056558 217.87083777 -85.99693033 215.80829374 -84.46875 213.46875 C-84.07042969 212.83428955 -83.67210937 212.1998291 -83.26171875 211.54614258 C-76.46639188 200.93104195 -68.81457791 190.84709838 -60.22265625 181.625 C-58.36092233 179.62173076 -56.6014384 177.56301703 -54.84375 175.46875 C-48.13679255 167.83196436 -40.32215793 161.40683802 -32.34375 155.15625 C-31.2911499 154.30353516 -31.2911499 154.30353516 -30.21728516 153.43359375 C-26.12371721 150.24196773 -22.37743856 148.01591823 -17.4921875 146.2265625 C-11.18174439 143.68946682 -5.83193781 141.48720338 -2.21875 135.46875 C1.36098761 122.19859273 -0.68864147 106.63990805 -1.21875 93.46875 C-17.38875 93.46875 -33.55875 93.46875 -50.21875 93.46875 C-50.54875 95.11875 -50.87875 96.76875 -51.21875 98.46875 C-55.11745167 104.3828822 -60.27517652 108.97863009 -67.13671875 111.046875 C-74.9522717 112.63051425 -82.38747682 111.65207038 -89.21875 107.46875 C-94.81283364 102.45465496 -98.81915713 97.61801086 -99.5546875 89.98046875 C-99.64228395 81.40477639 -99.49229619 75.03894148 -93.41796875 68.54296875 C-86.66748624 62.21193369 -80.47114059 59.84765777 -71.21484375 60.125 C-63.73999154 60.98261016 -58.75877787 64.35146333 -53.62890625 69.6875 C-51.27904431 72.65574666 -50.21875 74.64635281 -50.21875 78.46875 C-49.49069656 78.45986755 -48.76264313 78.45098511 -48.01252747 78.4418335 C-41.14173657 78.36159049 -34.27101597 78.30073632 -27.39987659 78.26150131 C-23.86753618 78.24065157 -20.33558387 78.21238321 -16.8034668 78.16699219 C-12.74003433 78.11510175 -8.67700772 78.09578334 -4.61328125 78.078125 C-3.3485347 78.05747986 -2.08378815 78.03683472 -0.78071594 78.01556396 C0.40013077 78.01526184 1.58097748 78.01495972 2.79760742 78.01464844 C3.83463303 78.00576599 4.87165863 77.99688354 5.94010925 77.98773193 C9.58687098 78.6051453 11.23789598 79.81163665 13.78125 82.46875 C14.38252258 84.65814209 14.38252258 84.65814209 14.34887695 87.05371094 C14.3484993 87.95434265 14.34812164 88.85497437 14.34773254 89.78289795 C14.32192612 90.74657288 14.29611969 91.7102478 14.26953125 92.703125 C14.26245651 93.69628723 14.25538177 94.68944946 14.24809265 95.71270752 C14.22012288 98.88215733 14.15737801 102.04983497 14.09375 105.21875 C14.06867054 107.36846406 14.04585676 109.51820582 14.02539062 111.66796875 C13.97028822 116.9354996 13.88663665 122.2019982 13.78125 127.46875 C14.44274551 127.19984451 15.10424103 126.93093903 15.78578186 126.65388489 C60.59474898 108.46875 60.59474898 108.46875 81.78125 108.46875 C81.78125 82.39875 81.78125 56.32875 81.78125 29.46875 C58.35125 29.46875 34.92125 29.46875 10.78125 29.46875 C9.79125 32.43875 9.79125 32.43875 8.78125 35.46875 C5.1018557 41.05745161 0.3862235 45.81750663 -6.21875 47.46875 C-13.42971206 48.22779864 -21.12965868 48.80818776 -27.51171875 44.859375 C-34.07699076 39.51100695 -38.41614765 33.56852785 -39.53125 25.09375 C-39.8976747 17.76525609 -38.10452155 11.26882541 -33.640625 5.390625 C-25.38934234 -3.4553447 -10.81648372 -6.64170053 0 0 Z M-22.21875 15.46875 C-24.72179378 19.22331567 -24.67155074 21.01620934 -24.21875 25.46875 C-22.47101375 28.89949154 -21.14676207 30.90705848 -17.84375 32.90625 C-14.54288398 33.61357843 -12.46363261 33.41517409 -9.21875 32.46875 C-5.61574304 30.00241817 -5.61574304 30.00241817 -3.21875 26.46875 C-2.7213734 21.494984 -2.67363581 19.40566502 -5.21875 15.03125 C-8.42656736 12.29123933 -10.10738569 11.45994268 -14.22265625 11.2265625 C-17.62095051 11.63888 -19.67551095 13.28883081 -22.21875 15.46875 Z M245.96875 16.15625 C244.22083308 19.5600882 244.11974095 22.77164944 244.78125 26.46875 C246.59642216 29.56126553 248.06769142 31.05563714 251.15625 32.84375 C254.50776613 33.64173003 256.48436982 33.49902506 259.78125 32.46875 C263.59106566 29.16690976 265.61709333 27.20881074 266.09375 22.15625 C265.7287703 17.84948959 264.84141472 16.44391014 261.78125 13.46875 C255.85067585 9.45126429 250.84961509 11.61199629 245.96875 16.15625 Z M-83.21875 79.46875 C-84.91807147 82.40394164 -85.23520196 84.07390287 -85.09375 87.46875 C-84.08405833 90.93055 -82.67927585 92.85910137 -80.21875 95.46875 C-77.01261153 97.07181924 -73.69735003 96.95615461 -70.21875 96.46875 C-66.81984858 94.39985348 -64.32937989 92.35595463 -63.21875 88.46875 C-63.41131912 83.17309916 -64.52828411 80.27104819 -68.21875 76.46875 C-73.85302304 73.65161348 -79.14020853 75.03033722 -83.21875 79.46875 Z M305.40625 81.28125 C304.44504385 84.64547152 304.95280054 87.09577719 305.78125 90.46875 C307.60464052 93.17442626 308.85582436 95.00603718 311.78125 96.46875 C317.51375912 96.97255686 317.51375912 96.97255686 322.65625 94.78125 C325.78074266 91.38106681 326.84963161 89.10990861 326.65625 84.46875 C325.64655833 81.00695 324.24177585 79.07839863 321.78125 76.46875 C315.09548927 73.12586963 309.58848885 75.76829879 305.40625 81.28125 Z M48.78125 130.46875 C47.94609863 130.71963379 47.11094727 130.97051758 46.25048828 131.22900391 C1.559332 144.9930657 -38.13332833 173.39857785 -65.21875 211.46875 C-65.6322168 212.04238281 -66.04568359 212.61601562 -66.47167969 213.20703125 C-70.66520001 218.51668548 -70.66520001 218.51668548 -72.16796875 224.81640625 C-70.86379918 228.4605673 -68.83810221 231.49290565 -66.65625 234.65625 C-66.2037085 235.32116455 -65.75116699 235.9860791 -65.28491211 236.67114258 C-58.40132146 246.68198519 -50.53090452 255.64092267 -42.21875 264.46875 C-41.23455078 265.53416016 -41.23455078 265.53416016 -40.23046875 266.62109375 C-6.54559759 301.8928325 44.29088287 321.58775702 91.78125 327.46875 C92.83143311 327.61014404 92.83143311 327.61014404 93.90283203 327.75439453 C154.03592904 334.93849396 216.93923042 317.96261122 264.87890625 281.0859375 C271.04528271 276.10773766 276.98290933 270.86981447 282.78125 265.46875 C283.51988281 264.78425781 284.25851562 264.09976563 285.01953125 263.39453125 C294.02278516 254.74309188 301.40620092 244.70724899 308.40625 234.40625 C308.83220459 233.78733887 309.25815918 233.16842773 309.69702148 232.53076172 C312.87212319 227.86030337 312.87212319 227.86030337 313.78125 222.46875 C312.40335179 219.8647307 311.04402865 217.65573029 309.34375 215.28125 C308.88363525 214.61778564 308.42352051 213.95432129 307.94946289 213.27075195 C294.89655735 194.64149695 279.19588676 177.84846323 260.78125 164.46875 C260.12979004 163.99469727 259.47833008 163.52064453 258.80712891 163.03222656 C232.07447819 143.85236645 201.86726186 131.38048516 169.78125 124.46875 C168.81751465 124.25847168 167.8537793 124.04819336 166.86083984 123.83154297 C128.09817275 115.79390571 86.45474167 119.09131402 48.78125 130.46875 Z M-84.59375 358.28125 C-85.5671407 361.68811744 -85.11535101 364.06166615 -84.21875 367.46875 C-81.22012409 371.00559081 -79.13051255 373.25150426 -74.46875 373.78125 C-70.36107771 373.38628151 -68.38948386 372.0629868 -65.21875 369.46875 C-62.96377147 366.72355874 -63.21875 365.17404313 -63.21875 361.53125 C-63.77875916 358.08751552 -64.36065882 357.30261285 -66.78125 354.46875 C-73.84207248 350.3606351 -79.59880147 351.69699966 -84.59375 358.28125 Z M305.78125 357.46875 C304.7249638 360.21961299 304.43194781 362.54262835 304.78125 365.46875 C306.38942308 368.68509616 307.75835066 370.71862382 310.65625 372.84375 C315.12023332 374.15668627 317.87873363 373.93736427 322.03125 371.78125 C324.95035722 369.3265462 325.98983379 368.16202563 326.78125 364.46875 C326.57768257 359.58313157 325.11082892 357.00012158 321.78125 353.46875 C315.473278 350.314764 310.0980309 352.41495773 305.78125 357.46875 Z M-22.21875 419.46875 C-24.72179378 423.22331567 -24.67155074 425.01620934 -24.21875 429.46875 C-22.47101375 432.89949154 -21.14676207 434.90705848 -17.84375 436.90625 C-14.54288398 437.61357843 -12.46363261 437.41517409 -9.21875 436.46875 C-5.61574304 434.00241817 -5.61574304 434.00241817 -3.21875 430.46875 C-2.7213734 425.494984 -2.67363581 423.40566502 -5.21875 419.03125 C-8.42656736 416.29123933 -10.10738569 415.45994268 -14.22265625 415.2265625 C-17.62095051 415.63888 -19.67551095 417.28883081 -22.21875 419.46875 Z M245.96875 420.15625 C244.22083308 423.5600882 244.11974095 426.77164944 244.78125 430.46875 C246.59642216 433.56126553 248.06769142 435.05563714 251.15625 436.84375 C254.50776613 437.64173003 256.48436982 437.49902506 259.78125 436.46875 C263.59106566 433.16690976 265.61709333 431.20881074 266.09375 426.15625 C265.7287703 421.84948959 264.84141472 420.44391014 261.78125 417.46875 C255.85067585 413.45126429 250.84961509 415.61199629 245.96875 420.15625 Z " fill="#0B8AD3" transform="translate(135.21875,31.53125)"/>
<path d="M0 0 C3.10700001 2.86959494 3.94011531 4.57420204 4.53344727 8.79296875 C4.56638042 10.25748345 4.57614596 11.72264743 4.56640625 13.1875 C4.57260483 13.96762451 4.57880341 14.74774902 4.58518982 15.55151367 C4.5922712 17.19546261 4.58914331 18.83948351 4.57641602 20.48339844 C4.56253936 22.99288267 4.59665103 25.49864233 4.63476562 28.0078125 C4.63571684 29.60937591 4.63385787 31.21094396 4.62890625 32.8125 C4.64216446 33.55846436 4.65542267 34.30442871 4.66908264 35.07299805 C4.59869025 39.02832105 4.15571304 40.80618748 1.64916992 43.92602539 C-1.26252893 46.20552791 -3.74664111 47.28240703 -7.25 48.4375 C-21.06442201 53.46800542 -29.37742403 61.82273445 -35.7734375 75.0078125 C-40.6105945 86.80801078 -41.09046597 101.35481247 -36.3203125 113.296875 C-29.7459636 126.75678457 -21.02447849 135.43276075 -7 141 C6.64023317 145.34129229 21.25996031 143.95343257 33.96484375 137.4921875 C46.32989615 130.19867236 52.93482855 119.7645787 57.6875 106.4375 C59.5028396 101.68303914 59.5028396 101.68303914 62 100 C64.89435546 99.68941462 67.56910982 99.55582217 70.46484375 99.56640625 C71.29456192 99.5611644 72.12428009 99.55592255 72.97914124 99.55052185 C74.73339723 99.54410054 76.48769628 99.5454401 78.24194336 99.55395508 C80.924447 99.56245862 83.60481655 99.53371809 86.28710938 99.50195312 C87.99218686 99.50034083 89.69726812 99.50091919 91.40234375 99.50390625 C92.20349106 99.49267227 93.00463837 99.48143829 93.83006287 99.46986389 C97.41417006 99.5146457 99.56901311 99.68632216 102.50610352 101.82397461 C104.83388906 105.2146516 104.56952296 108.09639468 104 112 C100.96831454 127.80266045 94.30445323 142.60423707 84 155 C83.23945313 155.92296875 82.47890625 156.8459375 81.6953125 157.796875 C66.02197559 175.92386529 43.00907434 188.00155682 19 190 C-6.97527308 191.41735263 -31.87312294 185.23612273 -52 168 C-53.21623047 167.00033203 -53.21623047 167.00033203 -54.45703125 165.98046875 C-69.09331809 153.50252836 -79.60630767 135.71567285 -84 117 C-84.22300781 116.09894531 -84.44601563 115.19789063 -84.67578125 114.26953125 C-89.80933905 89.50971846 -84.79268856 63.07017118 -71.0703125 41.96484375 C-56.91085776 21.68743592 -27.36302758 -4.63780128 0 0 Z M-47.8125 37.1875 C-64.1894916 53.89370205 -71.58080247 74.54331414 -71.41723633 97.75 C-70.90352951 116.62588979 -63.81500697 134.06961279 -51 148 C-50.26265625 148.82886719 -49.5253125 149.65773438 -48.765625 150.51171875 C-38.12572424 161.86442332 -25.68761737 168.37088983 -11 173 C-10.1646875 173.26683594 -9.329375 173.53367187 -8.46875 173.80859375 C11.816902 178.98714928 33.29254657 173.57604577 51.125 163.75 C57.09299457 160.14741658 62.07648656 155.91540222 67 151 C67.77214844 150.23945313 68.54429687 149.47890625 69.33984375 148.6953125 C77.43890146 140.25014122 87 127.17344293 87 115 C81.72 115 76.44 115 71 115 C70.21689453 116.63195312 70.21689453 116.63195312 69.41796875 118.296875 C60.12661321 137.08110602 48.23459471 148.9809536 28 156 C11.7472643 161.11561517 -6.70903523 158.38635874 -21.75 150.9375 C-38.03726807 141.46016907 -47.75615292 127.22061039 -53.11328125 109.26953125 C-57.06490825 92.70015332 -53.82218502 74.41852953 -45 60 C-36.16796761 47.16496012 -25.41511729 38.90783495 -11 33 C-11 27.39 -11 21.78 -11 16 C-23.6232671 16 -39.34422216 28.91027326 -47.8125 37.1875 Z " fill="#0A81D0" transform="translate(247,161)"/>
<path d="M0 0 C19.74363279 1.22993122 37.75561857 12.03320217 52.3125 24.625 C53.33923828 25.49898437 53.33923828 25.49898437 54.38671875 26.390625 C69.19928675 40.06376469 79.55876533 61.25680976 81.6875 81.125 C81.3125 84.625 81.3125 84.625 79.30078125 87.30444336 C75.55780356 90.21106125 72.67714696 90.33481269 68.125 90.25390625 C66.95481323 90.25752419 66.95481323 90.25752419 65.76098633 90.26121521 C64.11697286 90.26023878 62.47292568 90.24689372 60.82910156 90.22192383 C58.31982176 90.18760015 55.81406422 90.20127537 53.3046875 90.22070312 C51.70311009 90.21380426 50.10154172 90.2041315 48.5 90.19140625 C47.75403564 90.19636612 47.00807129 90.20132599 46.23950195 90.20643616 C41.32915561 90.09601516 38.73342515 89.16360822 35.3125 85.625 C34.1953125 82.99609375 34.1953125 82.99609375 33.4375 80.0625 C29.86576023 68.37963805 23.04285979 59.07331117 12.38671875 52.94140625 C7.0579914 50.22626055 1.60488283 47.8082085 -3.9453125 45.58203125 C-5.6875 44.625 -5.6875 44.625 -7.6875 41.625 C-7.90737748 38.92623488 -8.01549084 36.33313145 -8.0234375 33.6328125 C-8.0300943 32.84985809 -8.0367511 32.06690369 -8.04360962 31.26022339 C-8.05373027 29.60433296 -8.05842682 27.94840179 -8.05810547 26.29248047 C-8.0624725 23.76591291 -8.09877807 21.24110151 -8.13671875 18.71484375 C-8.14258841 17.10417263 -8.14655681 15.49349322 -8.1484375 13.8828125 C-8.16280853 13.13057404 -8.17717957 12.37833557 -8.19198608 11.603302 C-8.16044584 7.96048122 -7.78744428 5.79045216 -5.88916016 2.64794922 C-3.6875 0.625 -3.6875 0.625 0 0 Z M7.3125 16.625 C7.3125 22.235 7.3125 27.845 7.3125 33.625 C9.436875 34.635625 11.56125 35.64625 13.75 36.6875 C19.87109832 39.69774847 25.18572343 43.08502316 30.3125 47.625 C30.91320312 48.12128906 31.51390625 48.61757812 32.1328125 49.12890625 C39.63885905 55.84395686 43.88202881 65.76405763 48.3125 74.625 C53.5925 74.625 58.8725 74.625 64.3125 74.625 C63.62394273 68.79381315 63.62394273 68.79381315 61.74609375 63.79296875 C61.27175903 62.82073364 61.27175903 62.82073364 60.7878418 61.82885742 C60.445354 61.16345947 60.10286621 60.49806152 59.75 59.8125 C59.39139893 59.11036377 59.03279785 58.40822754 58.66333008 57.68481445 C55.52506664 51.71916301 51.88995319 46.58800928 47.3125 41.625 C46.49007812 40.71105469 45.66765625 39.79710937 44.8203125 38.85546875 C34.44582112 27.86452208 22.36643419 21.58521207 8.3125 16.625 C7.9825 16.625 7.6525 16.625 7.3125 16.625 Z " fill="#0D99D8" transform="translate(269.6875,160.375)"/>
<path d="M0 0 C7.81628723 5.49041063 13.30747925 12.08796366 15.60546875 21.47265625 C17.20301736 31.70645773 16.00553702 41.24405768 9.875 49.75 C3.53906229 57.28390913 -4.81214992 62.24005109 -14.66015625 63.28125 C-25.80041304 63.65729242 -33.82908488 60.53334885 -42 53 C-49.30139739 45.30393248 -51.40440274 36.78425416 -51.265625 26.4453125 C-50.47281145 16.16205436 -45.73601685 8.67727737 -38 2 C-26.37158786 -5.40608972 -12.34745365 -6.78652638 0 0 Z M-32.6015625 17.7265625 C-35.97056431 22.30012361 -36.83250304 26.61581927 -36.54296875 32.25 C-35.44382655 37.81687846 -32.60113442 41.98234856 -28.13671875 45.4453125 C-23.29081122 48.22272643 -18.48965929 48.93093873 -13 48 C-6.78125946 46.10977131 -3.06810806 42.67534152 0 37 C1.85804418 31.42586747 1.80631384 26.05724432 -0.6875 20.6875 C-3.34858244 15.95773157 -7.04296444 13.11298099 -12 11 C-20.58277533 9.73390737 -26.69284712 11.35667909 -32.6015625 17.7265625 Z " fill="#0A87D2" transform="translate(274,226)"/>
</svg>
