<?xml version="1.0" encoding="UTF-8"?>
<svg version="1.1" xmlns="http://www.w3.org/2000/svg" width="512" height="512">
<path d="M0 0 C1.26521484 -0.00515625 2.53042969 -0.0103125 3.83398438 -0.015625 C5.8052832 0.00757812 5.8052832 0.00757812 7.81640625 0.03125 C9.7819043 0.00804688 9.7819043 0.00804688 11.78710938 -0.015625 C13.05361328 -0.01046875 14.32011719 -0.0053125 15.625 0 C16.77669678 0.00451172 17.92839355 0.00902344 19.11499023 0.01367188 C23.10330402 0.64612196 25.26316067 1.99668854 28.37890625 4.53125 C32.11236523 9.9059773 31.83460876 16.81240459 31.75390625 23.09375 C31.76550781 24.00060547 31.77710938 24.90746094 31.7890625 25.84179688 C31.75965919 32.59965807 30.87936499 37.65193387 26.31640625 42.90625 C22.57639421 46.04303429 21.97282554 45.53125 16.37890625 45.53125 C16.37890625 56.42125 16.37890625 67.31125 16.37890625 78.53125 C37.16890625 78.53125 57.95890625 78.53125 79.37890625 78.53125 C79.37890625 67.64125 79.37890625 56.75125 79.37890625 45.53125 C77.39890625 45.53125 75.41890625 45.53125 73.37890625 45.53125 C68.41903969 43.00269058 66.30252713 40.71666282 64.37890625 35.53125 C63.94388691 31.3584938 63.96029176 27.22308744 64.00390625 23.03125 C63.99230469 21.91621094 63.98070312 20.80117188 63.96875 19.65234375 C63.99483615 12.35691828 64.38136687 7.56929667 69.69140625 2.1875 C74.89147511 -0.90686196 81.55300169 -0.04037997 87.37890625 0.03125 C88.63703125 0.01578125 89.89515625 0.0003125 91.19140625 -0.015625 C101.43701572 0.0277886 101.43701572 0.0277886 105.06640625 2.1875 C110.37644563 7.56929667 110.76297635 12.35691828 110.7890625 19.65234375 C110.77166016 21.32490234 110.77166016 21.32490234 110.75390625 23.03125 C110.76550781 24.14628906 110.77710938 25.26132812 110.7890625 26.41015625 C110.75227469 36.69848103 110.75227469 36.69848103 107.37890625 41.53125 C102.86776733 45.3406562 101.57863142 45.53125 95.37890625 45.53125 C95.37890625 56.42125 95.37890625 67.31125 95.37890625 78.53125 C116.16890625 78.53125 136.95890625 78.53125 158.37890625 78.53125 C158.37890625 67.64125 158.37890625 56.75125 158.37890625 45.53125 C156.39890625 45.53125 154.41890625 45.53125 152.37890625 45.53125 C148.23827888 43.58271947 146.69085823 42.19202771 144.7265625 38.03125 C142.98242743 33.04509561 142.93628537 28.26811145 143.00390625 23.03125 C142.99230469 22.13277344 142.98070312 21.23429687 142.96875 20.30859375 C142.9925411 14.86043092 143.17888238 9.14375957 146.37890625 4.53125 C152.85399071 -0.71748827 158.81310135 -0.13338995 166.81640625 -0.09375 C168.11384766 -0.12597656 169.41128906 -0.15820312 170.74804688 -0.19140625 C181.37671128 -0.2022907 181.37671128 -0.2022907 185.7265625 3.3828125 C190.92346872 8.6797069 189.60013981 15.98792193 189.62890625 22.90625 C189.65984375 24.75476562 189.65984375 24.75476562 189.69140625 26.640625 C189.6965625 27.82914063 189.70171875 29.01765625 189.70703125 30.2421875 C189.71637695 31.32806152 189.72572266 32.41393555 189.73535156 33.53271484 C189.19678512 38.06331283 187.25701021 40.62875426 184.12890625 43.84375 C181.37890625 45.53125 181.37890625 45.53125 174.37890625 45.53125 C174.37890625 56.42125 174.37890625 67.31125 174.37890625 78.53125 C178.99890625 78.53125 183.61890625 78.53125 188.37890625 78.53125 C194.77863393 80.72293756 198.16289005 83.58231016 201.37890625 89.53125 C202.63324083 93.29425374 202.48586047 96.80335909 202.44140625 100.71875 C202.43689453 101.46833984 202.43238281 102.21792969 202.42773438 102.99023438 C202.41596979 104.83727383 202.3980349 106.68427213 202.37890625 108.53125 C203.42949219 108.48484375 204.48007812 108.4384375 205.5625 108.390625 C222.17601552 107.87009193 222.17601552 107.87009193 229.1796875 114.14453125 C234.71248349 120.09987968 235.68913494 126.02690632 235.50390625 133.90625 C235.49488281 134.64230469 235.48585938 135.37835938 235.4765625 136.13671875 C235.45320769 137.9350388 235.41734461 139.73318911 235.37890625 141.53125 C236.44109375 141.48484375 237.50328125 141.4384375 238.59765625 141.390625 C254.05899646 140.90991422 254.05899646 140.90991422 259.37890625 145.53125 C266.42777433 153.36332564 265.37890625 157.86856199 265.37890625 169.53125 C276.26890625 169.53125 287.15890625 169.53125 298.37890625 169.53125 C298.37890625 167.22125 298.37890625 164.91125 298.37890625 162.53125 C299.5859375 160.3515625 299.5859375 160.3515625 301.19140625 158.65625 C301.71347656 158.08132812 302.23554688 157.50640625 302.7734375 156.9140625 C307.42072819 152.91128658 315.00968452 154.3051345 320.75390625 154.28125 C321.98625 154.260625 323.21859375 154.24 324.48828125 154.21875 C325.67679687 154.21359375 326.8653125 154.2084375 328.08984375 154.203125 C329.71865479 154.18910645 329.71865479 154.18910645 331.38037109 154.17480469 C336.00585891 154.72465098 338.40741421 156.56402026 341.66040039 159.80273438 C343.78112941 163.16986998 343.88134149 165.22820267 343.875 169.1875 C343.87564453 170.45722656 343.87628906 171.72695312 343.87695312 173.03515625 C343.85697266 174.35386719 343.83699219 175.67257813 343.81640625 177.03125 C343.82349609 178.34996094 343.83058594 179.66867188 343.83789062 181.02734375 C343.76574275 191.96052157 343.76574275 191.96052157 340.37890625 196.53125 C334.251295 200.93056064 328.41132396 200.74096 321.12890625 200.78125 C319.75412109 200.8121875 319.75412109 200.8121875 318.3515625 200.84375 C312.3149815 200.87819554 307.85092312 200.13843293 302.37890625 197.53125 C298.44249993 193.10279289 298.37890625 191.72047392 298.37890625 185.53125 C287.48890625 185.53125 276.59890625 185.53125 265.37890625 185.53125 C265.37890625 206.32125 265.37890625 227.11125 265.37890625 248.53125 C276.26890625 248.53125 287.15890625 248.53125 298.37890625 248.53125 C298.37890625 246.55125 298.37890625 244.57125 298.37890625 242.53125 C300.90746567 237.57138344 303.19349343 235.45487088 308.37890625 233.53125 C312.55166245 233.09623066 316.68706881 233.11263551 320.87890625 233.15625 C321.99394531 233.14464844 323.10898437 233.13304687 324.2578125 233.12109375 C331.55323797 233.1471799 336.34085958 233.53371062 341.72265625 238.84375 C344.81701821 244.04381886 343.95053622 250.70534544 343.87890625 256.53125 C343.894375 257.789375 343.90984375 259.0475 343.92578125 260.34375 C343.88236765 270.58935947 343.88236765 270.58935947 341.72265625 274.21875 C336.34085958 279.52878938 331.55323797 279.9153201 324.2578125 279.94140625 C322.58525391 279.92400391 322.58525391 279.92400391 320.87890625 279.90625 C319.76386719 279.91785156 318.64882813 279.92945313 317.5 279.94140625 C307.21167522 279.90461844 307.21167522 279.90461844 302.37890625 276.53125 C298.56950005 272.02011108 298.37890625 270.73097517 298.37890625 264.53125 C287.48890625 264.53125 276.59890625 264.53125 265.37890625 264.53125 C265.37890625 285.32125 265.37890625 306.11125 265.37890625 327.53125 C276.26890625 327.53125 287.15890625 327.53125 298.37890625 327.53125 C298.37890625 325.55125 298.37890625 323.57125 298.37890625 321.53125 C300.32743678 317.39062263 301.71812854 315.84320198 305.87890625 313.87890625 C310.86506064 312.13477118 315.6420448 312.08862912 320.87890625 312.15625 C321.77738281 312.14464844 322.67585938 312.13304687 323.6015625 312.12109375 C329.04972533 312.14488485 334.76639668 312.33122613 339.37890625 315.53125 C344.62764452 322.00633446 344.0435462 327.9654451 344.00390625 335.96875 C344.03613281 337.26619141 344.06835938 338.56363281 344.1015625 339.90039062 C344.11244695 350.52905503 344.11244695 350.52905503 340.52734375 354.87890625 C335.23044935 360.07581247 327.92223432 358.75248356 321.00390625 358.78125 C319.7715625 358.801875 318.53921875 358.8225 317.26953125 358.84375 C316.08101563 358.84890625 314.8925 358.8540625 313.66796875 358.859375 C312.58209473 358.8687207 311.4962207 358.87806641 310.37744141 358.88769531 C305.84684342 358.34912887 303.28140199 356.40935396 300.06640625 353.28125 C298.37890625 350.53125 298.37890625 350.53125 298.37890625 343.53125 C287.48890625 343.53125 276.59890625 343.53125 265.37890625 343.53125 C265.37890625 348.15125 265.37890625 352.77125 265.37890625 357.53125 C263.18721869 363.93097768 260.32784609 367.3152338 254.37890625 370.53125 C250.61590251 371.78558458 247.10679716 371.63820422 243.19140625 371.59375 C242.44181641 371.58923828 241.69222656 371.58472656 240.91992188 371.58007812 C239.07288242 371.56831354 237.22588412 371.55037865 235.37890625 371.53125 C235.4253125 372.58183594 235.47171875 373.63242187 235.51953125 374.71484375 C236.04006432 391.32835927 236.04006432 391.32835927 229.765625 398.33203125 C223.81027657 403.86482724 217.88324993 404.84147869 210.00390625 404.65625 C209.26785156 404.64722656 208.53179687 404.63820313 207.7734375 404.62890625 C205.97511745 404.60555144 204.17696714 404.56968836 202.37890625 404.53125 C202.4253125 405.5934375 202.47171875 406.655625 202.51953125 407.75 C203.00024203 423.21134021 203.00024203 423.21134021 198.37890625 428.53125 C190.54683061 435.58011808 186.04159426 434.53125 174.37890625 434.53125 C174.37890625 445.42125 174.37890625 456.31125 174.37890625 467.53125 C176.68890625 467.53125 178.99890625 467.53125 181.37890625 467.53125 C183.55859375 468.73828125 183.55859375 468.73828125 185.25390625 470.34375 C186.11628906 471.12685547 186.11628906 471.12685547 186.99609375 471.92578125 C190.99886967 476.57307194 189.60502175 484.16202827 189.62890625 489.90625 C189.65984375 491.75476563 189.65984375 491.75476563 189.69140625 493.640625 C189.6965625 494.82914062 189.70171875 496.01765625 189.70703125 497.2421875 C189.71637695 498.32806152 189.72572266 499.41393555 189.73535156 500.53271484 C189.18546005 505.15858303 187.34753079 507.56023328 184.10522461 510.81054688 C180.7545744 512.92529414 178.70033048 513.04704023 174.7578125 513.0625 C173.49259766 513.06765625 172.22738281 513.0728125 170.92382812 513.078125 C169.60962891 513.06265625 168.29542969 513.0471875 166.94140625 513.03125 C165.63107422 513.04671875 164.32074219 513.0621875 162.97070312 513.078125 C161.07094727 513.07039062 161.07094727 513.07039062 159.1328125 513.0625 C157.98111572 513.05798828 156.82941895 513.05347656 155.64282227 513.04882812 C151.65440898 512.41636226 149.49460857 511.06605867 146.37890625 508.53125 C142.65936207 503.16990464 142.92300735 496.29642029 143.00390625 490.03125 C142.99230469 489.13277344 142.98070312 488.23429687 142.96875 487.30859375 C142.99464764 481.37803519 143.83900295 476.91128158 146.37890625 471.53125 C150.80736336 467.59484368 152.18968233 467.53125 158.37890625 467.53125 C158.37890625 456.64125 158.37890625 445.75125 158.37890625 434.53125 C137.58890625 434.53125 116.79890625 434.53125 95.37890625 434.53125 C95.37890625 445.42125 95.37890625 456.31125 95.37890625 467.53125 C97.35890625 467.53125 99.33890625 467.53125 101.37890625 467.53125 C106.33877281 470.05980942 108.45528537 472.34583718 110.37890625 477.53125 C110.81392559 481.7040062 110.79752074 485.83941256 110.75390625 490.03125 C110.76550781 491.14628906 110.77710938 492.26132812 110.7890625 493.41015625 C110.76297635 500.70558172 110.37644563 505.49320333 105.06640625 510.875 C99.86633739 513.96936196 93.20481081 513.10287997 87.37890625 513.03125 C86.12078125 513.04671875 84.86265625 513.0621875 83.56640625 513.078125 C73.32079678 513.0347114 73.32079678 513.0347114 69.69140625 510.875 C64.38136687 505.49320333 63.99483615 500.70558172 63.96875 493.41015625 C63.98615234 491.73759766 63.98615234 491.73759766 64.00390625 490.03125 C63.99230469 488.91621094 63.98070312 487.80117188 63.96875 486.65234375 C64.00553781 476.36401897 64.00553781 476.36401897 67.37890625 471.53125 C71.89004517 467.7218438 73.17918108 467.53125 79.37890625 467.53125 C79.37890625 456.64125 79.37890625 445.75125 79.37890625 434.53125 C58.58890625 434.53125 37.79890625 434.53125 16.37890625 434.53125 C16.37890625 445.42125 16.37890625 456.31125 16.37890625 467.53125 C18.35890625 467.53125 20.33890625 467.53125 22.37890625 467.53125 C26.51713655 469.47865249 28.06636228 470.86995721 30.03125 475.02734375 C31.78245226 480.03256515 31.82144274 484.83716004 31.75390625 490.09375 C31.76550781 491.00060547 31.77710938 491.90746094 31.7890625 492.84179688 C31.75965919 499.59965807 30.87936499 504.65193387 26.31640625 509.90625 C21.66178833 513.81012309 16.05008241 512.86633878 10.22241211 512.9362793 C8.21607941 512.96835554 6.2104542 513.03766112 4.20507812 513.10742188 C-6.69450971 513.23396934 -6.69450971 513.23396934 -10.984375 509.69140625 C-16.15730779 504.37801689 -14.84233277 497.07326566 -14.87109375 490.15625 C-14.90203125 488.30773437 -14.90203125 488.30773437 -14.93359375 486.421875 C-14.94132812 484.63910156 -14.94132812 484.63910156 -14.94921875 482.8203125 C-14.95856445 481.73443848 -14.96791016 480.64856445 -14.97753906 479.52978516 C-14.43897262 474.99918717 -12.49919771 472.43374574 -9.37109375 469.21875 C-6.62109375 467.53125 -6.62109375 467.53125 0.37890625 467.53125 C0.37890625 456.64125 0.37890625 445.75125 0.37890625 434.53125 C-4.24109375 434.53125 -8.86109375 434.53125 -13.62109375 434.53125 C-20.02082143 432.33956244 -23.40507755 429.48018984 -26.62109375 423.53125 C-27.87542833 419.76824626 -27.72804797 416.25914091 -27.68359375 412.34375 C-27.67908203 411.59416016 -27.67457031 410.84457031 -27.66992188 410.07226562 C-27.65815729 408.22522617 -27.6402224 406.37822787 -27.62109375 404.53125 C-28.67167969 404.57765625 -29.72226563 404.6240625 -30.8046875 404.671875 C-47.41820302 405.19240807 -47.41820302 405.19240807 -54.421875 398.91796875 C-59.95467099 392.96262032 -60.93132244 387.03559368 -60.74609375 379.15625 C-60.73707031 378.42019531 -60.72804688 377.68414062 -60.71875 376.92578125 C-60.69539519 375.1274612 -60.65953211 373.32931089 -60.62109375 371.53125 C-61.68328125 371.57765625 -62.74546875 371.6240625 -63.83984375 371.671875 C-79.30118396 372.15258578 -79.30118396 372.15258578 -84.62109375 367.53125 C-91.66996183 359.69917436 -90.62109375 355.19393801 -90.62109375 343.53125 C-101.51109375 343.53125 -112.40109375 343.53125 -123.62109375 343.53125 C-123.62109375 345.84125 -123.62109375 348.15125 -123.62109375 350.53125 C-124.828125 352.7109375 -124.828125 352.7109375 -126.43359375 354.40625 C-126.95566406 354.98117187 -127.47773437 355.55609375 -128.015625 356.1484375 C-132.66291569 360.15121342 -140.25187202 358.7573655 -145.99609375 358.78125 C-147.84460938 358.8121875 -147.84460938 358.8121875 -149.73046875 358.84375 C-150.91898438 358.84890625 -152.1075 358.8540625 -153.33203125 358.859375 C-154.41790527 358.8687207 -155.5037793 358.87806641 -156.62255859 358.88769531 C-161.24842678 358.3378038 -163.65007703 356.49987454 -166.90039062 353.25756836 C-169.01513789 349.90691815 -169.13688398 347.85267423 -169.15234375 343.91015625 C-169.1575 342.64494141 -169.16265625 341.37972656 -169.16796875 340.07617188 C-169.1525 338.76197266 -169.13703125 337.44777344 -169.12109375 336.09375 C-169.1365625 334.78341797 -169.15203125 333.47308594 -169.16796875 332.12304688 C-169.1628125 330.85654297 -169.15765625 329.59003906 -169.15234375 328.28515625 C-169.14783203 327.13345947 -169.14332031 325.9817627 -169.13867188 324.79516602 C-168.50620601 320.80675273 -167.15590242 318.64695232 -164.62109375 315.53125 C-159.25974839 311.81170582 -152.38626404 312.0753511 -146.12109375 312.15625 C-145.22261719 312.14464844 -144.32414062 312.13304687 -143.3984375 312.12109375 C-137.46787894 312.14699139 -133.00112533 312.9913467 -127.62109375 315.53125 C-123.68468743 319.95970711 -123.62109375 321.34202608 -123.62109375 327.53125 C-112.73109375 327.53125 -101.84109375 327.53125 -90.62109375 327.53125 C-90.62109375 306.74125 -90.62109375 285.95125 -90.62109375 264.53125 C-101.51109375 264.53125 -112.40109375 264.53125 -123.62109375 264.53125 C-123.62109375 266.51125 -123.62109375 268.49125 -123.62109375 270.53125 C-126.14965317 275.49111656 -128.43568093 277.60762912 -133.62109375 279.53125 C-137.79384995 279.96626934 -141.92925631 279.94986449 -146.12109375 279.90625 C-147.23613281 279.91785156 -148.35117188 279.92945313 -149.5 279.94140625 C-156.79542547 279.9153201 -161.58304708 279.52878938 -166.96484375 274.21875 C-170.05920571 269.01868114 -169.19272372 262.35715456 -169.12109375 256.53125 C-169.1365625 255.273125 -169.15203125 254.015 -169.16796875 252.71875 C-169.12455515 242.47314053 -169.12455515 242.47314053 -166.96484375 238.84375 C-161.58304708 233.53371062 -156.79542547 233.1471799 -149.5 233.12109375 C-147.82744141 233.13849609 -147.82744141 233.13849609 -146.12109375 233.15625 C-145.00605469 233.14464844 -143.89101562 233.13304687 -142.7421875 233.12109375 C-132.45386272 233.15788156 -132.45386272 233.15788156 -127.62109375 236.53125 C-123.81168755 241.04238892 -123.62109375 242.33152483 -123.62109375 248.53125 C-112.73109375 248.53125 -101.84109375 248.53125 -90.62109375 248.53125 C-90.62109375 227.74125 -90.62109375 206.95125 -90.62109375 185.53125 C-101.51109375 185.53125 -112.40109375 185.53125 -123.62109375 185.53125 C-123.62109375 187.51125 -123.62109375 189.49125 -123.62109375 191.53125 C-125.4599439 195.69285823 -127.55820776 197.5493544 -131.62109375 199.53125 C-136.30911376 200.95163911 -141.01275251 200.75437121 -145.87109375 200.78125 C-147.24587891 200.8121875 -147.24587891 200.8121875 -148.6484375 200.84375 C-154.18029904 200.87531554 -159.93678258 200.80897023 -164.62109375 197.53125 C-169.86829797 191.05399423 -169.28574063 185.0984558 -169.24609375 177.09375 C-169.27832031 175.79630859 -169.31054688 174.49886719 -169.34375 173.16210938 C-169.35463445 162.53344497 -169.35463445 162.53344497 -165.76953125 158.18359375 C-160.47263685 152.98668753 -153.16442182 154.31001644 -146.24609375 154.28125 C-144.39757812 154.2503125 -144.39757812 154.2503125 -142.51171875 154.21875 C-141.32320312 154.21359375 -140.1346875 154.2084375 -138.91015625 154.203125 C-137.28134521 154.18910645 -137.28134521 154.18910645 -135.61962891 154.17480469 C-131.08903092 154.71337113 -128.52358949 156.65314604 -125.30859375 159.78125 C-123.62109375 162.53125 -123.62109375 162.53125 -123.62109375 169.53125 C-112.73109375 169.53125 -101.84109375 169.53125 -90.62109375 169.53125 C-90.62109375 164.91125 -90.62109375 160.29125 -90.62109375 155.53125 C-88.42940619 149.13152232 -85.57003359 145.7472662 -79.62109375 142.53125 C-75.85809001 141.27691542 -72.34898466 141.42429578 -68.43359375 141.46875 C-67.68400391 141.47326172 -66.93441406 141.47777344 -66.16210938 141.48242188 C-64.31506992 141.49418646 -62.46807162 141.51212135 -60.62109375 141.53125 C-60.6675 140.48066406 -60.71390625 139.43007812 -60.76171875 138.34765625 C-61.28225182 121.73414073 -61.28225182 121.73414073 -55.0078125 114.73046875 C-49.05246407 109.19767276 -43.12543743 108.22102131 -35.24609375 108.40625 C-34.51003906 108.41527344 -33.77398437 108.42429687 -33.015625 108.43359375 C-31.21730495 108.45694856 -29.41915464 108.49281164 -27.62109375 108.53125 C-27.6675 107.4690625 -27.71390625 106.406875 -27.76171875 105.3125 C-28.24242953 89.85115979 -28.24242953 89.85115979 -23.62109375 84.53125 C-15.78901811 77.48238192 -11.28378176 78.53125 0.37890625 78.53125 C0.37890625 67.64125 0.37890625 56.75125 0.37890625 45.53125 C-1.93109375 45.53125 -4.24109375 45.53125 -6.62109375 45.53125 C-8.80078125 44.32421875 -8.80078125 44.32421875 -10.49609375 42.71875 C-11.07101563 42.19667969 -11.6459375 41.67460938 -12.23828125 41.13671875 C-16.24105717 36.48942806 -14.84720925 28.90047173 -14.87109375 23.15625 C-14.90203125 21.30773438 -14.90203125 21.30773438 -14.93359375 19.421875 C-14.94132812 17.63910156 -14.94132812 17.63910156 -14.94921875 15.8203125 C-14.95856445 14.73443848 -14.96791016 13.64856445 -14.97753906 12.52978516 C-14.42764755 7.90391697 -12.58971829 5.50226672 -9.34741211 2.25195312 C-5.9967619 0.13720586 -3.94251798 0.01545977 0 0 Z " fill="#010101" transform="translate(168.62109375,-0.53125)"/>
<path d="M0 0 C1.05505996 -0.00551503 1.05505996 -0.00551503 2.13143426 -0.01114148 C4.49423115 -0.02217645 6.85698406 -0.02602185 9.21980286 -0.02983093 C10.91167846 -0.03609577 12.60355269 -0.04274259 14.29542542 -0.04974365 C19.85720359 -0.07078561 25.41898204 -0.08114679 30.98078918 -0.09111023 C32.89583666 -0.09515786 34.81088399 -0.09927479 36.72593117 -0.10346031 C45.72382377 -0.12251299 54.72170817 -0.13674335 63.71961707 -0.14507228 C74.10318629 -0.15484266 84.48654223 -0.18115667 94.8700363 -0.22157317 C102.89733345 -0.25174515 110.92456949 -0.26654222 118.95192224 -0.26985329 C123.74547143 -0.27220273 128.53879279 -0.28114923 133.33228111 -0.30631447 C137.84426149 -0.32961883 142.35586441 -0.33381894 146.8678894 -0.32355309 C148.52064076 -0.32305817 150.17341084 -0.32936547 151.82610512 -0.34310913 C168.87254657 -0.47689246 168.87254657 -0.47689246 176.14875793 5.92842102 C176.59477356 6.49560852 177.04078918 7.06279602 177.50032043 7.64717102 C178.192547 8.49795227 178.192547 8.49795227 178.89875793 9.36592102 C181.90027425 13.72481096 182.37853731 16.79350438 182.39274597 22.1421051 C182.39727708 22.84633283 182.4018082 23.55056056 182.40647662 24.27612853 C182.4191367 26.63587867 182.41749922 28.99539849 182.41584778 31.35517883 C182.42183213 33.04720354 182.42863746 34.73922552 182.436203 36.4312439 C182.45388218 41.02851959 182.45855926 45.62572083 182.45983458 50.22302723 C182.46125593 53.0962457 182.46552528 55.96944523 182.47082901 58.842659 C182.48933736 68.8694682 182.49749883 78.89622421 182.4959259 88.92304993 C182.49472508 98.26387505 182.51581381 107.60446888 182.54741323 116.94523549 C182.57358596 124.96831575 182.58429274 132.99132054 182.58301508 141.01444316 C182.58250564 145.80461042 182.58817894 150.59457228 182.60937119 155.38469696 C182.62876973 159.89260463 182.62886703 164.40011136 182.61433792 168.90803337 C182.61225055 170.5591662 182.61694646 172.21032423 182.62905884 173.86141396 C182.69304707 183.1910291 182.72365609 190.57442614 176.48469543 198.13545227 C168.77845476 204.47626681 162.01034085 205.48637049 152.19953918 205.74092102 C149.16537037 205.89405083 149.16537037 205.89405083 147.26985168 207.49092102 C145.93179959 209.26244146 145.93179959 209.26244146 145.12532043 212.14717102 C141.54260268 212.32156692 137.96097442 212.4280476 134.37532043 212.52217102 C133.35953918 212.57244446 132.34375793 212.6227179 131.29719543 212.67451477 C130.31750793 212.69385071 129.33782043 212.71318665 128.32844543 212.73310852 C127.42771301 212.76452942 126.52698059 212.79595032 125.59895325 212.82832336 C124.78265442 212.60354309 123.96635559 212.37876282 123.12532043 212.14717102 C122.65327179 211.15742783 122.18122314 210.16768463 121.69487 209.14794922 C119.50950169 206.00229105 119.50950169 206.00229105 116.82952881 205.5946846 C113.71878802 205.40122221 110.65535117 205.39770709 107.53889465 205.4535675 C106.3546843 205.45096924 105.17047394 205.44837097 103.95037842 205.44569397 C100.70364353 205.44352861 97.45829843 205.46755272 94.21178198 205.50153613 C90.80648498 205.52957369 87.40133024 205.51973343 83.99595642 205.51266479 C76.06633872 205.50215389 68.1372004 205.5348285 60.20769501 205.57395935 C50.13661642 205.62283102 40.06578427 205.65884584 29.99457753 205.64262444 C26.60924339 205.63848487 23.22465591 205.64530694 19.83945847 205.67762566 C16.0553797 205.71093073 12.27231324 205.71405948 8.4881134 205.71138 C7.3802095 205.72943192 6.2723056 205.74748383 5.13082886 205.76608276 C-2.95802683 205.71476462 -9.77122529 203.97685056 -15.81857491 198.33296871 C-20.72920664 193.01306199 -22.12286382 188.2704595 -22.1421051 181.0252533 C-22.14663622 180.31946557 -22.15116733 179.61367785 -22.15583575 178.88650262 C-22.16847034 176.52752427 -22.16686001 174.16877707 -22.16520691 171.80976868 C-22.17119273 170.11597396 -22.1779984 168.42218196 -22.18556213 166.72839355 C-22.20322329 162.1312442 -22.20791755 157.53416931 -22.20919371 152.93698931 C-22.21061573 150.06394076 -22.21488627 147.19091113 -22.22018814 144.31786728 C-22.23868835 134.2922063 -22.24685871 124.2665985 -22.24528503 114.24092102 C-22.24408343 104.89948722 -22.26518952 95.5582844 -22.29677236 86.21690905 C-22.32293306 78.19297501 -22.33365243 70.16911641 -22.33237422 62.14514005 C-22.33186455 57.35446068 -22.33755044 52.56398661 -22.35873032 47.77334976 C-22.37810938 43.26707337 -22.3782395 38.76119824 -22.36369705 34.25490761 C-22.36160748 32.60335389 -22.36631872 30.95177508 -22.37841797 29.30026436 C-22.39389645 27.04072556 -22.38454687 24.78256595 -22.36915588 22.52305603 C-22.37024542 21.26024118 -22.37133495 19.99742634 -22.3724575 18.69634438 C-21.52231194 12.63477806 -18.51318599 8.2032631 -13.81217957 4.27217102 C-13.140578 3.69724915 -12.46897644 3.12232727 -11.77702332 2.52998352 C-8.00077068 -0.21497219 -4.52173939 0.01530452 0 0 Z " fill="#EBF2FD" transform="translate(175.8746795654297,153.8528289794922)"/>
<path d="M0 0 C1.36264732 -0.00782324 1.36264732 -0.00782324 2.75282288 -0.01580453 C3.75727951 -0.01134309 4.76173615 -0.00688164 5.79663086 -0.002285 C6.85865219 -0.00540498 7.92067352 -0.00852497 9.01487732 -0.01173949 C12.59713178 -0.01975899 16.17921869 -0.01338047 19.76147461 -0.00710678 C22.32006938 -0.00981489 24.87866336 -0.0133748 27.43725586 -0.0177269 C33.6794697 -0.02592325 39.92162081 -0.02469129 46.16383553 -0.01890162 C51.23528565 -0.01439185 56.30672228 -0.01376924 61.37817383 -0.01594925 C62.09891932 -0.01625572 62.81966482 -0.01656218 63.56225109 -0.01687793 C65.02625657 -0.01751736 66.49026204 -0.01816579 67.9542675 -0.01882312 C81.69458851 -0.02453143 95.43488287 -0.01796067 109.17519951 -0.00722238 C120.97480456 0.00171358 132.77437027 0.00016168 144.57397461 -0.00905991 C158.26384632 -0.0197537 171.95369465 -0.02398206 185.64356995 -0.01783538 C187.10230509 -0.01719825 188.56104024 -0.01656951 190.01977539 -0.01594925 C191.0964713 -0.01548642 191.0964713 -0.01548642 192.19491863 -0.01501425 C197.26251981 -0.01328463 202.33010619 -0.01620814 207.39770508 -0.02090836 C214.21349013 -0.02709083 221.02918912 -0.02271331 227.8449707 -0.01111984 C230.35327022 -0.00846497 232.86157597 -0.00925233 235.36987305 -0.01364517 C238.78044095 -0.01906953 242.19076613 -0.01230444 245.60131836 -0.002285 C247.10800331 -0.00897717 247.10800331 -0.00897717 248.64512634 -0.01580453 C250.00777367 -0.00798129 250.00777367 -0.00798129 251.39794922 0 C252.18592392 0.0003247 252.97389862 0.00064941 253.78575134 0.00098395 C255.69897461 0.25168228 255.69897461 0.25168228 257.69897461 2.25168228 C257.95197427 4.16375488 257.95197427 4.16375488 257.95624352 6.54991436 C257.96269241 7.45772921 257.9691413 8.36554406 257.97578561 9.30086845 C257.97113981 10.80653022 257.97113981 10.80653022 257.96640015 12.34260941 C257.97093126 13.40392517 257.97546237 14.46524094 257.98013079 15.55871779 C257.99285822 19.13862634 257.99114907 22.71838438 257.98950195 26.29831314 C257.99548196 28.85528638 258.00228627 31.41225781 258.00985718 33.96922684 C258.02573423 40.20775753 258.03196784 46.44623247 258.03308193 52.68478148 C258.03403117 57.7538408 258.03813522 62.82288761 258.04448318 67.89194298 C258.06210206 82.25269342 258.07132099 96.61341394 258.06982224 110.97417527 C258.06974232 111.74887514 258.06966241 112.52357501 258.06958008 113.32175064 C258.06949832 114.09739255 258.06941656 114.87303445 258.06933232 115.67218066 C258.06851912 128.24747221 258.08766362 140.82264407 258.11585681 153.39790099 C258.14455388 166.29933893 258.15839888 179.20071844 258.15666926 192.10218912 C258.15600428 199.34973837 258.16154365 206.59716213 258.18302536 213.84468269 C258.20309034 220.6580726 258.20259612 227.47115279 258.1879921 234.28457069 C258.18589137 236.7908428 258.19067934 239.29713115 258.20271301 241.80337524 C258.21803264 245.21382525 258.2089451 248.62334316 258.19345093 252.03377151 C258.20373805 253.03531531 258.21402518 254.0368591 258.22462404 255.06875271 C258.21542645 255.9791753 258.20622885 256.8895979 258.19675255 257.82760906 C258.19740465 259.00900153 258.19740465 259.00900153 258.19806993 260.21426052 C257.69897461 262.25168228 257.69897461 262.25168228 255.94763047 264.00424248 C253.45205754 265.3886593 252.05457204 265.62903952 249.22270298 265.63479233 C247.87775803 265.64837729 247.87775803 265.64837729 246.50564247 265.66223669 C245.03411127 265.6542448 245.03411127 265.6542448 243.53285217 265.64609146 C242.4875729 265.65218256 241.44229362 265.65827367 240.36533922 265.66454935 C236.85152297 265.68124111 233.33806665 265.67639464 229.82421875 265.67160416 C227.30960207 265.67894085 224.79498876 265.68752591 222.28038025 265.69726944 C216.15238934 265.71722124 210.02453159 265.72286378 203.89651258 265.72108155 C198.91618485 265.71977446 193.93588666 265.72357538 188.9555645 265.73100662 C187.52155493 265.73310579 186.08754536 265.73520339 184.65353578 265.73729944 C183.58295299 265.73886473 183.58295299 265.73886473 182.49074226 265.74046165 C168.98971662 265.75936766 155.4887453 265.75831265 141.9877119 265.75149232 C129.63372671 265.74591595 117.27994884 265.76674553 104.92601211 265.79985279 C92.24371427 265.8335765 79.56151579 265.84875982 66.87917227 265.84413576 C59.75787824 265.8418898 52.63677585 265.84715256 45.5155201 265.87202835 C38.82022599 265.89521688 32.12543479 265.892475 25.43010902 265.87210083 C22.96982744 265.86867862 20.50951712 265.87383155 18.04927444 265.88808441 C14.69636636 265.90617166 11.34494256 265.89360464 7.99208069 265.87314224 C7.01329061 265.88566009 6.03450053 265.89817794 5.02605015 265.91107512 C0.60409421 265.85302296 -1.66526766 265.67951258 -5.40565395 263.16243649 C-7.77331409 259.52638048 -7.92390983 257.38469899 -7.92007446 253.05815506 C-7.92943293 251.9880564 -7.92943293 251.9880564 -7.93898046 250.8963396 C-7.95387538 248.51137032 -7.93327212 246.12804582 -7.9128418 243.74313736 C-7.91638338 242.03137507 -7.92216141 240.31961616 -7.93000793 238.60786819 C-7.94218336 234.92511048 -7.93872443 231.24281604 -7.92317581 227.56007195 C-7.89888013 221.74113368 -7.91034423 215.9226021 -7.92684937 210.10365677 C-7.95134242 199.85742924 -7.94554084 189.61138652 -7.93304443 179.36514664 C-7.91445212 163.9261583 -7.91923696 148.48720415 -7.95307863 133.04824179 C-7.96462128 127.25906311 -7.9601157 121.47017899 -7.94305825 115.68101656 C-7.93518589 112.08740876 -7.93939533 108.4938876 -7.94676781 104.90028191 C-7.94758111 103.22889001 -7.94319009 101.55748663 -7.93332481 99.88612366 C-7.92054609 97.6119156 -7.92593507 95.33846318 -7.9359436 93.06425858 C-7.93405848 91.78946042 -7.93217335 90.51466227 -7.93023109 89.20123386 C-8.05259321 88.22788184 -8.17495533 87.25452982 -8.30102539 86.25168228 C-11.77101268 83.93835742 -13.22611787 83.91210665 -17.30102539 84.25168228 C-18.78602539 85.24168228 -18.78602539 85.24168228 -20.30102539 86.25168228 C-20.76569509 88.88867381 -20.76569509 88.88867381 -20.69975281 92.03491592 C-20.71229095 93.26613174 -20.7248291 94.49734756 -20.73774719 95.76587296 C-20.73657301 97.13760784 -20.73511381 98.5093425 -20.73339844 99.88107681 C-20.74241061 101.31978578 -20.75273648 102.75848703 -20.76428223 104.19717789 C-20.79194266 108.11017787 -20.80114891 112.02303254 -20.8071363 115.93611765 C-20.81649657 120.02279999 -20.84269793 124.10937276 -20.86714172 128.1959877 C-20.91087528 135.93782991 -20.93938003 143.67965094 -20.96246511 151.42157924 C-20.98948014 160.2340963 -21.03339383 169.04650351 -21.07875383 177.85894227 C-21.17169823 195.98979769 -21.243334 214.12068215 -21.30102539 232.25168228 C-23.40456034 232.33270289 -25.50898491 232.39088135 -27.61352539 232.43918228 C-28.7852832 232.47398697 -29.95704102 232.50879166 -31.16430664 232.54465103 C-34.30102539 232.25168228 -34.30102539 232.25168228 -36.19560528 231.221982 C-37.93118392 228.12848834 -37.70943946 224.99252061 -37.67524719 221.53938675 C-37.6792216 220.74602545 -37.683196 219.95266415 -37.68729085 219.1352616 C-37.69694071 216.46807745 -37.68507972 213.80142018 -37.67333984 211.13425064 C-37.6757669 209.22574541 -37.67948539 207.31724144 -37.68440247 205.408741 C-37.69382619 200.21879964 -37.68437392 195.02904637 -37.67107034 189.83911967 C-37.65977601 184.41613906 -37.66386174 178.99316798 -37.66581726 173.57017899 C-37.6667008 164.46324963 -37.65560667 155.35639463 -37.63720703 146.24948502 C-37.61603216 135.70836465 -37.61253052 125.1673532 -37.61876899 114.62621588 C-37.62445585 104.50010607 -37.61882542 94.37403478 -37.60759544 84.24793053 C-37.6029411 79.93176502 -37.6020792 75.61562299 -37.60418129 71.29945564 C-37.60605952 66.22122397 -37.5979963 61.14310379 -37.5821209 56.06489754 C-37.57786431 54.19678585 -37.57703665 52.32866288 -37.5798111 50.4605484 C-37.58301379 47.91923972 -37.57399984 45.37826817 -37.5617218 42.83699417 C-37.56550113 42.09002224 -37.56928045 41.34305032 -37.5731743 40.57344288 C-37.52935455 35.48001144 -37.52935455 35.48001144 -35.30102539 33.25168228 C-32.04321289 33.05636978 -32.04321289 33.05636978 -28.17602539 33.12668228 C-26.2540332 33.15375259 -26.2540332 33.15375259 -24.29321289 33.18136978 C-23.30579102 33.20457291 -22.31836914 33.22777603 -21.30102539 33.25168228 C-21.28120605 33.99853287 -21.26138672 34.74538345 -21.2409668 35.51486588 C-21.14594328 38.88583833 -21.0361728 42.25617157 -20.92602539 45.62668228 C-20.89508789 46.80230728 -20.86415039 47.97793228 -20.83227539 49.18918228 C-20.79360352 50.31066666 -20.75493164 51.43215103 -20.71508789 52.58761978 C-20.66795654 54.14295425 -20.66795654 54.14295425 -20.61987305 55.72970963 C-20.54148067 58.41978063 -20.54148067 58.41978063 -18.30102539 60.25168228 C-14.24006581 60.72381901 -14.24006581 60.72381901 -10.30102539 60.25168228 C-7.40375857 57.18338923 -6.92273635 55.03409643 -6.90039062 50.87228775 C-6.88705185 49.79792465 -6.87371307 48.72356155 -6.85997009 47.616642 C-6.85985428 46.46237717 -6.85973846 45.30811234 -6.85961914 44.11886978 C-6.84641129 42.93068649 -6.83320343 41.7425032 -6.81959534 40.51831436 C-6.77866375 36.72107968 -6.75701068 32.9240879 -6.73852539 29.12668228 C-6.71478041 25.32220881 -6.68674255 21.51796556 -6.64674377 17.71362686 C-6.6222865 15.34544275 -6.60750973 12.97713586 -6.60313416 10.6088295 C-6.59294754 9.54077072 -6.58276093 8.47271194 -6.57226562 7.37228775 C-6.56799057 6.42948959 -6.56371552 5.48669144 -6.55931091 4.51532364 C-6.06760064 0.20592336 -3.78745887 0.00156072 0 0 Z M27.82397461 38.31418228 C27.24905273 38.98578384 26.67413086 39.65738541 26.08178711 40.34933853 C23.3368314 44.12559117 23.56710811 47.60462245 23.55180359 52.12636185 C23.5481269 52.82973515 23.54445021 53.53310846 23.54066211 54.25779611 C23.52962714 56.620593 23.52578174 58.9833459 23.52197266 61.3461647 C23.51570781 63.03804031 23.509061 64.72991454 23.50205994 66.42178726 C23.48101798 71.98356544 23.4706568 77.54534389 23.46069336 83.10715103 C23.45664573 85.02219851 23.4525288 86.93724584 23.44834328 88.85229301 C23.4292906 97.85018562 23.41506024 106.84807002 23.40673131 115.84597892 C23.39696093 126.22954814 23.37064691 136.61290407 23.33023041 146.99639815 C23.30005844 155.02369529 23.28526136 163.05093134 23.28195029 171.07828408 C23.27960086 175.87183328 23.27065436 180.66515464 23.24548912 185.45864296 C23.22218476 189.97062334 23.21798465 194.48222625 23.2282505 198.99425125 C23.22874542 200.6470026 23.22243812 202.29977268 23.20869446 203.95246696 C23.09318368 217.00293073 23.09318368 217.00293073 29.37475586 228.23996353 C29.91487305 228.67695572 30.45499023 229.11394791 31.01147461 229.56418228 C31.54385742 230.01406509 32.07624023 230.46394791 32.62475586 230.92746353 C39.67494124 235.42842934 45.50169747 235.66864355 53.72119141 235.58884048 C54.9154776 235.58939438 56.10976379 235.58994827 57.34024048 235.59051895 C60.59837956 235.59019209 63.85619961 235.57710956 67.11428428 235.56020379 C70.5303808 235.54720347 73.94640135 235.55587446 77.36250305 235.56373978 C88.98523086 235.58656678 100.60778624 235.57461925 112.23046875 235.53659439 C118.65918574 235.51579172 125.08754906 235.51644551 131.51625949 235.54012936 C134.9147864 235.55156525 138.31245997 235.55130553 141.7109127 235.5238018 C145.49616127 235.49760473 149.27968587 235.50784173 153.06494141 235.52634048 C154.18970383 235.50940643 155.31446625 235.49247238 156.47331238 235.47502518 C159.3443096 235.50937343 161.90839874 235.57570596 164.69897461 236.25168228 C167.27149963 239.25444412 167.27149963 239.25444412 168.69897461 242.25168228 C171.18410798 243.06858855 171.18410798 243.06858855 173.90209961 242.83761978 C174.88178711 242.81828384 175.86147461 242.79894791 176.87084961 242.77902603 C177.88663086 242.72875259 178.90241211 242.67847916 179.94897461 242.62668228 C180.98022461 242.59961197 182.01147461 242.57254166 183.07397461 242.54465103 C185.61776211 242.47399027 188.1573056 242.37540306 190.69897461 242.25168228 C190.98772461 241.44730728 191.27647461 240.64293228 191.57397461 239.81418228 C192.69897461 237.25168228 192.69897461 237.25168228 194.69897461 236.25168228 C196.86418696 236.12072186 199.03137341 236.02164537 201.19897461 235.93918228 C209.92679329 235.33171895 216.63278061 233.91599505 222.69897461 227.31418228 C226.94421938 222.18110988 227.94871102 217.75633261 227.97312927 211.13649368 C227.97836595 210.43141153 227.98360263 209.72632937 227.988998 208.99988109 C228.00396933 206.64324594 228.00470251 204.28682847 228.00537109 201.93014908 C228.01299452 200.23797617 228.02142233 198.54580673 228.03059387 196.85364151 C228.05252775 192.26056501 228.06133628 187.66755509 228.06642032 183.07443213 C228.0700652 180.20338576 228.07630596 177.3323568 228.08342171 174.46131706 C228.10791236 164.44099157 228.12096727 154.42071781 228.12451172 144.40036392 C228.12814667 135.06685588 228.15804012 125.73367674 228.1999163 116.40026921 C228.23463045 108.38141464 228.25006035 100.36266901 228.25075775 92.34373981 C228.25155018 87.55688594 228.26027327 82.77036717 228.28875542 77.98359108 C228.31495535 73.47971258 228.31713065 68.97644656 228.30109978 64.47252655 C228.29928681 62.8229978 228.30596232 61.17343367 228.32191849 59.52398109 C228.59061376 47.44582169 228.59061376 47.44582169 222.69897461 37.25168228 C218.5013768 32.99013723 214.43292603 30.46498405 208.40148354 29.99441338 C207.13942274 29.99106169 205.87736195 29.98771 204.57705688 29.98425674 C203.5183753 29.97746008 203.5183753 29.97746008 202.43830621 29.9705261 C200.07932786 29.95789151 197.72058066 29.95950183 195.36157227 29.96115494 C193.66777755 29.95516912 191.97398555 29.94836345 190.28019714 29.94079971 C185.68304779 29.92313856 181.0859729 29.9184443 176.4887929 29.91716814 C173.61574435 29.91574612 170.74271471 29.91147557 167.86967087 29.90617371 C157.84400989 29.8876735 147.81840209 29.87950314 137.79272461 29.88107681 C128.45129081 29.88227842 119.11008799 29.86117233 109.76871264 29.82958949 C101.74477859 29.80342879 93.72092 29.79270942 85.69694364 29.79398763 C80.90626426 29.7944973 76.1157902 29.78881141 71.32515335 29.76763153 C66.81887696 29.74825246 62.31300183 29.74812235 57.8067112 29.76266479 C56.15515748 29.76475436 54.50357867 29.76004313 52.85206795 29.74794388 C50.59252915 29.7324654 48.33436954 29.74181497 46.07485962 29.75720596 C44.81204477 29.75611643 43.54922993 29.75502689 42.24814796 29.75390434 C36.18658165 30.60404991 31.75506669 33.61317586 27.82397461 38.31418228 Z " fill="#5F9FF4" transform="translate(130.301025390625,123.74831771850586)"/>
<path d="M0 0 C1.71745242 -0.00570945 3.43490105 -0.01267593 5.15234375 -0.02079773 C9.79708446 -0.03868168 14.44163576 -0.03756963 19.08640051 -0.03185534 C22.97288236 -0.02875629 26.8593282 -0.03486397 30.74580491 -0.04089409 C39.91943449 -0.05492235 49.09297092 -0.05339245 58.26660156 -0.04199219 C67.71029665 -0.03051517 77.15370761 -0.04458353 86.59736526 -0.07138866 C94.72421093 -0.09358699 102.85096768 -0.10017366 110.9778415 -0.09431225 C115.82334902 -0.09095105 120.66867449 -0.09330183 125.51415634 -0.11056328 C130.0730439 -0.12609613 134.63151252 -0.12200697 139.19038391 -0.10325813 C140.85637968 -0.0995896 142.52240693 -0.10262968 144.18837357 -0.11314392 C156.54089375 -0.18510664 167.11206071 1.06340582 176.92626953 9.29467773 C188.1259026 20.70562464 189.44859303 33.61582349 189.40063477 48.84667969 C189.40634639 50.49207012 189.41331369 52.1374566 189.4214325 53.78283691 C189.4392939 58.22724846 189.43820852 62.67146179 189.43249011 67.11589837 C189.42938734 70.83821077 189.43550294 74.5604857 189.44152886 78.28279275 C189.45555014 87.07153581 189.45403346 95.86018163 189.44262695 104.64892578 C189.43115461 113.68759626 189.44521201 122.72596971 189.47202343 131.76460105 C189.49424504 139.55010056 189.5008031 147.33550729 189.49494702 155.12103623 C189.49159087 159.75979776 189.49390232 164.39836907 189.51119804 169.03710365 C189.52676799 173.40313444 189.5226014 177.76872858 189.5038929 182.13474274 C189.50023429 183.72733418 189.50323481 185.31995871 189.51377869 186.91251945 C189.59851821 200.78209633 187.77614346 213.80487092 177.99658203 224.40405273 C169.29250458 231.91540179 161.13920066 234.93451921 149.74658203 234.84155273 C148.86228516 234.8615332 147.97798828 234.88151367 147.06689453 234.90209961 C140.68773063 234.89728151 140.68773063 234.89728151 137.41845703 232.56420898 C135.46836568 229.6015702 135.41684719 227.8824618 135.99658203 224.40405273 C138.22691212 221.43027928 139.37978736 220.49727107 143.09814453 219.93530273 C144.26087891 219.92499023 145.42361328 219.91467773 146.62158203 219.90405273 C153.85944267 219.55795961 160.26412758 218.67772633 165.87158203 213.75952148 C170.77205762 208.35250635 172.243748 203.60555345 172.27073669 196.28886414 C172.27597337 195.58378198 172.28121005 194.87869982 172.28660542 194.15225154 C172.30157675 191.7956164 172.30230993 189.43919892 172.30297852 187.08251953 C172.31060194 185.39034663 172.31902975 183.69817718 172.32820129 182.00601196 C172.35013518 177.41293547 172.35894371 172.81992554 172.36402774 168.22680259 C172.36767263 165.35575622 172.37391338 162.48472725 172.38102913 159.61368752 C172.40551979 149.59336202 172.41857469 139.57308827 172.42211914 129.55273438 C172.42575409 120.21922633 172.45564754 110.88604719 172.49752373 101.55263966 C172.53223787 93.53378509 172.54766778 85.51503946 172.54836518 77.49611026 C172.54915761 72.70925639 172.55788069 67.92273762 172.58636284 63.13596153 C172.61256277 58.63208303 172.61473807 54.12881701 172.5987072 49.624897 C172.59689423 47.97536825 172.60356974 46.32580412 172.61952591 44.67635155 C172.88590492 32.60191397 172.88590492 32.60191397 166.99658203 22.40405273 C161.70403423 17.37613232 157.08585368 16.15577814 149.87466431 16.1366272 C148.81598272 16.12983053 148.81598272 16.12983053 147.73591363 16.12289655 C145.37693528 16.11026196 143.01818808 16.11187229 140.65917969 16.11352539 C138.96538497 16.10753957 137.27159297 16.1007339 135.57780457 16.09317017 C130.98065521 16.07550901 126.38358032 16.07081475 121.78640032 16.06953859 C118.91335177 16.06811657 116.04032214 16.06384603 113.16727829 16.05854416 C103.14161732 16.04004395 93.11600951 16.03187359 83.09033203 16.03344727 C73.74889823 16.03464887 64.40769541 16.01354278 55.06632006 15.98195994 C47.04238602 15.95579924 39.01852743 15.94507987 30.99455106 15.94635808 C26.20387169 15.94686775 21.41339762 15.94118186 16.62276077 15.92000198 C12.11648438 15.90062292 7.61060925 15.9004928 3.10431862 15.91503525 C1.4527649 15.91712482 -0.19881391 15.91241358 -1.85032463 15.90031433 C-4.10986343 15.88483585 -6.36802304 15.89418543 -8.62753296 15.90957642 C-9.89034781 15.90848688 -11.15316265 15.90739735 -12.45424461 15.9062748 C-18.18463167 16.70997187 -22.70252441 19.427535 -26.37841797 23.96655273 C-26.86052734 24.5453418 -27.34263672 25.12413086 -27.83935547 25.72045898 C-30.39077679 29.4106019 -30.13589848 32.93840144 -30.15058899 37.2787323 C-30.15426568 37.98210561 -30.15794237 38.68547891 -30.16173047 39.41016656 C-30.17276543 41.77296345 -30.17661084 44.13571636 -30.18041992 46.49853516 C-30.18668476 48.19041076 -30.19333158 49.88228499 -30.20033264 51.57415771 C-30.2213746 57.13593589 -30.23173577 62.69771434 -30.24169922 68.25952148 C-30.24574685 70.17456896 -30.24986378 72.08961629 -30.2540493 74.00466347 C-30.27310198 83.00255607 -30.28733234 92.00044047 -30.29566127 100.99834937 C-30.30543165 111.38191859 -30.33174566 121.76527453 -30.37216216 132.1487686 C-30.40233414 140.17606575 -30.41713121 148.20330179 -30.42044228 156.23065454 C-30.42279172 161.02420373 -30.43173822 165.81752509 -30.45690346 170.61101341 C-30.48020782 175.12299379 -30.48440793 179.63459671 -30.47414207 184.1466217 C-30.47364716 185.79937306 -30.47995446 187.45214314 -30.49369812 189.10483742 C-30.6939561 200.84550032 -30.6939561 200.84550032 -26.00341797 211.40405273 C-19.38293272 218.02453799 -13.43723919 219.73886857 -4.37117004 219.78523254 C-2.69313545 219.77129707 -2.69313545 219.77129707 -0.98120117 219.75708008 C0.21308502 219.75924026 1.40737122 219.76140045 2.6378479 219.7636261 C5.89597768 219.76750917 9.15379639 219.75859188 12.4118917 219.74550581 C15.82799828 219.73624198 19.24401748 219.74783616 22.66011047 219.75845337 C33.54749774 219.78850936 44.43483196 219.78708076 55.3222397 219.76820052 C62.48623513 219.75587136 69.64990867 219.75770848 76.81386691 219.78658831 C80.21229249 219.79932672 83.61011813 219.80212603 87.00852013 219.78190231 C90.79360528 219.76293654 94.57748561 219.77420336 98.36254883 219.79223633 C99.48731125 219.77889755 100.61207367 219.76555878 101.7709198 219.7518158 C109.33301274 219.83219833 109.33301274 219.83219833 112.71980286 222.75088501 C113.99658203 225.40405273 113.99658203 225.40405273 114.05908203 228.46655273 C112.6548655 232.34879844 111.58255025 233.30417158 107.99658203 235.40405273 C104.14046484 236.00382159 100.31606783 235.95020507 96.42016602 235.92163086 C95.24877579 235.92864014 94.07738556 235.93564941 92.87049866 235.94287109 C88.99431706 235.96048765 85.11886497 235.94880909 81.24267578 235.93530273 C78.54329337 235.93619394 75.84392393 235.94187489 73.14454651 235.94689941 C67.48113122 235.95417469 61.81792459 235.9445988 56.15454102 235.92553711 C49.63400465 235.90384191 43.11397007 235.91076606 36.5934462 235.93284273 C30.97702518 235.95108864 25.36075396 235.95350835 19.74431282 235.94308805 C16.39821297 235.93689362 13.05253411 235.93750313 9.70641899 235.94923401 C5.96352926 235.95947019 2.22158006 235.94379478 -1.52124023 235.92163086 C-2.6110318 235.92972778 -3.70082336 235.93782471 -4.82363892 235.94616699 C-17.21417943 235.81124037 -27.91628733 231.93307614 -37.00341797 223.40405273 C-46.58606493 211.8418096 -47.45307111 199.29390987 -47.4074707 184.83203125 C-47.41318375 183.18487081 -47.42015161 181.53771432 -47.42826843 179.89056396 C-47.44611112 175.4462787 -47.44504839 171.00219183 -47.43932605 166.55788159 C-47.43622146 162.83542477 -47.44234066 159.11300537 -47.44836479 155.39055389 C-47.46237904 146.60327339 -47.46087445 137.81609017 -47.44946289 129.02880859 C-47.43798287 119.98952942 -47.45206248 110.950547 -47.47885936 101.91130692 C-47.50107043 94.12495362 -47.50764165 86.33869311 -47.50178295 78.55231041 C-47.49842531 73.91303674 -47.50074874 69.27395326 -47.51803398 64.6347065 C-47.53358774 60.27030692 -47.52945495 55.9063445 -47.51072884 51.54196167 C-47.50706625 49.94894934 -47.51008268 48.35590401 -47.52061462 46.76292229 C-47.60425145 33.05647461 -45.53801574 20.92122356 -36.00341797 10.40405273 C-24.97354729 0.72552382 -13.96497478 -0.04198055 0 0 Z " fill="#06080A" transform="translate(185.00341796875,138.595947265625)"/>
<path d="M0 0 C3.45826342 -0.05789006 6.91640293 -0.09355821 10.375 -0.125 C11.35984375 -0.14175781 12.3446875 -0.15851563 13.359375 -0.17578125 C14.30039062 -0.18222656 15.24140625 -0.18867187 16.2109375 -0.1953125 C17.51490479 -0.21102295 17.51490479 -0.21102295 18.84521484 -0.22705078 C21 0 21 0 23 2 C23.25299966 3.9120726 23.25299966 3.9120726 23.25726891 6.29823208 C23.2637178 7.20604693 23.27016669 8.11386178 23.276811 9.04918617 C23.2721652 10.55484794 23.2721652 10.55484794 23.26742554 12.09092712 C23.27195665 13.15224289 23.27648776 14.21355866 23.28115618 15.30703551 C23.29388361 18.88694405 23.29217446 22.4667021 23.29052734 26.04663086 C23.29650735 28.6036041 23.30331166 31.16057553 23.31088257 33.71754456 C23.32675962 39.95607525 23.33299324 46.19455019 23.33410732 52.4330992 C23.33505656 57.50215852 23.33916061 62.57120533 23.34550858 67.6402607 C23.36312745 82.00101114 23.37234638 96.36173165 23.37084763 110.72249299 C23.37076772 111.49719286 23.3706878 112.27189273 23.37060547 113.07006836 C23.37052371 113.84571027 23.37044195 114.62135217 23.37035771 115.42049838 C23.36954451 127.99578993 23.38868901 140.57096179 23.4168822 153.14621871 C23.44557927 166.04765665 23.45942427 178.94903616 23.45769465 191.85050684 C23.45702967 199.09805609 23.46256904 206.34547984 23.48405075 213.59300041 C23.50411573 220.40639032 23.50362151 227.21947051 23.48901749 234.03288841 C23.48691676 236.53916052 23.49170473 239.04544887 23.5037384 241.55169296 C23.51905803 244.96214296 23.50997049 248.37166088 23.49447632 251.78208923 C23.50476344 252.78363303 23.51505057 253.78517682 23.52564943 254.81707042 C23.51645184 255.72749302 23.50725425 256.63791562 23.49777794 257.57592678 C23.49843004 258.75731925 23.49843004 258.75731925 23.49909532 259.96257824 C23 262 23 262 21.24952877 263.75343311 C18.74603078 265.14073597 17.35004564 265.3733122 14.50976181 265.36914349 C13.61004835 265.37511663 12.71033489 265.38108978 11.78335738 265.38724393 C10.79892598 265.3785054 9.81449459 265.36976688 8.80023193 265.36076355 C7.22702128 265.36460846 7.22702128 265.36460846 5.62202859 265.36853105 C2.09649705 265.37348494 -1.42860926 265.35694914 -4.95410156 265.34057617 C-7.47682688 265.33973025 -9.99955294 265.34020436 -12.52227783 265.34190369 C-17.95926605 265.34258754 -23.39611656 265.33406099 -28.83307648 265.31719017 C-36.69398567 265.29281374 -44.55484263 265.2849963 -52.41578552 265.2812262 C-65.16947255 265.27465958 -77.92310203 265.25469272 -90.67675781 265.22631836 C-103.0660778 265.19878323 -115.45538216 265.17754698 -127.84472656 265.16479492 C-128.60834654 265.16400675 -129.37196651 265.16321858 -130.15872648 265.16240653 C-133.98956609 265.15849143 -137.8204058 265.1547003 -141.65124559 265.15097082 C-173.43420594 265.11986835 -205.21709403 265.0668039 -237 265 C-237 264.67 -237 264.34 -237 264 C-158.79 264 -80.58 264 0 264 C0 254.43 0 244.86 0 235 C1.65 232.36 3.3 229.72 5 227 C8.80353263 218.23458079 8.43356845 208.78869827 8.40405273 199.42797852 C8.40976579 197.78081807 8.41673364 196.13366158 8.42485046 194.48651123 C8.44269315 190.04222596 8.44163042 185.59813909 8.43590808 181.15382886 C8.43280349 177.43137204 8.43892269 173.70895263 8.44494683 169.98650116 C8.45896107 161.19922065 8.45745648 152.41203744 8.44604492 143.62475586 C8.4345649 134.58547669 8.44864451 125.54649427 8.4754414 116.50725418 C8.49765246 108.72090089 8.50422368 100.93464037 8.49836498 93.14825767 C8.49500734 88.50898401 8.49733077 83.86990052 8.51461601 79.23065376 C8.53016977 74.86625419 8.52603699 70.50229177 8.50731087 66.13790894 C8.50364828 64.54489661 8.50666471 62.95185127 8.51719666 61.35886955 C8.58099658 50.90330462 8.12542625 40.46314842 1.765625 31.65234375 C-1.51159619 26.36614108 -0.40667443 19.53119326 -0.25 13.5625 C-0.23195313 12.25861328 -0.21390625 10.95472656 -0.1953125 9.61132812 C-0.14835957 6.40679091 -0.08269464 3.2037811 0 0 Z " fill="#528CF2" transform="translate(365,124)"/>
<path d="M0 0 C17.10618135 -0.80185225 17.10618135 -0.80185225 23 4 C27.23690491 8.10360903 30.76731556 12.13143112 31.25726891 18.17164993 C31.26062059 19.4333337 31.26397228 20.69501747 31.26742554 21.99493408 C31.27195665 22.69916181 31.27648776 23.40338954 31.28115618 24.12895751 C31.29381627 26.48870765 31.29217879 28.84822747 31.29052734 31.20800781 C31.2965117 32.90003252 31.30331703 34.5920545 31.31088257 36.28407288 C31.32856174 40.88134856 31.33323882 45.47854981 31.33451414 50.07585621 C31.3359355 52.94907468 31.34020485 55.82227421 31.34550858 58.69548798 C31.36401692 68.72229718 31.3721784 78.74905319 31.37060547 88.77587891 C31.36940464 98.11670403 31.39049338 107.45729786 31.4220928 116.79806447 C31.44826553 124.82114473 31.45897231 132.84414952 31.45769465 140.86727214 C31.4571852 145.6574394 31.4628585 150.44740126 31.48405075 155.23752594 C31.50344929 159.74543361 31.5035466 164.25294034 31.48901749 168.76086235 C31.48693012 170.41199518 31.49162603 172.06315321 31.5037384 173.71424294 C31.56772663 183.04385808 31.59833566 190.42725512 25.359375 197.98828125 C16.94848921 204.90888873 9.76967122 205.44326391 -1 205 C-0.27683594 203.91332031 -0.27683594 203.91332031 0.4609375 202.8046875 C1.09257812 201.83789062 1.72421875 200.87109375 2.375 199.875 C3.31472656 198.44800781 3.31472656 198.44800781 4.2734375 196.9921875 C7.38517498 191.59944789 8.25080773 187.01287545 8.26742554 180.815979 C8.27195665 180.11553711 8.27648776 179.41509521 8.28115618 178.6934278 C8.29376444 176.358376 8.29218215 174.02355852 8.29052734 171.68847656 C8.2965149 170.00925397 8.30332097 168.33003412 8.31088257 166.65081787 C8.32852831 162.09691319 8.3332374 157.54308371 8.33451414 152.98914814 C8.3359373 150.14102971 8.34021006 147.29293029 8.34550858 144.44481659 C8.36400532 134.4999826 8.37217978 124.55520218 8.37060547 114.61035156 C8.36940471 105.35472919 8.39049506 96.09934026 8.4220928 86.84377694 C8.44828733 78.88601726 8.45897141 70.92833366 8.45769465 62.97053123 C8.45718588 58.22280654 8.46282184 53.4752893 8.48405075 48.72760773 C8.50348632 44.25906359 8.50352144 39.79092362 8.48901749 35.32236481 C8.48693475 33.68819586 8.4915982 32.05400127 8.5037384 30.4198761 C8.58509428 18.70424515 7.09209292 9.62498325 0 0 Z " fill="#DCE9FA" transform="translate(327,154)"/>
<path d="M0 0 C1.27617188 0.02320313 2.55234375 0.04640625 3.8671875 0.0703125 C5.78917969 0.09738281 5.78917969 0.09738281 7.75 0.125 C9.23113281 0.15980469 9.23113281 0.15980469 10.7421875 0.1953125 C10.76200684 0.94216309 10.78182617 1.68901367 10.80224609 2.45849609 C10.89726961 5.82946855 11.00704009 9.19980179 11.1171875 12.5703125 C11.148125 13.7459375 11.1790625 14.9215625 11.2109375 16.1328125 C11.24960938 17.25429687 11.28828125 18.37578125 11.328125 19.53125 C11.37525635 21.08658447 11.37525635 21.08658447 11.42333984 22.67333984 C11.50173222 25.36341085 11.50173222 25.36341085 13.7421875 27.1953125 C15.73040063 27.59295513 17.73163089 27.93306599 19.7421875 28.1953125 C19.0821875 28.5253125 18.4221875 28.8553125 17.7421875 29.1953125 C17.7421875 36.1253125 17.7421875 43.0553125 17.7421875 50.1953125 C15.7621875 51.1853125 13.7821875 52.1753125 11.7421875 53.1953125 C11.4121875 101.3753125 11.0821875 149.5553125 10.7421875 199.1953125 C6.4521875 199.1953125 2.1621875 199.1953125 -2.2578125 199.1953125 C-5.51497711 195.93814789 -5.60804727 195.11509614 -5.65438062 190.7398085 C-5.64700633 189.99506729 -5.63963205 189.25032609 -5.6320343 188.48301697 C-5.63600871 187.68965567 -5.63998311 186.89629437 -5.64407796 186.07889181 C-5.65372782 183.41170767 -5.64186683 180.7450504 -5.63012695 178.07788086 C-5.63255401 176.16937563 -5.6362725 174.26087166 -5.64118958 172.35237122 C-5.6506133 167.16242986 -5.64116102 161.97267659 -5.62785745 156.78274989 C-5.61656312 151.35976928 -5.62064885 145.9367982 -5.62260437 140.5138092 C-5.62348791 131.40687985 -5.61239378 122.30002485 -5.59399414 113.19311523 C-5.57281927 102.65199487 -5.56931763 92.11098342 -5.5755561 81.56984609 C-5.58124296 71.44373629 -5.57561252 61.31766499 -5.56438255 51.19156075 C-5.55972821 46.87539524 -5.55886631 42.55925321 -5.5609684 38.24308586 C-5.56284663 33.16485419 -5.55478341 28.086734 -5.538908 23.00852776 C-5.53465142 21.14041607 -5.53382376 19.2722931 -5.53659821 17.40417862 C-5.5398009 14.86286993 -5.53078695 12.32189839 -5.51850891 9.78062439 C-5.52228823 9.03365246 -5.52606756 8.28668054 -5.52996141 7.51707309 C-5.46811095 0.3278244 -5.46811095 0.3278244 0 0 Z " fill="#6E6771" transform="translate(98.2578125,156.8046875)"/>
<path d="M0 0 C0.74405909 0.00669217 1.48811817 0.01338433 2.2547245 0.02027929 C3.04738024 0.01559932 3.84003597 0.01091934 4.65671158 0.00609756 C7.32154979 -0.00590008 9.98587826 0.00362324 12.6507206 0.01304662 C14.55760436 0.00898303 16.46448576 0.00364236 18.37136269 -0.00288355 C23.55722995 -0.01658827 28.74291865 -0.01124549 33.92878914 -0.0017463 C39.34863718 0.00583397 44.76846963 -0.00119076 50.18831825 -0.00590479 C59.29104808 -0.01136711 68.39370496 -0.00415823 77.49642372 0.01011693 C88.02960049 0.02644434 98.56260306 0.02115617 109.0957756 0.00463772 C118.12936904 -0.00896357 127.16290995 -0.01090346 136.19651031 -0.00304627 C141.59625416 0.00163771 146.99591606 0.0022352 152.39565468 -0.00765574 C157.47146471 -0.0163034 162.54704953 -0.01034384 167.62283516 0.00702703 C169.48891513 0.01100366 171.35501396 0.00983782 173.2210865 0.00323904 C175.76217996 -0.00492024 178.30254504 0.00527652 180.84359169 0.02027929 C181.58765078 0.01358712 182.33170986 0.00689496 183.09831619 0 C187.47090869 0.05031293 188.2939192 0.14599132 191.5491581 3.40123022 C191.5491581 7.69123022 191.5491581 11.98123022 191.5491581 16.40123022 C125.5491581 16.40123022 59.5491581 16.40123022 -8.4508419 16.40123022 C-8.4508419 12.11123022 -8.4508419 7.82123022 -8.4508419 3.40123022 C-5.195603 0.14599132 -4.3725925 0.05031293 0 0 Z " fill="#746D77" transform="translate(164.45084190368652,92.5987697839737)"/>
<path d="M0 0 C65.34 0 130.68 0 198 0 C198 4.62 198 9.24 198 14 C195.51390326 16.48609674 194.06610533 16.24141018 190.67357731 16.26748681 C189.92592326 16.26302537 189.17826921 16.25856392 188.40795898 16.25396729 C187.21919867 16.25864726 187.21919867 16.25864726 186.006423 16.26342177 C183.33623881 16.27143415 180.66627985 16.26506561 177.99609375 16.25878906 C176.08773668 16.26149749 174.17938065 16.26505758 172.27102661 16.26940918 C167.07693562 16.27855311 161.88292377 16.27498069 156.68883133 16.26865101 C151.26317373 16.26360136 145.83752309 16.26827957 140.41186523 16.27142334 C131.29897846 16.27506601 122.18612405 16.270256 113.07324219 16.26074219 C102.52476246 16.24985707 91.97636004 16.25338243 81.42788219 16.264395 C72.38499125 16.2734593 63.34212364 16.27475736 54.29922962 16.26951766 C48.89225306 16.26639324 43.48531288 16.26600153 38.07833862 16.27259064 C32.99602499 16.27835104 27.91381141 16.27439124 22.83150864 16.26280212 C20.96178224 16.26014852 19.09204748 16.26093248 17.22232437 16.26532745 C14.67878135 16.27075687 12.1355631 16.26398075 9.59204102 16.25396729 C8.47055995 16.26065945 8.47055995 16.26065945 7.32642269 16.26748681 C2.22830014 16.22830014 2.22830014 16.22830014 0 14 C0 9.38 0 4.76 0 0 Z " fill="#746D77" transform="translate(157,403)"/>
<path d="M0 0 C4.29 0 8.58 0 13 0 C14.72861089 1.72861089 14.12495862 3.9497388 14.13374341 6.25434971 C14.13151268 7.01338061 14.12928196 7.77241152 14.12698364 8.55444336 C14.12854363 9.35496848 14.13010362 10.1554936 14.13171089 10.98027706 C14.13572418 13.68348426 14.13252998 16.38663606 14.12939453 19.08984375 C14.13074843 21.019379 14.13252829 22.94891399 14.13470459 24.87844849 C14.13928032 30.13449354 14.13748879 35.39051907 14.1343255 40.64656448 C14.13180262 46.13408716 14.13413924 51.62160812 14.13571167 57.10913086 C14.13753358 66.32633771 14.13512651 75.54353655 14.13037109 84.76074219 C14.12492843 95.43360122 14.12669108 106.10644116 14.1321975 116.77929974 C14.13672803 125.92490904 14.13737947 135.07051257 14.13475883 144.21612263 C14.13319572 149.68622971 14.1330032 155.15632781 14.13629532 160.62643433 C14.13917316 165.76779962 14.13719994 170.90914017 14.13140106 176.05050278 C14.130073 177.94322544 14.13046836 179.83595017 14.13266373 181.72867203 C14.13537342 184.30099551 14.13199634 186.87323837 14.12698364 189.44555664 C14.12921436 190.20458755 14.13144509 190.96361845 14.13374341 191.74565029 C14.11414985 196.88585015 14.11414985 196.88585015 13 198 C8.71 198 4.42 198 0 198 C0 132.66 0 67.32 0 0 Z " fill="#655D65" transform="translate(404,157)"/>
<path d="M0 0 C5.43004577 2.05967253 7.4665638 5.64047286 10.625 10.375 C11.50091171 11.66302597 12.37724125 12.95076787 13.25390625 14.23828125 C20.17380285 24.47260569 20.17380285 24.47260569 21.625 27.375 C21.6343457 26.69920898 21.64369141 26.02341797 21.65332031 25.32714844 C21.70707301 22.2590289 21.79070992 19.19242613 21.875 16.125 C21.88917969 15.06152344 21.90335938 13.99804688 21.91796875 12.90234375 C21.95019531 11.87753906 21.98242188 10.85273438 22.015625 9.796875 C22.03657227 8.85424805 22.05751953 7.91162109 22.07910156 6.94042969 C22.78201238 3.63712606 23.9651687 2.40590567 26.625 0.375 C30.62662867 0.30354235 32.7572166 0.62268817 35.80834961 3.26782227 C38.47840487 7.83465378 38.21707771 11.9490121 38.19140625 17.15234375 C38.20070412 18.71850182 38.20070412 18.71850182 38.21018982 20.31629944 C38.21728312 22.5209968 38.2141226 24.72574777 38.20141602 26.93041992 C38.18756082 30.29771891 38.2216182 33.66223291 38.25976562 37.02929688 C38.26071696 39.17447984 38.25885722 41.31966628 38.25390625 43.46484375 C38.26716446 44.46813217 38.28042267 45.47142059 38.29408264 46.50511169 C38.23389778 51.04020697 38.14929954 54.35939166 35.26538086 58.00219727 C32.625 60.375 32.625 60.375 29.75 61.25 C22.119013 59.11332364 17.29957651 49.21079668 13.1875 42.875 C12.64673828 42.05257812 12.10597656 41.23015625 11.54882812 40.3828125 C10.23544436 38.38367968 8.92764304 36.38114092 7.625 34.375 C7.61883667 35.34324707 7.61883667 35.34324707 7.61254883 36.33105469 C7.57959937 39.26329328 7.50895635 42.19345757 7.4375 45.125 C7.43169922 46.14078125 7.42589844 47.1565625 7.41992188 48.203125 C7.19691502 55.73580086 7.19691502 55.73580086 4.234375 59.046875 C1.29622973 60.54233816 -0.14037234 61.03851337 -3.375 60.375 C-5.61932982 58.50472515 -7.06943202 56.98613596 -8.375 54.375 C-8.4900767 52.82936002 -8.54445006 51.27898901 -8.56787109 49.72924805 C-8.58393402 48.76452072 -8.59999695 47.7997934 -8.61654663 46.80583191 C-8.66096513 42.39180163 -8.70206 37.97792216 -8.72509766 33.5637207 C-8.74166174 31.23484304 -8.76895742 28.90601631 -8.80712891 26.57739258 C-8.86186002 23.22189932 -8.88376647 19.86759809 -8.8984375 16.51171875 C-8.92110687 15.4719841 -8.94377625 14.43224945 -8.96713257 13.36100769 C-8.94605186 6.15531745 -8.94605186 6.15531745 -6.05322266 2.20239258 C-3.375 0.375 -3.375 0.375 0 0 Z " fill="#060607" transform="translate(192.375,225.625)"/>
<path d="M0 0 C1.38928711 -0.02042358 1.38928711 -0.02042358 2.80664062 -0.04125977 C3.77408203 -0.02635498 4.74152344 -0.0114502 5.73828125 0.00390625 C6.72763672 0.01558838 7.71699219 0.02727051 8.73632812 0.03930664 C17.12590935 0.2940201 22.81800176 1.48911662 28.96484375 7.41015625 C33.43846371 12.88472314 33.88754044 18.33454272 33.57421875 25.25 C32.623487 31.27366612 29.94838665 34.66880085 25.73828125 38.87890625 C18.9107474 43.16596239 13.05608516 44.00932265 5.05078125 43.56640625 C5.07398438 44.3140625 5.0971875 45.06171875 5.12109375 45.83203125 C5.14816406 47.30929687 5.14816406 47.30929687 5.17578125 48.81640625 C5.19898438 49.7909375 5.2221875 50.76546875 5.24609375 51.76953125 C5.04507588 54.64810716 4.64239754 56.18425207 3.05078125 58.56640625 C0.05078125 60.56640625 0.05078125 60.56640625 -3.44921875 60.37890625 C-7.88817591 59.34843405 -7.88817591 59.34843405 -9.94921875 56.56640625 C-10.34362793 54.25843811 -10.34362793 54.25843811 -10.36914062 51.51586914 C-10.38505249 50.4879274 -10.40096436 49.45998566 -10.4173584 48.40089417 C-10.41755981 47.29148972 -10.41776123 46.18208527 -10.41796875 45.0390625 C-10.42558228 43.8985997 -10.4331958 42.7581369 -10.44104004 41.58311462 C-10.45185189 39.16977123 -10.45468977 36.756381 -10.45019531 34.34301758 C-10.44922338 30.64650575 -10.49082831 26.95207113 -10.53515625 23.25585938 C-10.54036328 20.91276476 -10.54305144 18.5696629 -10.54296875 16.2265625 C-10.55936401 15.11918228 -10.57575928 14.01180206 -10.59265137 12.87086487 C-10.52397636 5.26128033 -10.52397636 5.26128033 -7.72143555 1.87304688 C-4.8969103 0.54175149 -3.10190527 0.0405576 0 0 Z " fill="#040404" transform="translate(293.94921875,225.43359375)"/>
<path d="M0 0 C4.1487747 1.43321308 5.17820995 2.45503822 7.4375 6.1875 C7.96822227 9.20451206 7.90437302 12.15169856 7.828125 15.20703125 C7.82246521 16.06560226 7.81680542 16.92417328 7.81097412 17.8087616 C7.78865787 20.5397516 7.73847167 23.26940939 7.6875 26 C7.6674288 27.85610079 7.64917911 29.71222223 7.6328125 31.56835938 C7.58880881 36.10858296 7.51981521 40.64781593 7.4375 45.1875 C8.12312012 45.16864746 8.80874023 45.14979492 9.51513672 45.13037109 C10.86502686 45.10837646 10.86502686 45.10837646 12.2421875 45.0859375 C13.13405762 45.06708496 14.02592773 45.04823242 14.94482422 45.02880859 C17.4375 45.1875 17.4375 45.1875 20.5625 46.8125 C22.4375 49.1875 22.4375 49.1875 23.0625 52.125 C22.19931148 56.35462373 20.88600195 57.58599853 17.4375 60.1875 C13.92296933 60.94797365 10.52174176 60.93169708 6.9375 60.875 C6.00035156 60.90271484 5.06320313 60.93042969 4.09765625 60.95898438 C3.18886719 60.95576172 2.28007812 60.95253906 1.34375 60.94921875 C0.52197266 60.94881592 -0.29980469 60.94841309 -1.14648438 60.94799805 C-4.07522316 60.02610826 -5.72959281 58.61008185 -7.57745361 56.16755676 C-9.59292777 52.11622143 -9.27144846 47.74803717 -9.2265625 43.3125 C-9.23373795 41.74846436 -9.23373795 41.74846436 -9.24105835 40.15283203 C-9.24445224 37.95408617 -9.23528578 35.75528949 -9.21435547 33.55664062 C-9.18758426 30.19807024 -9.2141224 26.84284188 -9.24609375 23.484375 C-9.24278956 21.34374265 -9.23638315 19.20311237 -9.2265625 17.0625 C-9.23668365 16.06234863 -9.24680481 15.06219727 -9.25723267 14.03173828 C-9.18172215 9.52253006 -9.06251205 6.17352445 -6.24365234 2.51953125 C-3.5625 0.1875 -3.5625 0.1875 0 0 Z " fill="#0B0B0C" transform="translate(249.5625,225.8125)"/>
<path d="M0 0 C25.24262587 -0.07001135 50.48523723 -0.12294951 75.72794056 -0.15543652 C87.44797316 -0.17092021 99.16794552 -0.1920384 110.88793945 -0.22631836 C121.1004071 -0.25617476 131.31283113 -0.27556406 141.52534121 -0.28226548 C146.93521598 -0.28618412 152.34496594 -0.29542459 157.7548008 -0.31719017 C162.84284617 -0.33749595 167.93071487 -0.3438458 173.01879692 -0.33932304 C174.88972558 -0.3401509 176.76065993 -0.3461516 178.63155365 -0.35761642 C181.1793375 -0.37246824 183.72644788 -0.36898063 186.27424622 -0.36076355 C187.02035166 -0.36950207 187.76645711 -0.3782406 188.53517181 -0.38724393 C192.91583025 -0.34886294 193.73898963 -0.26101037 197 3 C197 7.29 197 11.58 197 16 C131 16 65 16 -3 16 C-3 11.71 -3 7.42 -3 3 C-2.67 3 -2.34 3 -2 3 C-2 6.96 -2 10.92 -2 15 C56.08 15 114.16 15 174 15 C174 10.38 174 5.76 174 1 C116.58 1 59.16 1 0 1 C0 0.67 0 0.34 0 0 Z " fill="#4C464C" transform="translate(159,93)"/>
<path d="M0 0 C65.34 0 130.68 0 198 0 C198 4.62 198 9.24 198 14 C195.51068984 16.48931016 194.06064975 16.23826624 190.66425312 16.25816262 C189.91523483 16.25233693 189.16621654 16.24651125 188.39450073 16.24050903 C187.20362372 16.24307231 187.20362372 16.24307231 185.98868859 16.24568737 C183.31382064 16.248996 180.63920052 16.23795613 177.96435547 16.22705078 C176.05275478 16.22648696 174.14115366 16.22680265 172.22955322 16.22793579 C167.02732058 16.22851145 161.82517949 16.21672268 156.6229682 16.20278788 C151.19104312 16.190316 145.75911614 16.18911282 140.32717896 16.18673706 C130.03534514 16.18051184 119.74355363 16.16408698 109.45173848 16.14403808 C97.73728969 16.12171143 86.02283892 16.1106938 74.30837417 16.10064721 C50.20555929 16.07972163 26.10278201 16.04452547 2 16 C2 15.67 2 15.34 2 15 C59.42 15 116.84 15 176 15 C176 10.38 176 5.76 176 1 C117.92 1 59.84 1 0 1 C0 0.67 0 0.34 0 0 Z " fill="#4D474D" transform="translate(157,403)"/>
<path d="M0 0 C4.95 0 9.9 0 15 0 C15 4.95 15 9.9 15 15 C10.05 15 5.1 15 0 15 C0 10.05 0 5.1 0 0 Z " fill="#FCDD7B" transform="translate(328,482)"/>
<path d="M0 0 C4.95 0 9.9 0 15 0 C15 4.95 15 9.9 15 15 C10.05 15 5.1 15 0 15 C0 10.05 0 5.1 0 0 Z " fill="#FCDD7B" transform="translate(169,482)"/>
<path d="M0 0 C4.95 0 9.9 0 15 0 C15 4.95 15 9.9 15 15 C10.05 15 5.1 15 0 15 C0 10.05 0 5.1 0 0 Z " fill="#FBDD7B" transform="translate(482,328)"/>
<path d="M0 0 C4.95 0 9.9 0 15 0 C15 4.95 15 9.9 15 15 C10.05 15 5.1 15 0 15 C0 10.05 0 5.1 0 0 Z " fill="#FBDD7B" transform="translate(15,328)"/>
<path d="M0 0 C4.95 0 9.9 0 15 0 C15 4.95 15 9.9 15 15 C10.05 15 5.1 15 0 15 C0 10.05 0 5.1 0 0 Z " fill="#F7D979" transform="translate(482,249)"/>
<path d="M0 0 C4.95 0 9.9 0 15 0 C15 4.95 15 9.9 15 15 C10.05 15 5.1 15 0 15 C0 10.05 0 5.1 0 0 Z " fill="#F7D979" transform="translate(15,249)"/>
<path d="M0 0 C4.95 0 9.9 0 15 0 C15 4.95 15 9.9 15 15 C10.05 15 5.1 15 0 15 C0 10.05 0 5.1 0 0 Z " fill="#FBDD7B" transform="translate(482,169)"/>
<path d="M0 0 C4.95 0 9.9 0 15 0 C15 4.95 15 9.9 15 15 C10.05 15 5.1 15 0 15 C0 10.05 0 5.1 0 0 Z " fill="#FBDD7B" transform="translate(15,169)"/>
<path d="M0 0 C4.95 0 9.9 0 15 0 C15 4.95 15 9.9 15 15 C10.05 15 5.1 15 0 15 C0 10.05 0 5.1 0 0 Z " fill="#FCDD7B" transform="translate(328,15)"/>
<path d="M0 0 C4.95 0 9.9 0 15 0 C15 4.95 15 9.9 15 15 C10.05 15 5.1 15 0 15 C0 10.05 0 5.1 0 0 Z " fill="#FCDD7B" transform="translate(169,15)"/>
<path d="M0 0 C4.62 0 9.24 0 14 0 C14 4.95 14 9.9 14 15 C9.38 15 4.76 15 0 15 C0 10.05 0 5.1 0 0 Z " fill="#FFE07D" transform="translate(249,482)"/>
<path d="M0 0 C4.62 0 9.24 0 14 0 C14 4.95 14 9.9 14 15 C9.38 15 4.76 15 0 15 C0 10.05 0 5.1 0 0 Z " fill="#FFE07D" transform="translate(249,15)"/>
<path d="M0 0 C9.19925512 -0.48417132 9.19925512 -0.48417132 12.6875 1.625 C14 4 14 4 13.875 7.125 C13 10 13 10 11 12 C7.31975395 12.27629475 3.69505443 12.0859315 0 12 C0 8.04 0 4.08 0 0 Z " fill="#E4ECF7" transform="translate(299,241)"/>
<path d="M0 0 C0.66 0.33 1.32 0.66 2 1 C1.67 1.99 1.34 2.98 1 4 C-1.97 4 -4.94 4 -8 4 C-6.68 3.34 -5.36 2.68 -4 2 C-3.29875 1.608125 -2.5975 1.21625 -1.875 0.8125 C-1.25625 0.544375 -0.6375 0.27625 0 0 Z " fill="#DBE8F8" transform="translate(320,362)"/>
</svg>
