<?xml version="1.0" encoding="UTF-8"?>
<svg version="1.1" xmlns="http://www.w3.org/2000/svg" width="1200" height="1200">
<path d="M0 0 C396 0 792 0 1200 0 C1200 396 1200 792 1200 1200 C804 1200 408 1200 0 1200 C0 804 0 408 0 0 Z " fill="#FEFEFE" transform="translate(0,0)"/>
<path d="M0 0 C12.54 0 25.08 0 38 0 C38 12.21 38 24.42 38 37 C50.21 37 62.42 37 75 37 C75 49.54 75 62.08 75 75 C62.79 75 50.58 75 38 75 C38 99.75 38 124.5 38 150 C50.21 150 62.42 150 75 150 C75 162.21 75 174.42 75 187 C62.79 187 50.58 187 38 187 C38 211.75 38 236.5 38 262 C50.21 262 62.42 262 75 262 C75 274.54 75 287.08 75 300 C62.79 300 50.58 300 38 300 C38 324.75 38 349.5 38 375 C50.21 375 62.42 375 75 375 C75 387.21 75 399.42 75 412 C62.79 412 50.58 412 38 412 C38 436.75 38 461.5 38 487 C50.21 487 62.42 487 75 487 C75 499.54 75 512.08 75 525 C62.79 525 50.58 525 38 525 C38 549.75 38 574.5 38 600 C50.21 600 62.42 600 75 600 C75 612.21 75 624.42 75 637 C62.79 637 50.58 637 38 637 C38 661.75 38 686.5 38 712 C50.21 712 62.42 712 75 712 C75 724.54 75 737.08 75 750 C62.79 750 50.58 750 38 750 C38 774.75 38 799.5 38 825 C50.21 825 62.42 825 75 825 C75 837.21 75 849.42 75 862 C62.79 862 50.58 862 38 862 C38 886.75 38 911.5 38 937 C50.21 937 62.42 937 75 937 C75 949.54 75 962.08 75 975 C62.79 975 50.58 975 38 975 C38 1011.96 38 1048.92 38 1087 C75.29 1087 112.58 1087 151 1087 C151 1074.79 151 1062.58 151 1050 C163.21 1050 175.42 1050 188 1050 C188 1062.21 188 1074.42 188 1087 C212.75 1087 237.5 1087 263 1087 C263 1074.79 263 1062.58 263 1050 C275.21 1050 287.42 1050 300 1050 C300 1062.21 300 1074.42 300 1087 C325.08 1087 350.16 1087 376 1087 C376 1074.79 376 1062.58 376 1050 C388.21 1050 400.42 1050 413 1050 C413 1062.21 413 1074.42 413 1087 C437.75 1087 462.5 1087 488 1087 C488 1074.79 488 1062.58 488 1050 C500.54 1050 513.08 1050 526 1050 C526 1062.21 526 1074.42 526 1087 C550.75 1087 575.5 1087 601 1087 C601 1074.79 601 1062.58 601 1050 C613.21 1050 625.42 1050 638 1050 C638 1062.21 638 1074.42 638 1087 C662.75 1087 687.5 1087 713 1087 C713 1074.79 713 1062.58 713 1050 C725.21 1050 737.42 1050 750 1050 C750 1062.21 750 1074.42 750 1087 C775.08 1087 800.16 1087 826 1087 C826 1074.79 826 1062.58 826 1050 C838.21 1050 850.42 1050 863 1050 C863 1062.21 863 1074.42 863 1087 C887.75 1087 912.5 1087 938 1087 C938 1074.79 938 1062.58 938 1050 C950.54 1050 963.08 1050 976 1050 C976 1062.21 976 1074.42 976 1087 C1000.75 1087 1025.5 1087 1051 1087 C1051 1074.79 1051 1062.58 1051 1050 C1063.21 1050 1075.42 1050 1088 1050 C1088 1062.21 1088 1074.42 1088 1087 C1100.54 1087 1113.08 1087 1126 1087 C1126 1099.54 1126 1112.08 1126 1125 C1092.0774744 1125.02189258 1058.15494841 1125.04308035 1024.23242188 1125.06347656 C1023.23673071 1125.06407535 1023.23673071 1125.06407535 1022.22092458 1125.06468623 C951.10289307 1125.10743039 879.98486138 1125.14432413 808.86682129 1125.16937256 C807.28732208 1125.16993036 805.70782287 1125.17048817 804.12832367 1125.17104598 C770.97512979 1125.1827364 737.82193568 1125.1936033 704.66874123 1125.20351871 C688.01510275 1125.20850034 671.36146432 1125.21364023 654.70782594 1125.21892977 C652.19566787 1125.21972676 649.6835098 1125.22051923 647.17135174 1125.22131152 C608.48194721 1125.23355325 569.79254771 1125.24919188 531.10314941 1125.2746582 C530.27112298 1125.2752058 529.43909655 1125.27575339 528.5818572 1125.27631758 C515.16689837 1125.2851672 501.75193973 1125.29430159 488.33698112 1125.30347376 C449.70362126 1125.3298841 411.07026526 1125.35419312 372.43689728 1125.36455917 C371.64263921 1125.36477331 370.84838113 1125.36498745 370.03005463 1125.36520808 C352.59527347 1125.36987085 335.16049226 1125.3734504 317.72571067 1125.37600393 C310.71082227 1125.37705044 303.6959339 1125.37825292 296.68104553 1125.37950897 C295.5294133 1125.37970954 295.5294133 1125.37970954 294.35451577 1125.37991415 C269.60653024 1125.38430177 244.85857343 1125.40139227 220.11059949 1125.42512883 C195.18635428 1125.44897642 170.26213696 1125.46040014 145.33788004 1125.45449595 C141.89540795 1125.4536836 138.45293585 1125.45301408 135.01046371 1125.45243073 C134.33562747 1125.4523112 133.66079122 1125.45219168 132.96550539 1125.45206854 C121.61918932 1125.45045184 110.27294991 1125.46472777 98.92664842 1125.48319017 C89.06606219 1125.49814375 79.20554443 1125.49868718 69.34495355 1125.48732725 C63.71953668 1125.48126453 58.09431717 1125.48164352 52.46892112 1125.49953273 C47.35511261 1125.51567212 42.24165621 1125.51352572 37.12785335 1125.4965599 C35.28568224 1125.49369411 33.44348556 1125.49759013 31.60134719 1125.50894098 C29.1041141 1125.52335732 26.60813459 1125.51313954 24.11094046 1125.49679399 C23.39924033 1125.50682949 22.68754021 1125.516865 21.95427342 1125.52720462 C15.73150096 1125.44007334 10.68509843 1123.27041142 5.9765625 1119.2890625 C5.53054687 1118.73992187 5.08453125 1118.19078125 4.625 1117.625 C3.93277344 1116.80902344 3.93277344 1116.80902344 3.2265625 1115.9765625 C0.11610358 1110.96416692 -0.28880082 1105.91079958 -0.24839699 1100.15028059 C-0.25095317 1099.3731866 -0.25350934 1098.59609261 -0.25614297 1097.79545032 C-0.26228456 1095.18277292 -0.2541349 1092.57033586 -0.24609566 1089.9576664 C-0.2475747 1088.06105836 -0.24993163 1086.16445084 -0.25308865 1084.26784486 C-0.25924303 1079.02978934 -0.25286295 1073.79181111 -0.24453239 1068.55376134 C-0.23767845 1062.86521761 -0.24240282 1057.17668192 -0.24568737 1051.48813665 C-0.24984067 1041.5096858 -0.24653736 1031.53125876 -0.23841095 1021.55281067 C-0.22971449 1010.84472166 -0.2252653 1000.13664685 -0.22621536 989.42855453 C-0.22630144 988.41457463 -0.22630144 988.41457463 -0.22638925 987.38011028 C-0.226702 983.93333587 -0.2270859 980.48656148 -0.22749493 977.03978708 C-0.23031099 952.08269934 -0.22344456 927.12562176 -0.21146011 902.16853714 C-0.19961858 877.45004857 -0.19191061 852.73156435 -0.18975449 828.01307297 C-0.18968566 827.2456494 -0.18961684 826.47822584 -0.18954593 825.68754702 C-0.18891954 818.67840111 -0.18834416 811.6692552 -0.18782998 804.66010929 C-0.18655112 787.2355052 -0.18463244 769.81090121 -0.18227959 752.38629723 C-0.18217295 751.59278511 -0.18206632 750.79927299 -0.18195645 749.98171505 C-0.17671235 711.37403886 -0.1640968 672.76636555 -0.15087891 634.15869141 C-0.14629562 620.7595622 -0.14174491 607.36043298 -0.1373291 593.96130371 C-0.1370552 593.13029786 -0.1367813 592.29929201 -0.13649911 591.44310417 C-0.1238129 552.81775579 -0.1163604 514.19240692 -0.11025951 475.567057 C-0.10986338 473.05972717 -0.109465 470.55239734 -0.10906615 468.04506751 C-0.10642661 451.42897812 -0.10387731 434.81288872 -0.10138843 418.19679932 C-0.09643532 385.13439737 -0.09095195 352.07199553 -0.08510434 319.00959373 C-0.08482586 317.43504627 -0.08454775 315.86049881 -0.08427001 314.28595135 C-0.07176252 243.3958737 -0.05308621 172.50579815 -0.03173828 101.61572266 C-0.03153841 100.95188114 -0.03133854 100.28803962 -0.03113261 99.60408169 C-0.02113152 66.40272101 -0.01072948 33.20136046 0 0 Z " fill="#020202" transform="translate(37,38)"/>
<path d="M0 0 C2.42053142 1.00928071 3.82461224 2.35400143 5.64941406 4.22949219 C6.26300781 4.84695312 6.87660156 5.46441406 7.50878906 6.10058594 C8.89941406 7.79199219 8.89941406 7.79199219 8.89941406 9.79199219 C9.88941406 10.12199219 10.87941406 10.45199219 11.89941406 10.79199219 C11.89941406 11.45199219 11.89941406 12.11199219 11.89941406 12.79199219 C12.85847656 13.19417969 12.85847656 13.19417969 13.83691406 13.60449219 C15.89941406 14.79199219 15.89941406 14.79199219 16.89941406 17.79199219 C17.88941406 18.12199219 18.87941406 18.45199219 19.89941406 18.79199219 C19.89941406 19.45199219 19.89941406 20.11199219 19.89941406 20.79199219 C20.85847656 21.16324219 20.85847656 21.16324219 21.83691406 21.54199219 C23.89941406 22.79199219 23.89941406 22.79199219 24.75463867 24.61328125 C24.89941406 26.79199219 24.89941406 26.79199219 23.45239258 28.80664062 C22.73494873 29.49790039 22.01750488 30.18916016 21.27832031 30.90136719 C20.50810547 31.65546875 19.73789063 32.40957031 18.94433594 33.18652344 C18.12513672 33.96382812 17.3059375 34.74113281 16.46191406 35.54199219 C15.64658203 36.33476563 14.83125 37.12753906 13.99121094 37.94433594 C11.97131014 39.9051753 9.94069278 41.85345709 7.89941406 43.79199219 C8.104375 44.53964844 8.30933594 45.28730469 8.52050781 46.05761719 C8.92462891 47.53488281 8.92462891 47.53488281 9.33691406 49.04199219 C9.73716797 50.50378906 9.73716797 50.50378906 10.14550781 51.99511719 C10.51869141 53.37957031 10.51869141 53.37957031 10.89941406 54.79199219 C11.18788208 55.82658569 11.18788208 55.82658569 11.48217773 56.88208008 C14.42690474 70.3616584 11.81016575 85.08793552 5.21191406 96.97949219 C-3.52226375 110.43012601 -14.95907655 118.67343385 -30.10058594 123.79199219 C-32.99829152 124.39957562 -35.21005477 124.71127928 -38.10058594 124.79199219 C-39.13828125 124.85386719 -40.17597656 124.91574219 -41.24511719 124.97949219 C-48.92461953 125.25043384 -55.06156425 124.26562326 -62.26074219 121.56933594 C-65.61353559 120.65158368 -66.81520115 120.65870469 -70.10058594 121.79199219 C-72.61382695 123.72037111 -74.78721168 125.95669122 -77.00386047 128.21424866 C-78.0270732 129.23233483 -78.0270732 129.23233483 -79.07095689 130.2709884 C-81.35908773 132.55251963 -83.63260997 134.84807485 -85.90649414 137.14379883 C-87.54181975 138.78025246 -89.17802613 140.41582633 -90.81504822 142.05058289 C-95.26162884 146.49601368 -99.69575032 150.95368873 -104.12778497 155.41361547 C-108.7597878 160.07058671 -113.40308535 164.71626791 -118.04521179 169.36314392 C-125.83714342 177.16543771 -133.62138427 184.97534681 -141.40063477 192.7902832 C-149.41319831 200.8395646 -157.42995362 208.88463278 -165.45239258 216.92407227 C-165.94692023 217.41965081 -166.44144788 217.91522935 -166.95096121 218.42582542 C-169.43189499 220.91197936 -171.91291151 223.39805071 -174.39396918 225.88408101 C-194.97568383 246.50726037 -215.54271768 267.14504243 -236.10058594 287.79199219 C-235.56896851 289.50769409 -235.56896851 289.50769409 -235.02661133 291.25805664 C-234.56260201 292.78617834 -234.09900064 294.31442394 -233.63574219 295.84277344 C-233.28509705 296.96866882 -233.28509705 296.96866882 -232.92736816 298.11730957 C-228.33669198 313.37686597 -231.92232806 328.07111272 -239.28417969 341.90917969 C-247.54964038 355.02726569 -260.71946126 364.50895986 -275.85058594 368.04199219 C-288.77531656 370.26280503 -299.86449931 367.88864624 -312.10058594 363.79199219 C-335.83044375 387.38461368 -359.54454489 410.99294246 -383.23755354 434.62256781 C-386.03268548 437.41019522 -388.82794792 440.19769175 -391.62329102 442.98510742 C-392.17980767 443.54005022 -392.73632433 444.09499301 -393.30970513 444.66675226 C-402.32932123 453.66023744 -411.35947468 462.64307076 -420.39354462 471.6220341 C-429.65829465 480.83073896 -438.91168064 490.05074775 -448.15454477 499.28142005 C-453.86148023 504.98010948 -459.5771679 510.66972306 -465.30425441 516.34816185 C-469.68970224 520.69824093 -474.05928135 525.06394034 -478.42302513 529.43578529 C-480.21941262 531.23051565 -482.0209874 533.02007042 -483.82796478 534.80413818 C-486.28583846 537.23235694 -488.72472643 539.67815307 -491.15956116 542.12944031 C-491.88619038 542.83859248 -492.61281961 543.54774466 -493.3614679 544.27838629 C-494.00738843 544.93625311 -494.65330896 545.59411993 -495.31880283 546.27192211 C-495.88420641 546.83504736 -496.44960998 547.39817261 -497.03214699 547.97836226 C-498.35869938 549.81758986 -498.35869938 549.81758986 -497.82156652 552.38431102 C-497.14931815 554.62925323 -496.36451093 556.78766938 -495.53808594 558.97949219 C-491.05614579 573.750024 -494.08530174 590.40146911 -501.18261719 603.77246094 C-510.29493419 618.11832864 -523.0472802 626.26089176 -539.41699219 630.37402344 C-549.69939181 631.97550344 -560.08757107 631.64365232 -569.71777344 627.56933594 C-572.45720043 626.67565402 -573.42379171 626.86597419 -576.10058594 627.79199219 C-578.22590205 629.64316186 -580.18599531 631.49864332 -582.15429688 633.50512695 C-582.74984879 634.10024078 -583.3454007 634.69535461 -583.95899963 635.3085022 C-585.92484812 637.27643994 -587.87985867 639.25478896 -589.83496094 641.23339844 C-591.19622402 642.60025697 -592.55815117 643.96645445 -593.92071533 645.33201599 C-597.50465381 648.92740721 -601.07949195 652.53171661 -604.65252686 656.13793945 C-608.30034611 659.81645011 -611.95667577 663.4864798 -615.61230469 667.15722656 C-622.7834333 674.36052693 -629.94497927 681.57327475 -637.10058594 688.79199219 C-636.29876334 690.23544216 -635.49692021 691.67888073 -634.69506836 693.12231445 C-634.02528206 694.32803856 -634.02528206 694.32803856 -633.34196472 695.55812073 C-632.42504481 697.20812575 -631.50720711 698.85762083 -630.58886719 700.50683594 C-624.29899125 712.39700009 -622.98347821 726.04645031 -626.58813477 739.04150391 C-631.59752263 755.25342556 -640.8347203 767.25250388 -655.87011719 775.26855469 C-671.57930873 782.78260155 -687.84165761 782.46451331 -704.10058594 776.79199219 C-706.91392115 775.36576283 -709.49182964 773.85223474 -712.08496094 772.06152344 C-714.19691566 770.7313194 -715.63454435 770.12530384 -718.10058594 769.79199219 C-720.43796033 771.62271983 -722.40381146 773.41698252 -724.47273254 775.52249146 C-725.10980642 776.15105982 -725.74688031 776.77962818 -726.40325946 777.42724407 C-728.54729392 779.54888993 -730.6729066 781.68809495 -732.79907227 783.82763672 C-734.32732936 785.34748681 -735.85664152 786.86627663 -737.38693237 788.38407898 C-741.54922539 792.51922446 -745.69538154 796.67020735 -749.83810258 800.82494974 C-753.29277826 804.28673625 -756.7552137 807.74070688 -760.2177183 811.19466007 C-768.38324859 819.34020763 -776.53589708 827.49849052 -784.68041992 835.66503906 C-793.09470978 844.10169643 -801.52879242 852.518178 -809.9731558 860.92472565 C-817.21212049 868.13250329 -824.43942069 875.35182655 -831.65724772 882.58077133 C-835.97280372 886.90283036 -840.29254805 891.22047991 -844.623209 895.5274086 C-848.69388533 899.57691215 -852.74980574 903.64062903 -856.7946434 907.71593666 C-858.28465959 909.21230764 -859.77985073 910.70354533 -861.28043556 912.1893177 C-863.32221743 914.21256573 -865.34476929 916.25324125 -867.36335754 918.29959106 C-867.96663889 918.88880596 -868.56992024 919.47802086 -869.19148284 920.08509076 C-871.02283963 921.89767262 -871.02283963 921.89767262 -873.10058594 924.79199219 C-873.16506422 927.52776054 -873.16506422 927.52776054 -872.10058594 929.79199219 C-871.85179687 930.5615625 -871.60300781 931.33113281 -871.34667969 932.12402344 C-871.07984375 932.94257812 -870.81300781 933.76113281 -870.53808594 934.60449219 C-866.67892554 948.72939945 -868.69126569 964.63288531 -875.66308594 977.45605469 C-884.11303875 991.187228 -895.60238747 1000.45672356 -911.28808594 1004.66699219 C-922.70442162 1006.95299705 -933.83443741 1007.11363692 -944.68261719 1002.56933594 C-947.47034771 1001.67311886 -948.38962321 1001.80416788 -951.10058594 1002.79199219 C-952.96863999 1004.24119664 -952.96863999 1004.24119664 -954.73583984 1006.1184082 C-955.42980865 1006.81905899 -956.12377747 1007.51970978 -956.83877563 1008.24159241 C-957.57743866 1009.0020134 -958.31610168 1009.76243439 -959.07714844 1010.54589844 C-959.84360687 1011.32134506 -960.61006531 1012.09679169 -961.39974976 1012.89573669 C-963.84893486 1015.37497631 -966.28799402 1017.86385697 -968.72558594 1020.35449219 C-971.17118159 1022.84780093 -973.61891183 1025.33885538 -976.07284546 1027.82395935 C-977.60042185 1029.37140589 -979.12303449 1030.92377045 -980.64028931 1032.4813385 C-981.3279538 1033.17883713 -982.01561829 1033.87633575 -982.72412109 1034.5949707 C-983.32938629 1035.21372574 -983.93465149 1035.83248077 -984.55825806 1036.46998596 C-986.10058594 1037.79199219 -986.10058594 1037.79199219 -988.10058594 1037.79199219 C-989.53808594 1036.29589844 -989.53808594 1036.29589844 -991.10058594 1034.35449219 C-993.24583637 1031.64010981 -993.24583637 1031.64010981 -996.10058594 1029.79199219 C-996.10058594 1029.13199219 -996.10058594 1028.47199219 -996.10058594 1027.79199219 C-997.09058594 1027.46199219 -998.08058594 1027.13199219 -999.10058594 1026.79199219 C-1001.78808594 1024.35449219 -1001.78808594 1024.35449219 -1004.10058594 1021.79199219 C-1004.10058594 1021.13199219 -1004.10058594 1020.47199219 -1004.10058594 1019.79199219 C-1005.09058594 1019.46199219 -1006.08058594 1019.13199219 -1007.10058594 1018.79199219 C-1009.26568507 1016.59528577 -1011.14852763 1014.17784123 -1013.10058594 1011.79199219 C-1008.94315386 1006.80816653 -1004.59197615 1002.21823258 -999.91699219 997.72167969 C-998.56404559 996.40081555 -997.2118531 995.07917862 -995.86035156 993.75683594 C-993.75157535 991.69769833 -991.63874404 989.6436149 -989.51293945 987.60205078 C-987.44633483 985.61388282 -985.39917311 983.60735486 -983.35449219 981.59667969 C-982.39066368 980.68400833 -982.39066368 980.68400833 -981.40736389 979.75289917 C-979.80195137 978.1576518 -978.35655968 976.67466827 -977.10058594 974.79199219 C-976.99124427 972.03765934 -976.99124427 972.03765934 -978.10058594 969.79199219 C-978.349375 969.02242187 -978.59816406 968.25285156 -978.85449219 967.45996094 C-979.12132812 966.64140625 -979.38816406 965.82285156 -979.66308594 964.97949219 C-983.68994135 950.24080465 -981.18748649 934.12085268 -974.01074219 920.77246094 C-965.52758881 907.535966 -953.55156718 898.37831871 -938.12011719 894.82104492 C-926.30026444 892.45168624 -914.09984873 893.14467513 -902.84463882 897.70630646 C-899.81447683 898.08586382 -899.81447683 898.08586382 -896.95812607 895.44927216 C-895.74223209 894.28745642 -894.54267265 893.10841329 -893.355896 891.91687012 C-892.69079396 891.27241707 -892.02569191 890.62796403 -891.34043527 889.96398211 C-889.10499066 887.7901663 -886.89165672 885.59513017 -884.67773438 883.39941406 C-883.08370316 881.83969255 -881.48852108 880.28114646 -879.89227295 878.72369385 C-875.55036908 874.47778389 -871.22906395 870.21150344 -866.91403484 865.93829918 C-864.21550005 863.26622698 -861.51397331 860.59721383 -858.81165314 857.92897034 C-851.32145899 850.53052066 -843.83751651 843.12585473 -836.37520981 835.69927216 C-834.43832745 833.77180877 -832.50143493 831.84435563 -830.56445312 829.91699219 C-830.08306335 829.43798023 -829.60167358 828.95896828 -829.10569623 828.46544081 C-821.32656709 820.72730365 -813.50112568 813.03787921 -805.65458509 805.36816591 C-797.58640203 797.48032967 -789.56170364 789.55017307 -781.57466149 781.58003664 C-777.09425987 777.11110047 -772.59785731 772.66183298 -768.05522919 768.25608826 C-763.77369182 764.10138985 -759.54854199 759.89643746 -755.35926056 755.64879608 C-753.82112098 754.10715602 -752.26432751 752.58384694 -750.68731689 751.0819931 C-742.89971787 743.64467456 -737.55448052 737.83242228 -736.8466475 726.73682833 C-736.79569656 722.90025227 -736.95618997 719.08991996 -737.12930346 715.25808811 C-737.06326656 709.58721753 -734.72364327 704.73873619 -732.10058594 699.79199219 C-731.66746094 698.91800781 -731.23433594 698.04402344 -730.78808594 697.14355469 C-723.6864166 684.02967666 -711.57931229 674.81164598 -697.53004456 670.17158508 C-692.93082257 668.8112244 -689.02269505 668.69735498 -684.26673985 668.9268465 C-674.78526581 669.27567222 -668.44512072 667.99837718 -661.3449707 661.53149414 C-658.47943368 658.78460476 -655.75838065 655.92367948 -653.04199219 653.03027344 C-651.55059325 651.51741683 -650.05497608 650.00870831 -648.55540466 648.50395203 C-645.44788642 645.36445813 -642.37760783 642.19416903 -639.33325195 638.9934082 C-635.42947472 634.89009979 -631.46599159 630.85149454 -627.47688389 626.83126545 C-624.40115146 623.72648479 -621.34573248 620.6023984 -618.29743767 617.47069359 C-616.84019556 615.9735975 -615.37964494 614.47971447 -613.91574287 612.98913002 C-611.8846706 610.91002602 -609.87924224 608.8092544 -607.88012695 606.69946289 C-607.27524445 606.08675537 -606.67036194 605.47404785 -606.04714966 604.84277344 C-602.6684682 601.29207227 -602.6684682 601.29207227 -602.19224548 596.514328 C-602.49199783 595.61595718 -602.79175018 594.71758636 -603.10058594 593.79199219 C-603.349375 592.97859375 -603.59816406 592.16519531 -603.85449219 591.32714844 C-604.12132812 590.51117187 -604.38816406 589.69519531 -604.66308594 588.85449219 C-608.64469229 574.50899873 -606.38675199 559.19723887 -599.26855469 546.28808594 C-591.85100574 533.80354683 -580.09608222 524.39222644 -566.10058594 520.26464844 C-565.44058594 520.10867188 -564.78058594 519.95269531 -564.10058594 519.79199219 C-563.35679687 519.61152344 -562.61300781 519.43105469 -561.84667969 519.24511719 C-551.15834969 517.48146672 -541.12545361 518.47383779 -530.95605469 522.01464844 C-527.82839825 522.86608979 -527.03775755 522.98999269 -524.10058594 521.79199219 C-522.04124576 520.01148349 -520.14915765 518.22973782 -518.24633789 516.29418945 C-517.67189941 515.72179535 -517.09746094 515.14940125 -516.50561523 514.55966187 C-514.60936181 512.66641578 -512.72406688 510.76264652 -510.83886719 508.85839844 C-509.52476845 507.54124217 -508.21007822 506.22467577 -506.89482117 504.90867615 C-504.14069753 502.14994986 -501.39155861 499.38638496 -498.64624023 496.61889648 C-495.12215847 493.06650475 -491.58943142 489.52287328 -488.0534029 485.98237705 C-485.33950812 483.26433144 -482.62845672 480.54346581 -479.91844749 477.82154655 C-478.61631351 476.51370473 -477.31370298 475.20633719 -476.0106144 473.89944649 C-474.19331711 472.07529632 -472.37945305 470.24780498 -470.56665039 468.41918945 C-470.02483627 467.87625748 -469.48302216 467.3333255 -468.92478943 466.77394104 C-466.17274672 464.03866584 -466.17274672 464.03866584 -464.10058594 460.79199219 C-464.93976563 460.80552734 -464.93976563 460.80552734 -465.79589844 460.81933594 C-478.6810915 460.34287381 -489.48975687 452.91297809 -498.10058594 443.79199219 C-510.53538126 430.33957888 -512.90193561 415.9161196 -512.27978516 398.34423828 C-511.29673658 384.34316227 -503.11835269 372.14924685 -493.10058594 362.79199219 C-479.53154697 352.5515775 -465.06981225 347.78891586 -448.06445312 350.06445312 C-431.68425109 352.8403587 -418.65290531 361.57885305 -408.85058594 374.97949219 C-404.49301568 381.84964474 -402.06118096 389.94961209 -400.10058594 397.79199219 C-379.97058594 377.66199219 -359.84058594 357.53199219 -339.10058594 336.79199219 C-340.58558594 332.33699219 -340.58558594 332.33699219 -342.10058594 327.79199219 C-346.16221743 313.46939692 -344.67050149 299.4943233 -338.03808594 286.22949219 C-329.92819266 272.03292848 -317.53577572 261.74351859 -301.77636719 257.10839844 C-288.94874072 254.11321996 -277.34854962 255.9212441 -265.13321304 260.53508663 C-263.04436391 261.02077448 -263.04436391 261.02077448 -261.35900497 259.66565037 C-260.77274464 259.07478106 -260.1864843 258.48391176 -259.5824585 257.87513733 C-258.90382751 257.20337967 -258.22519653 256.53162201 -257.52600098 255.83950806 C-256.42548401 254.71202652 -256.42548401 254.71202652 -255.30273438 253.56176758 C-254.52186462 252.78162796 -253.74099487 252.00148834 -252.9364624 251.19770813 C-250.34894116 248.60669333 -247.77959337 245.99839564 -245.20996094 243.38964844 C-243.42314835 241.59351416 -241.63523131 239.79847798 -239.84625244 238.00450134 C-235.61550327 233.75658829 -231.39608337 229.49773042 -227.18190217 225.23340362 C-222.38402882 220.37968315 -217.57198489 215.54011806 -212.75868177 210.70170605 C-202.85677036 200.74750271 -192.97284102 190.77560215 -183.10058594 180.79199219 C-183.9904998 180.80819359 -183.9904998 180.80819359 -184.89839172 180.82472229 C-187.62850299 180.86802312 -190.35854164 180.89456089 -193.08886719 180.92089844 C-194.02186646 180.93817993 -194.95486572 180.95546143 -195.9161377 180.9732666 C-208.7480073 181.06586483 -219.15658249 176.91675522 -229.10058594 168.79199219 C-230.14279297 168.02628906 -230.14279297 168.02628906 -231.20605469 167.24511719 C-242.14881592 158.69410067 -248.68629808 144.26978151 -250.36669922 130.63232422 C-251.66568475 114.47641782 -246.79928859 99.51302438 -236.35058594 87.04199219 C-225.61122638 75.58530899 -211.65391377 69.06490411 -196.00512695 68.33422852 C-179.57762446 68.01219362 -165.282787 73.80715747 -153.28808594 85.10449219 C-149.03114647 89.60425173 -145.88192926 94.26949837 -143.10058594 99.79199219 C-142.61332031 100.68789062 -142.12605469 101.58378906 -141.62402344 102.50683594 C-138.08069869 110.03887541 -137.82636673 116.52343996 -137.96777344 124.74902344 C-137.98215454 126.3450238 -137.98215454 126.3450238 -137.99682617 127.9732666 C-138.02169885 130.57977692 -138.0565383 133.18574724 -138.10058594 135.79199219 C-132.5866745 130.44028707 -127.09174317 125.06972739 -121.62041378 119.67450523 C-119.07918648 117.16980688 -116.53186606 114.67203005 -113.96948242 112.18896484 C-111.02369852 109.33380537 -108.10668371 106.45074657 -105.19042969 103.56542969 C-104.26656967 102.67769867 -103.34270966 101.78996765 -102.39085388 100.87533569 C-101.54990677 100.0349173 -100.70895966 99.1944989 -99.8425293 98.32861328 C-99.0941832 97.59581146 -98.3458371 96.86300964 -97.57481384 96.10800171 C-95.79256125 93.81178674 -95.79256125 93.81178674 -96.30421448 90.69204712 C-96.84332674 88.72882359 -97.44448908 86.7817767 -98.10058594 84.85449219 C-102.93534673 70.04803727 -100.2690322 54.79248384 -93.47558594 41.16699219 C-85.29106994 27.09536819 -72.63484329 17.38025615 -56.90527344 13.20996094 C-45.65391402 11.53322632 -34.21987364 11.84922635 -23.63183594 16.11230469 C-21.17506298 17.03709966 -21.17506298 17.03709966 -19.16308594 16.05395508 C-16.91564699 14.67883529 -15.36433663 13.20572477 -13.56933594 11.28027344 C-12.92351563 10.60544922 -12.27769531 9.930625 -11.61230469 9.23535156 C-10.26529784 7.80857053 -8.92418064 6.37620726 -7.58886719 4.93847656 C-6.94304688 4.26751953 -6.29722656 3.5965625 -5.63183594 2.90527344 C-4.75881836 1.9738855 -4.75881836 1.9738855 -3.86816406 1.02368164 C-2.10058594 -0.20800781 -2.10058594 -0.20800781 0 0 Z " fill="#010101" transform="translate(1150.1005859375,25.2080078125)"/>
<path d="M0 0 C11.04030916 10.74849482 18.10079618 25.30519551 18.3125 40.8125 C18.12819524 56.91403405 11.97065598 71.26697565 0.734375 82.84375 C-11.05685073 93.46274861 -25.52763339 98.79464563 -41.2890625 98.4921875 C-57.54797975 97.41290177 -70.97486495 90.2140296 -81.9375 78.25 C-92.16840045 65.20947726 -95.8950633 50.58080675 -94.9375 34.25 C-92.65986735 19.43642071 -85.06379962 6.93208221 -73.71875 -2.76171875 C-50.59302271 -19.29401536 -21.85193912 -18.85441661 0 0 Z " fill="#020202" transform="translate(750.9375,745.75)"/>
<path d="M0 0 C13.22406556 8.97412449 21.98736306 21.3155734 25.42578125 36.97265625 C27.64799767 52.13928334 25.00528126 66.15244982 16.89453125 79.171875 C14.11668313 82.75423652 11.11785838 85.9885537 7.89453125 89.171875 C7.353125 89.73519531 6.81171875 90.29851562 6.25390625 90.87890625 C-4.73620551 101.39722028 -19.44388397 104.75425187 -34.17578125 104.47265625 C-48.82989174 103.35101956 -62.615815 97.07311225 -72.59375 86.08984375 C-84.77603822 70.63376232 -87.98356661 55.47601115 -86.10546875 36.171875 C-85.29935523 32.09627315 -84.07453616 28.81313505 -82.10546875 25.171875 C-81.63496094 24.22183594 -81.16445313 23.27179688 -80.6796875 22.29296875 C-74.71365777 10.71547953 -66.53968738 3.21259428 -55.10546875 -2.828125 C-54.11546875 -3.364375 -53.12546875 -3.900625 -52.10546875 -4.453125 C-35.39972562 -12.10992394 -15.4076551 -9.07016677 0 0 Z " fill="#020202" transform="translate(499.10546875,420.828125)"/>
<path d="M0 0 C1.51160944 1.151585 3.01316522 2.31660089 4.5 3.5 C5.551875 4.263125 6.60375 5.02625 7.6875 5.8125 C16.91917464 14.63387799 24.20448516 27.59191192 24.87109375 40.46875 C25.2720366 58.47222033 21.87582547 73.59719351 9.25 87.25 C-2.80214247 98.49327385 -18.11689533 104.12355288 -34.43359375 103.74609375 C-49.59786339 103.0351028 -62.00384552 96.14663698 -72.5 85.5 C-73.07492187 84.93539062 -73.64984375 84.37078125 -74.2421875 83.7890625 C-83.9524226 73.47508221 -88.00774202 59.34335416 -87.8515625 45.48242188 C-87.32502349 30.08115582 -81.17997329 17.04882685 -70.4296875 6.19921875 C-51.35948877 -11.37079101 -21.68385293 -14.65905442 0 0 Z " fill="#020202" transform="translate(837.5,496.5)"/>
<path d="M0 0 C1.45188721 0.01244751 1.45188721 0.01244751 2.93310547 0.02514648 C17.85029683 0.37580156 30.54122982 5.81085337 41.5 16 C52.52789447 27.70270927 57.79496987 41.42406198 57.59985352 57.51074219 C57.07522917 72.299143 51.15163513 86.52694116 40.82421875 97.1875 C27.10510383 109.17871425 11.1353082 113.43325592 -6.75 112.4375 C-20.33105328 110.71837933 -33.85567324 102.76540109 -42.75 92.4375 C-52.96535039 78.03268377 -56.11087354 62.8559015 -54.75 45.4375 C-52.38611465 32.3834325 -44.10440139 19.6128408 -33.75 11.4375 C-23.08271647 4.15558403 -13.01963712 -0.14435952 0 0 Z " fill="#020202" transform="translate(298.75,562.5625)"/>
<path d="M0 0 C12.78951878 8.37486255 22.59772935 21.41653404 25.79296875 36.6171875 C27.80576288 53.54671623 24.61427351 69.57277075 14.265625 83.4453125 C4.97998616 94.56561385 -8.39585837 102.51293362 -22.921875 104.015625 C-39.37637626 105.11259175 -54.56394682 101.67012703 -67.234375 90.703125 C-78.82801778 79.53612827 -85.85161561 66.70299404 -86.26538086 50.41333008 C-86.37694056 40.14897326 -85.94637124 32.17644895 -80.921875 23.015625 C-80.39078125 22.04367188 -79.8596875 21.07171875 -79.3125 20.0703125 C-71.30403068 6.5881646 -59.66334722 -2.16627897 -44.796875 -7.10546875 C-29.42083193 -10.59297852 -13.57921516 -7.80640872 0 0 Z " fill="#020202" transform="translate(798.921875,176.984375)"/>
<path d="M0 0 C11.20269942 7.85603045 19.88762526 21.15168815 22.71484375 34.6015625 C24.47352575 49.39376449 22.6649567 64.48909995 14 77 C13.15308594 78.22976563 13.15308594 78.22976563 12.2890625 79.484375 C4.04800554 90.58457417 -8.46872013 99.16858738 -22.23828125 101.71484375 C-40.03220463 103.55212297 -54.26047121 100.76310598 -69 90 C-79.6614175 81.12880553 -86.04248807 69.50489459 -89 56 C-90.05638991 43.58140112 -89.97955773 32.15020977 -84 21 C-83.56558594 20.12472656 -83.13117188 19.24945312 -82.68359375 18.34765625 C-75.55768819 5.17183656 -63.78339488 -3.41648197 -49.875 -8.4375 C-32.04761481 -13.44205512 -15.47325659 -9.24494923 0 0 Z " fill="#020202" transform="translate(277,779)"/>
<path d="M0 0 C10.54788361 9.02058824 18.66416564 20.91622928 20.33984375 34.96484375 C21.05842526 46.12815929 21.18357555 56.65598035 16.33984375 66.96484375 C15.98921875 67.74730469 15.63859375 68.52976562 15.27734375 69.3359375 C9.83022375 80.24909111 0.35458993 89.24479655 -10.47265625 94.65234375 C-11.61347656 95.23371094 -12.75429687 95.81507813 -13.9296875 96.4140625 C-26.52139135 102.06553746 -43.00325071 101.87081766 -55.80859375 97.21875 C-70.80685027 90.62362624 -81.57528452 79.95451323 -87.97265625 64.83984375 C-88.56092644 63.2239943 -89.1252487 61.59913416 -89.66015625 59.96484375 C-89.88574219 59.28421875 -90.11132812 58.60359375 -90.34375 57.90234375 C-94.37121507 43.23681578 -91.56711639 28.5645623 -84.22265625 15.52734375 C-75.87407515 2.1275203 -63.49116998 -7.56518045 -47.97265625 -11.34765625 C-30.49607759 -14.20493816 -14.23920357 -10.89372255 0 0 Z " fill="#020202" transform="translate(1066.66015625,237.03515625)"/>
<path d="M0 0 C4.61494896 2.81399327 7.70795084 7.02304239 9.08203125 12.26953125 C9.69885754 18.54059849 8.8895938 23.13989838 5.08203125 28.26953125 C0.31458306 32.77320669 -3.65170134 34.95546708 -10.16796875 35.58203125 C-16.11500658 35.08644476 -20.78624919 32.87262958 -24.79296875 28.39453125 C-28.36846668 23.13644606 -29.57494308 18.62028308 -28.91796875 12.26953125 C-26.61904027 5.4249942 -22.82972508 1.37586158 -16.48046875 -2.04296875 C-10.3214293 -3.69539397 -5.6133368 -2.70625948 0 0 Z " fill="#F8F8F8" transform="translate(234.91796875,958.73046875)"/>
<path d="M0 0 C5.17239536 3.29152432 8.72378631 5.77800177 10.75 11.75 C11.63177538 18.62978592 11.49465473 24.40315833 7.31640625 30.12890625 C3.1511841 34.43954763 -2.02071849 36.52329341 -7.9375 37.125 C-12.99136751 37.05984885 -16.40463521 34.87756337 -20.25 31.75 C-24.88127343 26.75309972 -26.69130464 22.80254622 -26.4921875 16.0546875 C-25.81488438 9.60938359 -22.87985003 5.94215942 -18.06640625 2.01171875 C-12.26886993 -2.01538712 -6.61403313 -2.5438589 0 0 Z " fill="#FAFAFA" transform="translate(476.25,732.25)"/>
<path d="M0 0 C4.57456619 2.53541045 8.87183424 6.33013289 10.515625 11.421875 C11.76520094 18.43036612 10.94003387 23.59635902 6.875 29.4375 C2.59385539 34.07051951 -1.70892715 36.19985349 -7.9375 36.8125 C-13.87330876 36.64418784 -18.45750499 34.19275791 -22.5 29.9375 C-26.49328436 23.7939856 -27.03380215 18.74539359 -26.125 11.4375 C-23.98216935 5.73554721 -20.47216419 2.34356749 -15.125 -0.5625 C-9.80670208 -2.33526597 -5.08669816 -2.28462067 0 0 Z " fill="#F9F9F9" transform="translate(964.125,132.5625)"/>
<path d="M0 0 C4.52815133 2.96671983 7.45827109 7.32793828 9.15234375 12.41015625 C9.76918442 18.57856298 8.32465545 23.19150768 5.15234375 28.41015625 C0.9600122 33.2737319 -3.96545746 35.08991194 -10.22265625 35.78515625 C-16.09462847 35.17771085 -20.75756909 32.96672426 -24.72265625 28.53515625 C-28.29815418 23.27707106 -29.50463058 18.76090808 -28.84765625 12.41015625 C-26.54872777 5.5656192 -22.75941258 1.51648658 -16.41015625 -1.90234375 C-10.35424478 -3.52710048 -5.55034213 -2.64708625 0 0 Z " fill="#F9F9F9" transform="translate(609.84765625,583.58984375)"/>
<path d="M0 0 C3.81854877 2.66808857 6.34230662 5.81988862 7.828125 10.27734375 C8.43826852 16.46880012 8.3780918 22.06121486 5.2421875 27.5546875 C2.20950268 31.24920132 -1.97211744 33.17746497 -6.171875 35.27734375 C-12.51624513 35.82427221 -16.90100711 34.94550663 -22.171875 31.27734375 C-26.91520336 26.89426817 -29.21122638 22.30132235 -29.546875 15.90234375 C-29.40072211 10.40334116 -27.54268348 6.72609662 -23.74609375 2.8046875 C-16.4483542 -3.66333489 -8.47324019 -4.68696947 0 0 Z " fill="#F9F9F9" transform="translate(254.171875,808.72265625)"/>
<path d="M0 0 C4.83530139 2.71624501 9.01733184 7.01948024 10.75 12.375 C11.40588027 18.82448933 10.33705539 23.90056954 6.75 29.375 C1.35473918 34.53728365 -4.06439698 35.86959408 -11.32421875 35.7734375 C-16.32006318 35.09309553 -19.73433652 32.92713302 -23.25 29.375 C-26.89686738 24.02297571 -28.15954285 18.74179998 -27.25 12.375 C-24.79627645 6.75753928 -21.18100166 2.91245771 -16.25 -0.625 C-10.72542882 -2.46652373 -5.33994339 -2.4419855 0 0 Z " fill="#F9F9F9" transform="translate(308.25,601.625)"/>
<path d="M0 0 C4.10352151 2.51283059 6.55400789 5.68155493 8.0859375 10.27734375 C8.75679846 16.48493063 9.29656707 22.49865958 5.6484375 27.83984375 C1.49602697 32.42986195 -3.28367608 35.06379161 -9.50390625 35.4296875 C-16.29957412 35.03114457 -20.51056917 32.88112819 -25.1640625 27.83984375 C-28.78374396 22.5395959 -29.95305551 17.63852546 -28.9140625 11.27734375 C-26.33179925 5.21649448 -22.36401341 1.09310739 -16.5390625 -1.97265625 C-10.37586564 -3.73356964 -5.63541172 -2.70230494 0 0 Z " fill="#FAFAFA" transform="translate(778.9140625,208.72265625)"/>
<path d="M0 0 C4.69359622 2.67799945 7.50460656 6.38887455 9.625 11.3125 C10.61139974 18.05672151 9.64313897 23.76598915 5.625 29.3125 C1.95295042 33.25946238 -1.39196839 35.00770113 -6.70703125 35.55078125 C-12.90097849 35.73611195 -16.36325585 35.02119067 -21.375 31.3125 C-26.47572398 25.93606121 -27.86063756 21.09119251 -27.6875 13.80859375 C-27.02337918 8.50392874 -24.2912897 4.92018126 -20.3125 1.4375 C-14.308555 -2.90577936 -6.69314303 -3.11425792 0 0 Z " fill="#FAFAFA" transform="translate(721.375,770.6875)"/>
<path d="M0 0 C4.64264273 2.69202668 8.79419265 6.02103035 10.7421875 11.12890625 C11.57306465 17.01857523 11.64333931 22.18796389 9.1171875 27.62890625 C4.04755131 32.9653654 0.11449352 36.23913835 -7.5078125 36.44140625 C-13.03011417 36.38304639 -15.85938667 35.45016657 -20.2578125 32.12890625 C-24.45410833 27.70578361 -26.33661041 23.75749971 -26.5703125 17.69140625 C-26.40522822 12.43477522 -25.16167838 9.04467129 -21.3828125 5.2421875 C-15.11416763 -0.43877192 -8.41060664 -3.24492263 0 0 Z " fill="#FAFAFA" transform="translate(476.2578125,450.87109375)"/>
<path d="M0 0 C5.35649196 3.02181106 8.69481229 5.744775 10.9296875 11.63671875 C11.94979437 18.77746681 11.41277373 23.85530635 7.2421875 29.82421875 C2.85150065 34.45564822 -1.13371619 35.98910159 -7.4453125 36.19921875 C-13.44840549 36.12662996 -17.43277403 35.07648013 -21.7578125 30.82421875 C-25.87564159 25.75882104 -26.50334601 20.11603038 -26.26953125 13.73046875 C-25.29656563 8.20461823 -22.30147422 5.00273195 -18.15234375 1.44921875 C-12.5763607 -2.36523046 -6.14128549 -2.6183101 0 0 Z " fill="#F9F9F9" transform="translate(1113.7578125,76.17578125)"/>
<path d="M0 0 C3.95478251 2.91900614 7.41112181 6.50974362 9.625 10.9375 C10.31411981 18.38225339 10.25896217 23.9258734 5.625 29.9375 C1.29174724 34.04853467 -2.30315147 35.77041544 -8.25 36.25 C-14.03885387 36.06501783 -18.48759426 34.00817416 -22.6875 30.0625 C-27.04842174 25.29455889 -27.90178811 20.87510045 -27.75 14.5 C-26.92059732 8.832415 -23.54220371 4.63849074 -19.3125 0.9375 C-13.59288231 -2.77523429 -6.23412519 -1.96259497 0 0 Z " fill="#FAFAFA" transform="translate(702.375,414.0625)"/>
<path d="M0 0 C3.78443516 2.69610086 6.30988589 5.82809517 7.79296875 10.27734375 C8.53568543 17.13225348 7.84539498 22.59342125 3.79296875 28.27734375 C-0.53482273 32.49416622 -4.57994871 34.35586426 -10.58203125 34.58984375 C-15.60259947 34.44806691 -19.87818603 33.42704703 -23.6796875 29.91796875 C-28.45911846 24.51149874 -29.68722259 19.82695456 -29.51953125 12.7734375 C-28.8587374 7.49534659 -26.13612898 3.90263132 -22.20703125 0.40234375 C-15.4584503 -4.37790109 -7.08500909 -3.97382745 0 0 Z " fill="#FBFBFB" transform="translate(873.20703125,321.72265625)"/>
<path d="M0 0 C5.19998782 2.72859576 8.52256208 6.96233569 10.81640625 12.265625 C11.65304258 18.14381011 10.83452494 23.10561563 7.81640625 28.265625 C3.31021664 32.98950493 -1.22947778 36.52164415 -7.93359375 36.703125 C-14.38755347 36.55104348 -18.10001295 34.01909009 -22.7890625 29.83203125 C-26.87653461 25.24078107 -26.85960646 20.30365285 -26.59375 14.359375 C-25.90565889 9.16920205 -24.44843698 6.39435986 -20.55859375 2.73828125 C-14.56185934 -1.77176276 -7.0738493 -2.37904055 0 0 Z " fill="#FAFAFA" transform="translate(1039.18359375,263.734375)"/>
<path d="M0 0 C5.14035612 3.04613696 9.45931703 7.2529511 11.375 13 C12.15896339 19.51589241 11.16173329 24.59563308 7.375 30 C1.63799427 35.45015545 -2.9460247 36.46353415 -10.71484375 36.3125 C-16.1260744 35.73142825 -18.99757735 32.83413555 -22.4375 28.9375 C-26.50454798 23.47603557 -26.49404327 17.59303023 -25.625 11 C-20.75603625 0.20133397 -10.89614393 -3.00583281 0 0 Z " fill="#FAFAFA" transform="translate(813.625,526)"/>
<path d="M0 0 C0.99 0.99 0.99 0.99 2 2 C0.73046875 3.49739583 -0.5390625 4.99479167 -1.80859375 6.4921875 C-3.0878152 8.00594079 -3.0878152 8.00594079 -4 10 C-4.969375 10.2475 -5.93875 10.495 -6.9375 10.75 C-7.948125 11.1625 -8.95875 11.575 -10 12 C-10.33 12.99 -10.66 13.98 -11 15 C-11.33 15.99 -11.66 16.98 -12 18 C-14 18.66666667 -16 19.33333333 -18 20 C-18.495 21.485 -18.495 21.485 -19 23 C-19.495 24.485 -19.495 24.485 -20 26 C-22 26.66666667 -24 27.33333333 -26 28 C-26.495 29.485 -26.495 29.485 -27 31 C-27.33 31.99 -27.66 32.98 -28 34 C-30 34.66666667 -32 35.33333333 -34 36 C-34.33 36.99 -34.66 37.98 -35 39 C-35.33 39.99 -35.66 40.98 -36 42 C-38 42.66666667 -40 43.33333333 -42 44 C-42.33 44.99 -42.66 45.98 -43 47 C-43.33 47.99 -43.66 48.98 -44 50 C-46 50.66666667 -48 51.33333333 -50 52 C-50.33 52.99 -50.66 53.98 -51 55 C-51.33 55.99 -51.66 56.98 -52 58 C-54 58.66666667 -56 59.33333333 -58 60 C-58.33 60.99 -58.66 61.98 -59 63 C-59.33 63.99 -59.66 64.98 -60 66 C-62 66.66666667 -64 67.33333333 -66 68 C-66.495 69.485 -66.495 69.485 -67 71 C-67.495 72.485 -67.495 72.485 -68 74 C-70 74.66666667 -72 75.33333333 -74 76 C-74.495 77.485 -74.495 77.485 -75 79 C-75.495 80.485 -75.495 80.485 -76 82 C-78 82.66666667 -80 83.33333333 -82 84 C-82.33 84.99 -82.66 85.98 -83 87 C-83.33 87.99 -83.66 88.98 -84 90 C-86 90.66666667 -88 91.33333333 -90 92 C-90.33 92.99 -90.66 93.98 -91 95 C-91.33 95.99 -91.66 96.98 -92 98 C-94 98.66666667 -96 99.33333333 -98 100 C-98.309375 100.94875 -98.61875 101.8975 -98.9375 102.875 C-100.47901168 107.40885788 -102.79306793 107.85963105 -107 110 C-108.85859339 111.60172474 -108.85859339 111.60172474 -110 113 C-109.45385908 109.00344624 -107.54822788 107.1777977 -104.74168396 104.38092041 C-103.8231665 103.45827896 -102.90464905 102.53563751 -101.95829773 101.58503723 C-100.93254165 100.5698983 -99.90664266 99.55490374 -98.88061523 98.54003906 C-97.80594547 97.46621549 -96.73193583 96.39173094 -95.65853882 95.31663513 C-92.74181744 92.39905208 -89.81593057 89.49081908 -86.88833499 86.58415318 C-83.830692 83.54524811 -80.7815274 80.49786056 -77.73146057 77.45135498 C-71.95405626 71.6832796 -66.1690463 65.92289497 -60.3812781 60.16522098 C-53.79264556 53.610106 -47.21251688 47.04648314 -40.63309562 40.48212481 C-27.09818396 26.97858139 -13.55260752 13.48578199 0 0 Z " fill="#EDEDED" transform="translate(386,840)"/>
<path d="M0 0 C0.66 0.66 1.32 1.32 2 2 C0.73046875 3.49739583 -0.5390625 4.99479167 -1.80859375 6.4921875 C-3.0878152 8.00594079 -3.0878152 8.00594079 -4 10 C-4.969375 10.28875 -5.93875 10.5775 -6.9375 10.875 C-10.10100803 11.66553372 -10.10100803 11.66553372 -11.1875 14.0625 C-11.455625 14.701875 -11.72375 15.34125 -12 16 C-12.99 16.33 -13.98 16.66 -15 17 C-15 17.66 -15 18.32 -15 19 C-16.5 20.625 -16.5 20.625 -18 22 C-17.34 23.32 -16.68 24.64 -16 26 C-17.26700723 26.9841125 -18.5387619 27.96211497 -19.8125 28.9375 C-20.52019531 29.48277344 -21.22789062 30.02804688 -21.95703125 30.58984375 C-24 32 -24 32 -27 33 C-28.03176485 34.80154143 -28.03176485 34.80154143 -29 37 C-30.14005088 38.72620911 -31.30860241 40.43382122 -32.5 42.125 C-33.41265625 43.42824219 -33.41265625 43.42824219 -34.34375 44.7578125 C-36 47 -36 47 -38 49 C-38.99 47.68 -39.98 46.36 -41 45 C-41.37125 45.78375 -41.7425 46.5675 -42.125 47.375 C-44.45786066 50.64100492 -46.26582729 50.80824275 -50 52 C-51.42055068 54.00136244 -51.42055068 54.00136244 -52 56 C-52.99 55.67 -53.98 55.34 -55 55 C-36.85 36.85 -18.7 18.7 0 0 Z " fill="#EDEDED" transform="translate(1018,208)"/>
<path d="M0 0 C1 4 1 4 0 6 C-0.969375 6.2475 -1.93875 6.495 -2.9375 6.75 C-3.948125 7.1625 -4.95875 7.575 -6 8 C-6.33 8.99 -6.66 9.98 -7 11 C-7.33 11.99 -7.66 12.98 -8 14 C-10 14.66666667 -12 15.33333333 -14 16 C-14.495 17.485 -14.495 17.485 -15 19 C-15.495 20.485 -15.495 20.485 -16 22 C-18 22.66666667 -20 23.33333333 -22 24 C-22.495 25.485 -22.495 25.485 -23 27 C-23.495 28.485 -23.495 28.485 -24 30 C-26 30.66666667 -28 31.33333333 -30 32 C-30.33 32.99 -30.66 33.98 -31 35 C-31.33 35.99 -31.66 36.98 -32 38 C-34 38.66666667 -36 39.33333333 -38 40 C-38.33 40.99 -38.66 41.98 -39 43 C-39.33 43.99 -39.66 44.98 -40 46 C-42 46.66666667 -44 47.33333333 -46 48 C-46.33 48.99 -46.66 49.98 -47 51 C-47.33 51.99 -47.66 52.98 -48 54 C-51 55.125 -51 55.125 -54 56 C-55.42055068 58.00136244 -55.42055068 58.00136244 -56 60 C-56.99 59.67 -57.98 59.34 -59 59 C-39.53 39.53 -20.06 20.06 0 0 Z " fill="#EDEDED" transform="translate(838,388)"/>
<path d="M0 0 C0.66 0.66 1.32 1.32 2 2 C0.73046875 3.49739583 -0.5390625 4.99479167 -1.80859375 6.4921875 C-3.0878152 8.00594079 -3.0878152 8.00594079 -4 10 C-4.969375 10.2475 -5.93875 10.495 -6.9375 10.75 C-7.948125 11.1625 -8.95875 11.575 -10 12 C-10.33 12.99 -10.66 13.98 -11 15 C-11.33 15.99 -11.66 16.98 -12 18 C-14 18.66666667 -16 19.33333333 -18 20 C-18.495 21.485 -18.495 21.485 -19 23 C-19.495 24.485 -19.495 24.485 -20 26 C-22 26.66666667 -24 27.33333333 -26 28 C-26.33 28.99 -26.66 29.98 -27 31 C-27.33 31.99 -27.66 32.98 -28 34 C-30 34.66666667 -32 35.33333333 -34 36 C-34.33 36.99 -34.66 37.98 -35 39 C-35.33 39.99 -35.66 40.98 -36 42 C-38 42.66666667 -40 43.33333333 -42 44 C-42.33 44.99 -42.66 45.98 -43 47 C-43.33 47.99 -43.66 48.98 -44 50 C-47 51.125 -47 51.125 -50 52 C-51.42055068 54.00136244 -51.42055068 54.00136244 -52 56 C-52.99 55.67 -53.98 55.34 -55 55 C-36.85 36.85 -18.7 18.7 0 0 Z " fill="#EDEDED" transform="translate(762,464)"/>
<path d="M0 0 C1.65 0.66 3.3 1.32 5 2 C5 5 5 5 3.36352539 6.99291992 C2.61578857 7.73131104 1.86805176 8.46970215 1.09765625 9.23046875 C0.29005859 10.03291016 -0.51753906 10.83535156 -1.34960938 11.66210938 C-2.20361328 12.49548828 -3.05761719 13.32886719 -3.9375 14.1875 C-4.78763672 15.03248047 -5.63777344 15.87746094 -6.51367188 16.74804688 C-12.84636047 23 -12.84636047 23 -14 23 C-14.99 18.38 -15.98 13.76 -17 9 C-15.68 8.34 -14.36 7.68 -13 7 C-11.31923769 7.63028587 -9.65204456 8.29788106 -8 9 C-5.78141747 8.86358623 -5.78141747 8.86358623 -4 8 C-3.67 7.34 -3.34 6.68 -3 6 C-2.34 6 -1.68 6 -1 6 C-0.67 4.02 -0.34 2.04 0 0 Z " fill="#F4F4F4" transform="translate(763,401)"/>
<path d="M0 0 C0.66 0.66 1.32 1.32 2 2 C0.73046875 3.49739583 -0.5390625 4.99479167 -1.80859375 6.4921875 C-3.0878152 8.00594079 -3.0878152 8.00594079 -4 10 C-4.969375 10.2475 -5.93875 10.495 -6.9375 10.75 C-7.948125 11.1625 -8.95875 11.575 -10 12 C-10.33 12.99 -10.66 13.98 -11 15 C-11.33 15.99 -11.66 16.98 -12 18 C-14 18.66666667 -16 19.33333333 -18 20 C-18.33 20.99 -18.66 21.98 -19 23 C-19.33 23.99 -19.66 24.98 -20 26 C-22 26.66666667 -24 27.33333333 -26 28 C-26.33 28.99 -26.66 29.98 -27 31 C-27.33 31.99 -27.66 32.98 -28 34 C-30 34.66666667 -32 35.33333333 -34 36 C-34.33 36.99 -34.66 37.98 -35 39 C-35.33 39.99 -35.66 40.98 -36 42 C-39 43.125 -39 43.125 -42 44 C-43.42055068 46.00136244 -43.42055068 46.00136244 -44 48 C-44.99 47.67 -45.98 47.34 -47 47 C-31.49 31.49 -15.98 15.98 0 0 Z " fill="#EDEDED" transform="translate(1066,160)"/>
<path d="M0 0 C0.99 0.33 1.98 0.66 3 1 C2.0409375 1.8971875 2.0409375 1.8971875 1.0625 2.8125 C-1.20310389 4.90810337 -1.20310389 4.90810337 -2 8 C-2.969375 8.268125 -3.93875 8.53625 -4.9375 8.8125 C-5.948125 9.204375 -6.95875 9.59625 -8 10 C-8.33 10.99 -8.66 11.98 -9 13 C-9.33 13.99 -9.66 14.98 -10 16 C-12 16.66666667 -14 17.33333333 -16 18 C-16.33 18.99 -16.66 19.98 -17 21 C-17.33 21.99 -17.66 22.98 -18 24 C-20 24.66666667 -22 25.33333333 -24 26 C-24.309375 26.94875 -24.61875 27.8975 -24.9375 28.875 C-26.25711427 32.75621844 -27.6277649 33.37253392 -31.1484375 35.140625 C-31.75945312 35.42421875 -32.37046875 35.7078125 -33 36 C-34.33437874 36.66457174 -35.66784244 37.33098695 -37 38 C-32.75789864 32.93288701 -28.32282911 28.18776629 -23.6328125 23.53515625 C-22.95322479 22.85698349 -22.27363708 22.17881073 -21.57345581 21.48008728 C-19.42632998 19.33850859 -17.27573373 17.20045471 -15.125 15.0625 C-13.65862227 13.60114411 -12.1924742 12.13955774 -10.7265625 10.67773438 C-7.15369 7.11582065 -3.57770316 3.55706135 0 0 Z " fill="#ECECEC" transform="translate(200,1026)"/>
<path d="M0 0 C0.66 0.66 1.32 1.32 2 2 C0.02 4.31 -1.96 6.62 -4 9 C-3.34 9.66 -2.68 10.32 -2 11 C-2.375 13.125 -2.375 13.125 -3 15 C-4.216875 14.896875 -5.43375 14.79375 -6.6875 14.6875 C-10.45005227 14.65408479 -10.88803642 14.90669702 -14 17.5 C-14.99 18.7375 -14.99 18.7375 -16 20 C-15.67 20.66 -15.34 21.32 -15 22 C-16.423125 22.12375 -16.423125 22.12375 -17.875 22.25 C-18.90625 22.4975 -19.9375 22.745 -21 23 C-22.1500831 24.96672915 -22.1500831 24.96672915 -23 27 C-25.0546875 27.625 -25.0546875 27.625 -27 28 C-21.75541414 21.63409696 -15.97902678 15.86429388 -10.125 10.0625 C-9.14039081 9.08291763 -8.156014 8.10310163 -7.171875 7.12304688 C-4.78351797 4.74639748 -2.39284788 2.37212644 0 0 Z " fill="#F1F1F1" transform="translate(546,680)"/>
<path d="M0 0 C2.475 0.99 2.475 0.99 5 2 C5 5 5 5 3.80664062 6.53393555 C3.26201172 7.062854 2.71738281 7.59177246 2.15625 8.13671875 C1.56972656 8.71357422 0.98320313 9.29042969 0.37890625 9.88476562 C-0.24113281 10.47966797 -0.86117187 11.07457031 -1.5 11.6875 C-2.12003906 12.29400391 -2.74007812 12.90050781 -3.37890625 13.52539062 C-4.91264707 15.02373743 -6.45548198 16.51276493 -8 18 C-8.99 17.34 -9.98 16.68 -11 16 C-9.125 11.25 -9.125 11.25 -8 9 C-6.66666667 8.66666667 -5.33333333 8.33333333 -4 8 C-3.67 7.34 -3.34 6.68 -3 6 C-2.67 5.67 -2.34 5.34 -2 5 C-2 4.01 -2 3.02 -2 2 C-1.34 1.34 -0.68 0.68 0 0 Z " fill="#F3F3F3" transform="translate(787,377)"/>
<path d="M0 0 C0.66 0.33 1.32 0.66 2 1 C2 1.66 2 2.32 2 3 C0.64333109 3.86952525 -0.71404777 4.73795213 -2.0737915 5.60266113 C-6.32277868 8.68502472 -9.8747697 12.63558598 -13.5546875 16.359375 C-14.45623566 17.26375305 -15.35778381 18.1681311 -16.28665161 19.09991455 C-18.66742095 21.48995 -21.04376088 23.88421897 -23.41802979 26.28070068 C-25.84792571 28.73115875 -28.28358605 31.17587275 -30.71875 33.62109375 C-35.48446663 38.40881611 -40.2444218 43.20220828 -45 48 C-45.66 47.67 -46.32 47.34 -47 47 C-31.49 31.49 -15.98 15.98 0 0 Z " fill="#111111" transform="translate(396,777)"/>
<path d="M0 0 C2.475 0.99 2.475 0.99 5 2 C5 5 5 5 2.375 7.91796875 C1.25750594 9.01550756 0.13214357 10.10507895 -1 11.1875 C-1.57234375 11.74630859 -2.1446875 12.30511719 -2.734375 12.88085938 C-4.14962788 14.26073093 -5.57397155 15.63126734 -7 17 C-9.1519437 13.77208445 -9.20086443 12.71599191 -9 9 C-8.195625 8.87625 -7.39125 8.7525 -6.5625 8.625 C-5.716875 8.41875 -4.87125 8.2125 -4 8 C-3.67 7.34 -3.34 6.68 -3 6 C-2.67 5.67 -2.34 5.34 -2 5 C-2 4.01 -2 3.02 -2 2 C-1.34 1.34 -0.68 0.68 0 0 Z " fill="#F3F3F3" transform="translate(1139,25)"/>
<path d="M0 0 C2.475 0.99 2.475 0.99 5 2 C5 5 5 5 2.59375 7.69921875 C1.5700032 8.70302243 0.5383946 9.69885649 -0.5 10.6875 C-1.02464844 11.19861328 -1.54929687 11.70972656 -2.08984375 12.23632812 C-3.38660904 13.49772708 -4.69246117 14.74977212 -6 16 C-6.99 15.34 -7.98 14.68 -9 14 C-9.1875 11.375 -9.1875 11.375 -9 9 C-8.236875 8.938125 -7.47375 8.87625 -6.6875 8.8125 C-3.80693518 8.23442883 -3.80693518 8.23442883 -2.25 5.625 C-0.9266399 2.98385511 -0.9266399 2.98385511 0 0 Z " fill="#F3F3F3" transform="translate(907,257)"/>
<path d="M0 0 C2.475 0.99 2.475 0.99 5 2 C5 5 5 5 2.59375 7.69921875 C1.5700032 8.70302243 0.5383946 9.69885649 -0.5 10.6875 C-1.02464844 11.19861328 -1.54929687 11.70972656 -2.08984375 12.23632812 C-3.38660904 13.49772708 -4.69246117 14.74977212 -6 16 C-6.99 15.34 -7.98 14.68 -9 14 C-9.1875 11.375 -9.1875 11.375 -9 9 C-8.2575 8.979375 -7.515 8.95875 -6.75 8.9375 C-3.59352416 7.86142869 -3.277917 7.28750506 -1.6875 4.5 C0.0723832 1.49746693 0.0723832 1.49746693 0 0 Z " fill="#F3F3F3" transform="translate(651,513)"/>
<path d="M0 0 C2.475 0.99 2.475 0.99 5 2 C5 5.45665176 4.61368545 5.86186799 2.3125 8.25 C0.66796875 9.8359375 0.66796875 9.8359375 -1 11 C-3.875 10.875 -3.875 10.875 -6 10 C-6 9.34 -6 8.68 -6 8 C-4.35 7.34 -2.7 6.68 -1 6 C-1.66 5.67 -2.32 5.34 -3 5 C-1.125 1.125 -1.125 1.125 0 0 Z " fill="#F3F3F3" transform="translate(251,913)"/>
<path d="M0 0 C0.66 0.66 1.32 1.32 2 2 C1.57847656 2.47050781 1.15695312 2.94101562 0.72265625 3.42578125 C0.17480469 4.04839844 -0.37304688 4.67101562 -0.9375 5.3125 C-1.75541016 6.23482422 -1.75541016 6.23482422 -2.58984375 7.17578125 C-4.20081559 9.05241958 -4.20081559 9.05241958 -5 12 C-5.99 12.495 -5.99 12.495 -7 13 C-8.35308313 14.31328657 -9.68870078 15.64499081 -11 17 C-12.32 16.34 -13.64 15.68 -15 15 C-10.05 10.05 -5.1 5.1 0 0 Z " fill="#F0F0F0" transform="translate(562,664)"/>
<path d="M0 0 C0.33 0.99 0.66 1.98 1 3 C-0.65 3.66 -2.3 4.32 -4 5 C-4.1490712 7.0745356 -4.1490712 7.0745356 -3 9 C-4.03125 9.020625 -5.0625 9.04125 -6.125 9.0625 C-11.24419815 10.30101568 -13.0329289 12.83740574 -16 17 C-16.66 16.67 -17.32 16.34 -18 16 C-6.71655329 0 -6.71655329 0 0 0 Z " fill="#131313" transform="translate(439,422)"/>
<path d="M0 0 C0.66 0 1.32 0 2 0 C1.42176904 4.06225548 0.10882263 6.84762346 -2.0625 10.3125 C-2.61035156 11.19550781 -3.15820312 12.07851562 -3.72265625 12.98828125 C-4.14417969 13.65214844 -4.56570313 14.31601562 -5 15 C-6.50390625 13.66015625 -6.50390625 13.66015625 -8 12 C-7.9375 9.4375 -7.9375 9.4375 -7 7 C-5.6846659 6.29848848 -4.34882408 5.63474075 -3 5 C-1.97695052 3.34738161 -0.97383946 1.68208635 0 0 Z " fill="#F0F0F0" transform="translate(986,242)"/>
<path d="M0 0 C0.66 0.66 1.32 1.32 2 2 C0.73046875 3.49739583 -0.5390625 4.99479167 -1.80859375 6.4921875 C-3.0878152 8.00594079 -3.0878152 8.00594079 -4 10 C-4.969375 10.268125 -5.93875 10.53625 -6.9375 10.8125 C-7.948125 11.204375 -8.95875 11.59625 -10 12 C-10.68753301 13.65816784 -11.35561283 15.32459336 -12 17 C-14.625 17.8125 -14.625 17.8125 -17 18 C-11.72898586 11.58930713 -5.90871848 5.81409488 0 0 Z " fill="#EBEBEB" transform="translate(930,296)"/>
<path d="M0 0 C0.99 0.33 1.98 0.66 3 1 C2.01 1.495 2.01 1.495 1 2 C1 2.99 1 3.98 1 5 C0.05125 5.20625 -0.8975 5.4125 -1.875 5.625 C-3.421875 6.305625 -3.421875 6.305625 -5 7 C-5.309375 7.94875 -5.61875 8.8975 -5.9375 9.875 C-7.10851424 13.31915952 -7.49688143 13.62902696 -10.5 15.3125 C-11.655 15.869375 -12.81 16.42625 -14 17 C-14.66 17.33 -15.32 17.66 -16 18 C-14.6415798 14.95667235 -13.11536976 12.87690849 -10.7421875 10.546875 C-10.11699219 9.928125 -9.49179688 9.309375 -8.84765625 8.671875 C-8.19667969 8.03765625 -7.54570313 7.4034375 -6.875 6.75 C-6.21628906 6.1003125 -5.55757812 5.450625 -4.87890625 4.78125 C-3.25703357 3.18288273 -1.6306719 1.58938103 0 0 Z " fill="#ECECEC" transform="translate(1173,53)"/>
<path d="M0 0 C2.475 0.99 2.475 0.99 5 2 C5 5 5 5 3.6875 6.38671875 C2.125 7.59114583 0.5625 8.79557292 -1 10 C-1.66 8.68 -2.32 7.36 -3 6 C-2.67 5.67 -2.34 5.34 -2 5 C-2 4.01 -2 3.02 -2 2 C-1.34 1.34 -0.68 0.68 0 0 Z " fill="#F4F4F4" transform="translate(259,905)"/>
<path d="M0 0 C2.475 0.99 2.475 0.99 5 2 C5 5 5 5 3.6875 6.38671875 C2.125 7.59114583 0.5625 8.79557292 -1 10 C-1.66 8.68 -2.32 7.36 -3 6 C-2.67 5.67 -2.34 5.34 -2 5 C-2 4.01 -2 3.02 -2 2 C-1.34 1.34 -0.68 0.68 0 0 Z " fill="#F4F4F4" transform="translate(347,817)"/>
<path d="M0 0 C2.475 0.99 2.475 0.99 5 2 C5 5 5 5 3.6875 6.38671875 C2.125 7.59114583 0.5625 8.79557292 -1 10 C-1.66 8.68 -2.32 7.36 -3 6 C-2.67 5.67 -2.34 5.34 -2 5 C-2 4.01 -2 3.02 -2 2 C-1.34 1.34 -0.68 0.68 0 0 Z " fill="#F4F4F4" transform="translate(667,497)"/>
<path d="M0 0 C0.66 0.66 1.32 1.32 2 2 C0.73046875 3.49739583 -0.5390625 4.99479167 -1.80859375 6.4921875 C-3.0878152 8.00594079 -3.0878152 8.00594079 -4 10 C-4.969375 10.28875 -5.93875 10.5775 -6.9375 10.875 C-10.10056957 11.6889291 -10.10056957 11.6889291 -11.375 14.125 C-11.58125 14.74375 -11.7875 15.3625 -12 16 C-12.99 15.67 -13.98 15.34 -15 15 C-10.05 10.05 -5.1 5.1 0 0 Z " fill="#ECECEC" transform="translate(410,816)"/>
<path d="M0 0 C0.66 0.66 1.32 1.32 2 2 C0.73046875 3.49739583 -0.5390625 4.99479167 -1.80859375 6.4921875 C-3.0878152 8.00594079 -3.0878152 8.00594079 -4 10 C-4.969375 10.28875 -5.93875 10.5775 -6.9375 10.875 C-10.10056957 11.6889291 -10.10056957 11.6889291 -11.375 14.125 C-11.58125 14.74375 -11.7875 15.3625 -12 16 C-12.99 15.67 -13.98 15.34 -15 15 C-10.05 10.05 -5.1 5.1 0 0 Z " fill="#ECECEC" transform="translate(698,528)"/>
<path d="M0 0 C0.66 0.66 1.32 1.32 2 2 C0.73046875 3.49739583 -0.5390625 4.99479167 -1.80859375 6.4921875 C-3.0878152 8.00594079 -3.0878152 8.00594079 -4 10 C-4.969375 10.28875 -5.93875 10.5775 -6.9375 10.875 C-10.10056957 11.6889291 -10.10056957 11.6889291 -11.375 14.125 C-11.58125 14.74375 -11.7875 15.3625 -12 16 C-12.99 15.67 -13.98 15.34 -15 15 C-10.05 10.05 -5.1 5.1 0 0 Z " fill="#EDEDED" transform="translate(946,280)"/>
<path d="M0 0 C2.6875 -0.3125 2.6875 -0.3125 5 0 C5.33 1.32 5.66 2.64 6 4 C3.03 6.475 3.03 6.475 0 9 C-0.99 7.68 -1.98 6.36 -3 5 C-1.8125 2.5 -1.8125 2.5 0 0 Z " fill="#0D0D0D" transform="translate(844,576)"/>
<path d="M0 0 C0.5887793 0.2261499 1.17755859 0.4522998 1.78417969 0.68530273 C1.00042969 0.89155273 0.21667969 1.09780273 -0.59082031 1.31030273 C-1.45707031 1.76405273 -2.32332031 2.21780273 -3.21582031 2.68530273 C-3.52519531 3.67530273 -3.83457031 4.66530273 -4.15332031 5.68530273 C-4.50394531 6.67530273 -4.85457031 7.66530273 -5.21582031 8.68530273 C-8.21582031 9.81030273 -8.21582031 9.81030273 -11.21582031 10.68530273 C-12.63637099 12.68666517 -12.63637099 12.68666517 -13.21582031 14.68530273 C-14.20582031 14.35530273 -15.19582031 14.02530273 -16.21582031 13.68530273 C-13.98630282 11.31098245 -11.72922831 8.96480129 -9.46582031 6.62280273 C-8.83160156 5.94668945 -8.19738281 5.27057617 -7.54394531 4.57397461 C-6.92519531 3.93911133 -6.30644531 3.30424805 -5.66894531 2.65014648 C-5.10336914 2.05838623 -4.53779297 1.46662598 -3.95507812 0.85693359 C-2.21582031 -0.31469727 -2.21582031 -0.31469727 0 0 Z " fill="#EDEDED" transform="translate(1083.2158203125,145.314697265625)"/>
<path d="M0 0 C0 0.66 0 1.32 0 2 C0.99 2.33 1.98 2.66 3 3 C2.01 3 1.02 3 0 3 C0 4.32 0 5.64 0 7 C-1.98 7.66 -3.96 8.32 -6 9 C-6 8.34 -6 7.68 -6 7 C-6.66 6.67 -7.32 6.34 -8 6 C-7.34 5.01 -6.68 4.02 -6 3 C-5.34 3 -4.68 3 -4 3 C-4 2.34 -4 1.68 -4 1 C-2 0 -2 0 0 0 Z " fill="#F7F7F7" transform="translate(1007,224)"/>
<path d="M0 0 C0.66 0.33 1.32 0.66 2 1 C1.34 1.928125 0.68 2.85625 0 3.8125 C-2.26574554 6.79636556 -2.26574554 6.79636556 -2 10 C-4 11.6875 -4 11.6875 -6 13 C-6.33 12.01 -6.66 11.02 -7 10 C-7.99 10 -8.98 10 -10 10 C-3.84965831 2.51708428 -3.84965831 2.51708428 0 0 Z M-5 7 C-5.33 7.66 -5.66 8.32 -6 9 C-5.34 9 -4.68 9 -4 9 C-4.33 8.34 -4.66 7.68 -5 7 Z " fill="#0A0A0A" transform="translate(737,178)"/>
<path d="M0 0 C2.475 0.99 2.475 0.99 5 2 C5 5 5 5 3.6875 6.38671875 C2.125 7.59114583 0.5625 8.79557292 -1 10 C-2.1875 8.3125 -2.1875 8.3125 -3 6 C-1.625 3.3125 -1.625 3.3125 0 1 C0 0.67 0 0.34 0 0 Z " fill="#F3F3F3" transform="translate(307,857)"/>
<path d="M0 0 C2.475 0.99 2.475 0.99 5 2 C5 5 5 5 3.6875 6.38671875 C2.125 7.59114583 0.5625 8.79557292 -1 10 C-2.1875 8.3125 -2.1875 8.3125 -3 6 C-1.625 3.3125 -1.625 3.3125 0 1 C0 0.67 0 0.34 0 0 Z " fill="#F3F3F3" transform="translate(915,249)"/>
<path d="M0 0 C0.99 0.33 1.98 0.66 3 1 C2.2884375 1.928125 2.2884375 1.928125 1.5625 2.875 C-0.02417441 4.90705546 -0.02417441 4.90705546 -1 7 C-1.969375 7.28875 -2.93875 7.5775 -3.9375 7.875 C-7.10056957 8.6889291 -7.10056957 8.6889291 -8.375 11.125 C-8.58125 11.74375 -8.7875 12.3625 -9 13 C-9.99 12.67 -10.98 12.34 -12 12 C-8.04 8.04 -4.08 4.08 0 0 Z " fill="#ECECEC" transform="translate(575,651)"/>
<path d="M0 0 C2.475 0.99 2.475 0.99 5 2 C5 5 5 5 3.6875 6.38671875 C2.125 7.59114583 0.5625 8.79557292 -1 10 C-1.66 8.68 -2.32 7.36 -3 6 C-2.34 6 -1.68 6 -1 6 C-0.67 4.02 -0.34 2.04 0 0 Z " fill="#F3F3F3" transform="translate(659,505)"/>
<path d="M0 0 C2.475 0.99 2.475 0.99 5 2 C5 5 5 5 3.6875 6.38671875 C2.125 7.59114583 0.5625 8.79557292 -1 10 C-1.66 8.68 -2.32 7.36 -3 6 C-2.34 6 -1.68 6 -1 6 C-0.67 4.02 -0.34 2.04 0 0 Z " fill="#F3F3F3" transform="translate(771,393)"/>
<path d="M0 0 C2.475 0.99 2.475 0.99 5 2 C5 2.99 5 3.98 5 5 C3 6.6875 3 6.6875 1 8 C-0.32 7.01 -1.64 6.02 -3 5 C-1.125 1.125 -1.125 1.125 0 0 Z " fill="#F4F4F4" transform="translate(283,881)"/>
<path d="M0 0 C0.99 0 1.98 0 3 0 C3.66 0.66 4.32 1.32 5 2 C2.69 4.31 0.38 6.62 -2 9 C-2.99 8.34 -3.98 7.68 -5 7 C-4.1875 5.0625 -4.1875 5.0625 -3 3 C-2.01 2.67 -1.02 2.34 0 2 C0 1.34 0 0.68 0 0 Z " fill="#F1F1F1" transform="translate(391,776)"/>
<path d="M0 0 C2.475 0.99 2.475 0.99 5 2 C5 2.99 5 3.98 5 5 C3 6.6875 3 6.6875 1 8 C-0.32 7.01 -1.64 6.02 -3 5 C-1.125 1.125 -1.125 1.125 0 0 Z " fill="#F4F4F4" transform="translate(627,537)"/>
<path d="M0 0 C2.475 0.99 2.475 0.99 5 2 C5 2.99 5 3.98 5 5 C3 6.6875 3 6.6875 1 8 C-0.32 7.01 -1.64 6.02 -3 5 C-1.125 1.125 -1.125 1.125 0 0 Z " fill="#F4F4F4" transform="translate(795,369)"/>
<path d="M0 0 C0.66 0.66 1.32 1.32 2 2 C1.34 2.66 0.68 3.32 0 4 C0.32041397 6.60280568 0.32041397 6.60280568 1 9 C0.34 9 -0.32 9 -1 9 C-1.33 9.66 -1.66 10.32 -2 11 C-2.66 10.34 -3.32 9.68 -4 9 C-6.10820797 9.3185177 -6.10820797 9.3185177 -8 10 C-7.04367001 8.70684939 -6.08486149 7.41553147 -5.125 6.125 C-4.59132813 5.40570312 -4.05765625 4.68640625 -3.5078125 3.9453125 C-2 2 -2 2 0 0 Z M-11 11 C-9 12 -9 12 -9 12 Z " fill="#EFEFEF" transform="translate(758,820)"/>
<path d="M0 0 C2.475 0.99 2.475 0.99 5 2 C5 2.99 5 3.98 5 5 C2.5 7.1875 2.5 7.1875 0 9 C-1.125 7.3125 -1.125 7.3125 -2 5 C-1.125 2.25 -1.125 2.25 0 0 Z " fill="#F4F4F4" transform="translate(163,1001)"/>
<path d="M0 0 C2.475 0.99 2.475 0.99 5 2 C5 2.99 5 3.98 5 5 C2.5 7.1875 2.5 7.1875 0 9 C-0.99 8.01 -1.98 7.02 -3 6 C-2.34 6 -1.68 6 -1 6 C-0.67 4.02 -0.34 2.04 0 0 Z " fill="#F3F3F3" transform="translate(1019,145)"/>
<path d="M0 0 C0.33 0.66 0.66 1.32 1 2 C0.34 1.67 -0.32 1.34 -1 1 C-0.67 0.67 -0.34 0.34 0 0 Z M-3 2 C-2.34 2.33 -1.68 2.66 -1 3 C-1.66 5.31 -2.32 7.62 -3 10 C-5.31 9.01 -7.62 8.02 -10 7 C-5.25 3.125 -5.25 3.125 -3 2 Z " fill="#E9E9E9" transform="translate(1066,325)"/>
<path d="M0 0 C0.99 1.32 1.98 2.64 3 4 C0.03 6.475 0.03 6.475 -3 9 C-3.79953138 5.71303767 -4.09658936 4.28976808 -3 1 C-2.01 0.67 -1.02 0.34 0 0 Z " fill="#F1F1F1" transform="translate(486,681)"/>
<path d="M0 0 C0.99 1.32 1.98 2.64 3 4 C0.03 6.475 0.03 6.475 -3 9 C-3.79953138 5.71303767 -4.09658936 4.28976808 -3 1 C-2.01 0.67 -1.02 0.34 0 0 Z " fill="#F1F1F1" transform="translate(494,673)"/>
<path d="M0 0 C0.99 1.32 1.98 2.64 3 4 C0.03 6.475 0.03 6.475 -3 9 C-3.79953138 5.71303767 -4.09658936 4.28976808 -3 1 C-2.01 0.67 -1.02 0.34 0 0 Z " fill="#F1F1F1" transform="translate(502,665)"/>
<path d="M0 0 C0.99 0.33 1.98 0.66 3 1 C3.8125 3.1875 3.8125 3.1875 4 6 C1.5625 8.8125 1.5625 8.8125 -1 11 C-1.66 10.67 -2.32 10.34 -3 10 C-1.35 8.35 0.3 6.7 2 5 C0.02 5 -1.96 5 -4 5 C-2.25 1.125 -2.25 1.125 0 0 Z " fill="#0D0D0D" transform="translate(965,201)"/>
<path d="M0 0 C2.475 0.99 2.475 0.99 5 2 C5 2.99 5 3.98 5 5 C3 6.6875 3 6.6875 1 8 C-0.42944945 5.64561267 -1.08661261 4.51967567 -0.625 1.75 C-0.41875 1.1725 -0.2125 0.595 0 0 Z " fill="#F3F3F3" transform="translate(531,633)"/>
<path d="M0 0 C2.475 0.99 2.475 0.99 5 2 C5 2.99 5 3.98 5 5 C3 6.6875 3 6.6875 1 8 C-0.42944945 5.64561267 -1.08661261 4.51967567 -0.625 1.75 C-0.41875 1.1725 -0.2125 0.595 0 0 Z " fill="#F3F3F3" transform="translate(675,489)"/>
<path d="M0 0 C0.99 1.32 1.98 2.64 3 4 C0.03 6.475 0.03 6.475 -3 9 C-3.66 7.68 -4.32 6.36 -5 5 C-3.625 3.5 -3.625 3.5 -2 2 C-1.34 2 -0.68 2 0 2 C0 1.34 0 0.68 0 0 Z " fill="#F1F1F1" transform="translate(407,760)"/>
<path d="M0 0 C0.66 0.33 1.32 0.66 2 1 C1.01 2.485 1.01 2.485 0 4 C0.33 4.66 0.66 5.32 1 6 C-0.65 6.66 -2.3 7.32 -4 8 C-4.66 6.68 -5.32 5.36 -6 4 C-4.03617993 2.49440461 -2.21736634 1.10868317 0 0 Z " fill="#0E0E0E" transform="translate(689,736)"/>
<path d="M0 0 C1.65 0.99 3.3 1.98 5 3 C3.35 4.65 1.7 6.3 0 8 C-1.0625 6.1875 -1.0625 6.1875 -2 4 C-1 1 -1 1 0 0 Z " fill="#F2F2F2" transform="translate(892,273)"/>
<path d="M0 0 C0.66 0.66 1.32 1.32 2 2 C1.38125 2.2475 0.7625 2.495 0.125 2.75 C-2.35068687 4.20628639 -2.95125002 5.37812506 -4 8 C-4.33 7.01 -4.66 6.02 -5 5 C-7.97 7.475 -7.97 7.475 -11 10 C-11 7 -11 7 -9.875 5.4375 C-7.43660108 3.56806083 -4.91095165 2.92902712 -2 2 C-1.34 1.34 -0.68 0.68 0 0 Z " fill="#E4E4E4" transform="translate(993,237)"/>
<path d="M0 0 C1.65 0.99 3.3 1.98 5 3 C3.35 4.65 1.7 6.3 0 8 C-1.0625 6.1875 -1.0625 6.1875 -2 4 C-1 1 -1 1 0 0 Z " fill="#F2F2F2" transform="translate(932,233)"/>
<path d="M0 0 C1.65 0.99 3.3 1.98 5 3 C3.35 4.65 1.7 6.3 0 8 C-1.0625 6.1875 -1.0625 6.1875 -2 4 C-1 1 -1 1 0 0 Z " fill="#F2F2F2" transform="translate(940,225)"/>
<path d="M0 0 C1.65 0.99 3.3 1.98 5 3 C3.35 4.65 1.7 6.3 0 8 C-1.0625 6.1875 -1.0625 6.1875 -2 4 C-1 1 -1 1 0 0 Z " fill="#F2F2F2" transform="translate(948,217)"/>
<path d="M0 0 C1.65 0.99 3.3 1.98 5 3 C3.35 4.65 1.7 6.3 0 8 C-1.0625 6.1875 -1.0625 6.1875 -2 4 C-1 1 -1 1 0 0 Z " fill="#F2F2F2" transform="translate(1028,137)"/>
<path d="M0 0 C1.65 0.99 3.3 1.98 5 3 C3.35 4.65 1.7 6.3 0 8 C-1.0625 6.1875 -1.0625 6.1875 -2 4 C-1 1 -1 1 0 0 Z " fill="#F2F2F2" transform="translate(1036,129)"/>
<path d="M0 0 C2.475 0.99 2.475 0.99 5 2 C5 2.99 5 3.98 5 5 C3 6.6875 3 6.6875 1 8 C-0.42944945 5.64561267 -1.08661261 4.51967567 -0.625 1.75 C-0.41875 1.1725 -0.2125 0.595 0 0 Z " fill="#F2F2F2" transform="translate(267,897)"/>
<path d="M0 0 C2.475 0.99 2.475 0.99 5 2 C5 2.99 5 3.98 5 5 C3 6.6875 3 6.6875 1 8 C-0.42944945 5.64561267 -1.08661261 4.51967567 -0.625 1.75 C-0.41875 1.1725 -0.2125 0.595 0 0 Z " fill="#F2F2F2" transform="translate(275,889)"/>
<path d="M0 0 C2.475 0.99 2.475 0.99 5 2 C5 2.99 5 3.98 5 5 C3 6.6875 3 6.6875 1 8 C-0.42944945 5.64561267 -1.08661261 4.51967567 -0.625 1.75 C-0.41875 1.1725 -0.2125 0.595 0 0 Z " fill="#F3F3F3" transform="translate(291,873)"/>
<path d="M0 0 C1.32 0.33 2.64 0.66 4 1 C2.35 4.3 0.7 7.6 -1 11 C-1.66 10.01 -2.32 9.02 -3 8 C-1.55555556 1.55555556 -1.55555556 1.55555556 0 0 Z " fill="#EBEBEB" transform="translate(419,716)"/>
<path d="M0 0 C2.475 0.99 2.475 0.99 5 2 C5 2.99 5 3.98 5 5 C3 6.6875 3 6.6875 1 8 C-0.42944945 5.64561267 -1.08661261 4.51967567 -0.625 1.75 C-0.41875 1.1725 -0.2125 0.595 0 0 Z " fill="#F2F2F2" transform="translate(803,361)"/>
<path d="M0 0 C-1.33333333 2.66666667 -2.66666667 5.33333333 -4 8 C-5.65 8 -7.3 8 -9 8 C-8.01437243 4.68470727 -7.34552581 3.25050621 -4.5 1.1875 C-2 0 -2 0 0 0 Z " fill="#0E0E0E" transform="translate(1007,231)"/>
<path d="M0 0 C0 3.99282941 -1.47808076 5.15331592 -4 8.1875 C-4.7425 9.08855469 -5.485 9.98960937 -6.25 10.91796875 C-6.8275 11.60503906 -7.405 12.29210937 -8 13 C-8.66 12.34 -9.32 11.68 -10 11 C-8.52116808 9.35386588 -7.04192523 7.70810092 -5.5625 6.0625 C-4.73878906 5.14597656 -3.91507813 4.22945312 -3.06640625 3.28515625 C-1 1 -1 1 0 0 Z " fill="#1C1C1C" transform="translate(676,744)"/>
<path d="M0 0 C0.33 0.66 0.66 1.32 1 2 C-1.23315484 5.40849949 -3.49707804 6.98581987 -7 9 C-8.75149165 10.58245275 -8.75149165 10.58245275 -10 12 C-10.66 11.67 -11.32 11.34 -12 11 C-10.75323147 9.72599623 -9.5024352 8.45593346 -8.25 7.1875 C-7.55390625 6.47980469 -6.8578125 5.77210938 -6.140625 5.04296875 C-4.18571355 3.17724121 -2.19661447 1.56830358 0 0 Z " fill="#1F1F1F" transform="translate(193,928)"/>
<path d="M0 0 C1.32 0.66 2.64 1.32 4 2 C2.35 3.65 0.7 5.3 -1 7 C-1.99 6.01 -2.98 5.02 -4 4 C-2.68 2.68 -1.36 1.36 0 0 Z " fill="#EEEEEE" transform="translate(763,814)"/>
<path d="M0 0 C0.33 0 0.66 0 1 0 C1 3.96 1 7.92 1 12 C1.99 12.33 2.98 12.66 4 13 C2.35 14.65 0.7 16.3 -1 18 C-0.505 9.09 -0.505 9.09 0 0 Z " fill="#BFBFBF" transform="translate(1012,144)"/>
<path d="M0 0 C0.66 0.66 1.32 1.32 2 2 C1.3503125 2.5878125 1.3503125 2.5878125 0.6875 3.1875 C-1.26366224 5.28319278 -2.59010162 7.51589333 -4 10 C-4.99 9.67 -5.98 9.34 -7 9 C-6.02180976 7.68677212 -5.0424189 6.37443848 -4.0625 5.0625 C-3.51722656 4.33160156 -2.97195313 3.60070312 -2.41015625 2.84765625 C-1 1 -1 1 0 0 Z M-9 9 C-7 10 -7 10 -7 10 Z " fill="#E7E7E7" transform="translate(814,258)"/>
<path d="M0 0 C1.32 0.33 2.64 0.66 4 1 C2.02 3.31 0.04 5.62 -2 8 C-2.66 7.67 -3.32 7.34 -4 7 C-3.6875 5.0625 -3.6875 5.0625 -3 3 C-2.01 2.67 -1.02 2.34 0 2 C0 1.34 0 0.68 0 0 Z " fill="#EEEEEE" transform="translate(146,1022)"/>
<path d="M0 0 C0.99 0.33 1.98 0.66 3 1 C2.67 1.99 2.34 2.98 2 4 C2.99 4.33 3.98 4.66 5 5 C4.67 5.99 4.34 6.98 4 8 C2.02 6.68 0.04 5.36 -2 4 C-1.34 2.68 -0.68 1.36 0 0 Z " fill="#101010" transform="translate(236,955)"/>
<path d="M0 0 C0.33 1.32 0.66 2.64 1 4 C-0.32 4.99 -1.64 5.98 -3 7 C-3.99 6.01 -4.98 5.02 -6 4 C-2.25 0 -2.25 0 0 0 Z " fill="#EFEFEF" transform="translate(207,778)"/>
<path d="M0 0 C0.99 0.99 1.98 1.98 3 3 C2.34 4.98 1.68 6.96 1 9 C-0.5625 7.8125 -0.5625 7.8125 -2 6 C-1.57894737 1.57894737 -1.57894737 1.57894737 0 0 Z " fill="#F6F6F6" transform="translate(980,248)"/>
<path d="M0 0 C0 3.21812786 -0.05758039 4.4664092 -2 7 C-5.625 7.75 -5.625 7.75 -9 8 C-6.35039045 4.36905358 -3.98175544 2.10148204 0 0 Z " fill="#141414" transform="translate(214,777)"/>
<path d="M0 0 C0.66 0.66 1.32 1.32 2 2 C1.34 2 0.68 2 0 2 C-0.0825 2.61875 -0.165 3.2375 -0.25 3.875 C-1 6 -1 6 -3 7.125 C-3.66 7.41375 -4.32 7.7025 -5 8 C-5.33 8.66 -5.66 9.32 -6 10 C-6.99 9.67 -7.98 9.34 -9 9 C-6.03 6.03 -3.06 3.06 0 0 Z " fill="#0F0F0F" transform="translate(684,489)"/>
<path d="M0 0 C1.32 0 2.64 0 4 0 C4.66 1.65 5.32 3.3 6 5 C4.68 5.33 3.36 5.66 2 6 C1.01 4.35 0.02 2.7 -1 1 C-0.67 0.67 -0.34 0.34 0 0 Z " fill="#F1F1F1" transform="translate(738,394)"/>
<path d="M0 0 C0.66 0.66 1.32 1.32 2 2 C1.01 2.33 0.02 2.66 -1 3 C-0.67 4.32 -0.34 5.64 0 7 C-0.66 7 -1.32 7 -2 7 C-2.33 7.66 -2.66 8.32 -3 9 C-3.66 7.68 -4.32 6.36 -5 5 C-3.35 3.35 -1.7 1.7 0 0 Z " fill="#E7E7E7" transform="translate(517,709)"/>
<path d="M0 0 C0.33 0.99 0.66 1.98 1 3 C0.34 3 -0.32 3 -1 3 C-1.33 3.99 -1.66 4.98 -2 6 C-2.66 5.34 -3.32 4.68 -4 4 C-2.68 2.68 -1.36 1.36 0 0 Z M-9 6 C-6.525 6.495 -6.525 6.495 -4 7 C-4.99 7.66 -5.98 8.32 -7 9 C-7.66 8.67 -8.32 8.34 -9 8 C-9 7.34 -9 6.68 -9 6 Z " fill="#F7F7F7" transform="translate(527,702)"/>
<path d="M0 0 C0.66 0.66 1.32 1.32 2 2 C1.0479279 3.00596297 0.08812654 4.00461563 -0.875 5 C-1.40867187 5.556875 -1.94234375 6.11375 -2.4921875 6.6875 C-4 8 -4 8 -6 8 C-6.33 8.66 -6.66 9.32 -7 10 C-6.42424336 6.64749299 -5.40693737 5.06181371 -2.9375 2.75 C-2.38964844 2.22921875 -1.84179688 1.7084375 -1.27734375 1.171875 C-0.64505859 0.59179688 -0.64505859 0.59179688 0 0 Z " fill="#E9E9E9" transform="translate(658,568)"/>
<path d="M0 0 C0.33 0.66 0.66 1.32 1 2 C-0.98 4.31 -2.96 6.62 -5 9 C-6.32 8.67 -7.64 8.34 -9 8 C-6.03 5.36 -3.06 2.72 0 0 Z " fill="#EAEAEA" transform="translate(1148,131)"/>
<path d="M0 0 C1.65 1.65 3.3 3.3 5 5 C4.01 5.66 3.02 6.32 2 7 C0.68 5.68 -0.64 4.36 -2 3 C-1 1 -1 1 0 0 Z " fill="#121212" transform="translate(990,105)"/>
<path d="M0 0 C2.3125 0.1875 2.3125 0.1875 4 1 C3.67 1.99 3.34 2.98 3 4 C2.01 4 1.02 4 0 4 C-0.66 4.66 -1.32 5.32 -2 6 C-2.99 5.67 -3.98 5.34 -5 5 C-2.75 2.4375 -2.75 2.4375 0 0 Z " fill="#EAEAEA" transform="translate(432,794)"/>
<path d="M0 0 C-0.33 0.99 -0.66 1.98 -1 3 C-1.99 3.33 -2.98 3.66 -4 4 C-4.33 4.99 -4.66 5.98 -5 7 C-7.0625 8.6875 -7.0625 8.6875 -9 10 C-9 5.69032084 -6.83274712 4.10253255 -4 1 C-2 0 -2 0 0 0 Z " fill="#EDEDED" transform="translate(912,369)"/>
<path d="M0 0 C2.34058637 2.12780579 3.70700306 4.11562221 5 7 C2 7 2 7 0.61328125 5.6875 C-0.59114583 4.125 -1.79557292 2.5625 -3 1 C-2.01 0.67 -1.02 0.34 0 0 Z " fill="#EDEDED" transform="translate(996,106)"/>
<path d="M0 0 C0.66 0.66 1.32 1.32 2 2 C0.02 3.98 -1.96 5.96 -4 8 C-4.99 7.67 -5.98 7.34 -7 7 C-4.69 4.69 -2.38 2.38 0 0 Z " fill="#ECECEC" transform="translate(394,832)"/>
<path d="M0 0 C0.66 0.66 1.32 1.32 2 2 C0.02 3.98 -1.96 5.96 -4 8 C-4.99 7.67 -5.98 7.34 -7 7 C-4.69 4.69 -2.38 2.38 0 0 Z " fill="#EBEBEB" transform="translate(418,808)"/>
<path d="M0 0 C0.66 0.66 1.32 1.32 2 2 C0.02 3.98 -1.96 5.96 -4 8 C-4.99 7.67 -5.98 7.34 -7 7 C-4.69 4.69 -2.38 2.38 0 0 Z " fill="#ECECEC" transform="translate(426,800)"/>
<path d="M0 0 C1.4370809 -0.05422947 2.87475462 -0.09289723 4.3125 -0.125 C5.11300781 -0.14820313 5.91351563 -0.17140625 6.73828125 -0.1953125 C9 0 9 0 12 2 C10.68 2.99 9.36 3.98 8 5 C7.34 4.34 6.68 3.68 6 3 C6.33 2.67 6.66 2.34 7 2 C4.69 1.67 2.38 1.34 0 1 C0 0.67 0 0.34 0 0 Z " fill="#C5C5C5" transform="translate(464,731)"/>
<path d="M0 0 C0.66 0.66 1.32 1.32 2 2 C0.02 3.98 -1.96 5.96 -4 8 C-4.99 7.67 -5.98 7.34 -7 7 C-4.69 4.69 -2.38 2.38 0 0 Z " fill="#ECECEC" transform="translate(546,680)"/>
<path d="M0 0 C0.66 0.66 1.32 1.32 2 2 C0.02 3.98 -1.96 5.96 -4 8 C-4.99 7.67 -5.98 7.34 -7 7 C-4.69 4.69 -2.38 2.38 0 0 Z " fill="#ECECEC" transform="translate(666,560)"/>
<path d="M0 0 C0.66 0.66 1.32 1.32 2 2 C0.02 3.98 -1.96 5.96 -4 8 C-4.99 7.67 -5.98 7.34 -7 7 C-4.69 4.69 -2.38 2.38 0 0 Z " fill="#ECECEC" transform="translate(674,552)"/>
<path d="M0 0 C0.66 0.66 1.32 1.32 2 2 C0.02 3.98 -1.96 5.96 -4 8 C-4.99 7.67 -5.98 7.34 -7 7 C-4.69 4.69 -2.38 2.38 0 0 Z " fill="#ECECEC" transform="translate(682,544)"/>
<path d="M0 0 C0.66 0.66 1.32 1.32 2 2 C0.02 3.98 -1.96 5.96 -4 8 C-4.99 7.67 -5.98 7.34 -7 7 C-4.69 4.69 -2.38 2.38 0 0 Z " fill="#ECECEC" transform="translate(706,520)"/>
<path d="M0 0 C0.66 0.66 1.32 1.32 2 2 C0.02 3.98 -1.96 5.96 -4 8 C-4.99 7.67 -5.98 7.34 -7 7 C-4.69 4.69 -2.38 2.38 0 0 Z " fill="#EBEBEB" transform="translate(770,456)"/>
<path d="M0 0 C0.66 0.66 1.32 1.32 2 2 C0.02 3.98 -1.96 5.96 -4 8 C-4.99 7.67 -5.98 7.34 -7 7 C-4.69 4.69 -2.38 2.38 0 0 Z " fill="#ECECEC" transform="translate(778,448)"/>
<path d="M0 0 C0.66 0.66 1.32 1.32 2 2 C0.02 3.98 -1.96 5.96 -4 8 C-4.99 7.67 -5.98 7.34 -7 7 C-4.69 4.69 -2.38 2.38 0 0 Z " fill="#ECECEC" transform="translate(954,272)"/>
<path d="M0 0 C0.66 0.66 1.32 1.32 2 2 C0.02 3.98 -1.96 5.96 -4 8 C-4.99 7.67 -5.98 7.34 -7 7 C-4.69 4.69 -2.38 2.38 0 0 Z " fill="#EBEBEB" transform="translate(962,264)"/>
<path d="M0 0 C0.66 0.33 1.32 0.66 2 1 C1.67 1.99 1.34 2.98 1 4 C-0.32303717 4.3721042 -1.65737935 4.70630173 -3 5 C-3.33 5.66 -3.66 6.32 -4 7 C-4.66 6.67 -5.32 6.34 -6 6 C-6 5.34 -6 4.68 -6 4 C-4.03852126 2.61061923 -2.03833424 1.2739589 0 0 Z " fill="#EEEEEE" transform="translate(1023,264)"/>
<path d="M0 0 C-0.99 1.485 -0.99 1.485 -2 3 C-2.61875 2.814375 -3.2375 2.62875 -3.875 2.4375 C-6.04160178 1.76313824 -6.04160178 1.76313824 -8 3 C-8.33 2.01 -8.66 1.02 -9 0 C-5.93109813 -1.53445094 -3.29905734 -0.54984289 0 0 Z " fill="#0E0E0E" transform="translate(789,172)"/>
<path d="M0 0 C1 2 1 2 0.3125 4.5625 C-1 7 -1 7 -3.125 7.8125 C-3.74375 7.874375 -4.3625 7.93625 -5 8 C-3.8141763 4.62496331 -2.72426311 2.35277269 0 0 Z " fill="#181818" transform="translate(427,712)"/>
<path d="M0 0 C0.59296875 0.22558594 1.1859375 0.45117188 1.796875 0.68359375 C1.013125 0.93109375 0.229375 1.17859375 -0.578125 1.43359375 C-3.52629608 2.83748474 -4.1056027 3.69035112 -5.203125 6.68359375 C-6.193125 6.35359375 -7.183125 6.02359375 -8.203125 5.68359375 C-7.30284912 4.64827649 -6.38219465 3.6306521 -5.453125 2.62109375 C-4.68742187 1.76837891 -4.68742187 1.76837891 -3.90625 0.8984375 C-2.203125 -0.31640625 -2.203125 -0.31640625 0 0 Z " fill="#E6E6E6" transform="translate(1083.203125,145.31640625)"/>
<path d="M0 0 C0.66 0.33 1.32 0.66 2 1 C-0.80804268 3.96404505 -3.18315774 6.44499019 -7 8 C-5.50902342 4.2047869 -3.24299151 2.38957269 0 0 Z " fill="#ECECEC" transform="translate(760,208)"/>
<path d="M0 0 C0.66 0.33 1.32 0.66 2 1 C2 1.66 2 2.32 2 3 C-3.29411765 7 -3.29411765 7 -7 7 C-4.69 4.69 -2.38 2.38 0 0 Z " fill="#101010" transform="translate(316,857)"/>
<path d="M0 0 C0 0.99 0 1.98 0 3 C0.66 3.66 1.32 4.32 2 5 C1.67 5.66 1.34 6.32 1 7 C-0.65 6.67 -2.3 6.34 -4 6 C-4 5.01 -4 4.02 -4 3 C-2 1.3125 -2 1.3125 0 0 Z " fill="#0F0F0F" transform="translate(726,800)"/>
<path d="M0 0 C2.64 0.66 5.28 1.32 8 2 C8 2.66 8 3.32 8 4 C4.88742431 4 2.89234315 3.82638376 0 3 C0 2.01 0 1.02 0 0 Z " fill="#222222" transform="translate(723,732)"/>
<path d="M0 0 C0.33 1.32 0.66 2.64 1 4 C0.01 4.495 0.01 4.495 -1 5 C-1.99 4.67 -2.98 4.34 -4 4 C-4.99 4.495 -4.99 4.495 -6 5 C-3.74193548 0 -3.74193548 0 0 0 Z " fill="#EAEAEA" transform="translate(463,451)"/>
<path d="M0 0 C1.9375 0.25 1.9375 0.25 4 1 C4.66 1.99 5.32 2.98 6 4 C3 4 3 4 1 3 C0.67 3.66 0.34 4.32 0 5 C-0.5625 3.0625 -0.5625 3.0625 -1 1 C-0.67 0.67 -0.34 0.34 0 0 Z " fill="#131313" transform="translate(1067,240)"/>
<path d="M0 0 C1.32 0 2.64 0 4 0 C4 0.99 4 1.98 4 3 C4.99 3.33 5.98 3.66 7 4 C7 4.66 7 5.32 7 6 C4.50638429 4.79618552 2.31856917 3.54571278 0 2 C0 1.34 0 0.68 0 0 Z " fill="#191919" transform="translate(435,793)"/>
<path d="M0 0 C0.33 0.66 0.66 1.32 1 2 C0.01 2.495 0.01 2.495 -1 3 C-1.33 3.99 -1.66 4.98 -2 6 C-2.99 6 -3.98 6 -5 6 C-5 6.66 -5 7.32 -5 8 C-5.66 7.67 -6.32 7.34 -7 7 C-2.25 1.125 -2.25 1.125 0 0 Z " fill="#E3E3E3" transform="translate(684,415)"/>
<path d="M0 0 C2 1 2 1 2 1 Z M-2 1 C-1.34 1.33 -0.68 1.66 0 2 C-2.46153846 5.81538462 -2.46153846 5.81538462 -5.1875 6.75 C-5.785625 6.8325 -6.38375 6.915 -7 7 C-5.86695008 3.60085025 -4.87481525 2.94745549 -2 1 Z " fill="#E6E6E6" transform="translate(899,380)"/>
<path d="M0 0 C0.33 0.66 0.66 1.32 1 2 C-0.65 3.98 -2.3 5.96 -4 8 C-4.66 7.34 -5.32 6.68 -6 6 C-4.02 4.02 -2.04 2.04 0 0 Z " fill="#121212" transform="translate(733,181)"/>
<path d="M0 0 C0.99 0.66 1.98 1.32 3 2 C1.02 3.32 -0.96 4.64 -3 6 C-3.33 5.01 -3.66 4.02 -4 3 C-3.34 2.34 -2.68 1.68 -2 1 C-1.34 1.33 -0.68 1.66 0 2 C0 1.34 0 0.68 0 0 Z " fill="#EAEAEA" transform="translate(733,178)"/>
<path d="M0 0 C0.33 0.99 0.66 1.98 1 3 C-0.375 4.5 -0.375 4.5 -2 6 C-2.66 6 -3.32 6 -4 6 C-4.33 6.66 -4.66 7.32 -5 8 C-5 5 -5 5 -2.5 2.3125 C-1.675 1.549375 -0.85 0.78625 0 0 Z " fill="#0E0E0E" transform="translate(1019,154)"/>
<path d="M0 0 C3.73584906 1.47169811 3.73584906 1.47169811 5 4 C4.01 4.33 3.02 4.66 2 5 C0.68 3.68 -0.64 2.36 -2 1 C-1.34 0.67 -0.68 0.34 0 0 Z " fill="#171717" transform="translate(209,866)"/>
<path d="M0 0 C2.97 0.495 2.97 0.495 6 1 C3.38058783 2.74627478 1.96175123 3.38722388 -1 4 C-0.67 2.68 -0.34 1.36 0 0 Z " fill="#111111" transform="translate(234,805)"/>
<path d="M0 0 C0.99 0.33 1.98 0.66 3 1 C2.01 1.33 1.02 1.66 0 2 C-1.20882096 4.00016466 -1.20882096 4.00016466 -2 6 C-2.99 5.67 -3.98 5.34 -5 5 C-3.35 3.35 -1.7 1.7 0 0 Z " fill="#ECECEC" transform="translate(552,674)"/>
<path d="M0 0 C3.68754757 0.49831724 5.60490662 1.10067643 8 4 C7.01 4.33 6.02 4.66 5 5 C3.35 3.35 1.7 1.7 0 0 Z " fill="#121212" transform="translate(656,472)"/>
<path d="M0 0 C0.99 1.32 1.98 2.64 3 4 C1.02 4.99 1.02 4.99 -1 6 C-1.66 5.01 -2.32 4.02 -3 3 C-2.01 2.67 -1.02 2.34 0 2 C0 1.34 0 0.68 0 0 Z " fill="#EDEDED" transform="translate(852,347)"/>
<path d="M0 0 C0.66 0 1.32 0 2 0 C2.6875 1.8125 2.6875 1.8125 3 4 C1.5625 5.75 1.5625 5.75 0 7 C-0.38133299 5.0085944 -0.71325582 3.00720923 -1 1 C-0.67 0.67 -0.34 0.34 0 0 Z " fill="#F1F1F1" transform="translate(916,315)"/>
</svg>
