<?xml version="1.0" encoding="UTF-8"?>
<svg version="1.1" xmlns="http://www.w3.org/2000/svg" width="512" height="512">
<path d="M0 0 C0.84975468 -0.00507454 1.69950935 -0.01014909 2.57501417 -0.0153774 C3.50884584 -0.01587516 4.4426775 -0.01637292 5.40480709 -0.01688576 C6.39670148 -0.02126801 7.38859588 -0.02565027 8.41054767 -0.03016531 C11.74985816 -0.04356985 15.08914225 -0.04973594 18.42847347 -0.0558567 C20.81660234 -0.06375645 23.20473 -0.07202532 25.59285641 -0.08063698 C32.7715383 -0.10460888 39.95022546 -0.11978852 47.12893406 -0.13269705 C49.15729697 -0.13640982 51.18565921 -0.140383 53.21402144 -0.14444971 C65.8151314 -0.16969026 78.41624247 -0.1917392 91.01737213 -0.20417786 C93.93598147 -0.20710747 96.85459078 -0.21006914 99.77320004 -0.21308327 C100.49859043 -0.21382932 101.22398083 -0.21457537 101.97135275 -0.21534403 C113.71415913 -0.22798929 125.45681381 -0.26120121 137.19954932 -0.3028851 C149.26144595 -0.34535007 161.32326503 -0.36887826 173.3852362 -0.37409842 C180.15517477 -0.3775077 186.9248764 -0.38920518 193.69474125 -0.42220116 C200.06661385 -0.45228248 206.43807387 -0.45859295 212.81000233 -0.4468174 C215.14564076 -0.44659666 217.48129833 -0.45490137 219.81687069 -0.47247124 C223.01261129 -0.49519845 226.20686038 -0.48685013 229.40260983 -0.47098732 C230.32082644 -0.48486941 231.23904305 -0.49875149 232.1850844 -0.51305425 C239.65942793 -0.42202026 246.07823507 1.84098123 251.76492202 6.81284481 C260.32907631 15.67795457 259.26388412 27.54305924 259.18872738 38.95757103 C259.18788022 40.76183114 259.18835799 42.56609228 259.19005489 44.37035179 C259.19091279 49.247854 259.17332031 54.12513319 259.15233302 59.00258374 C259.13353195 64.10747654 259.13181308 69.2123749 259.1282568 74.31729698 C259.1189464 83.97498064 259.09434623 93.63256197 259.06420833 103.29020065 C259.03063301 114.28897647 259.01417043 125.28775728 258.99912202 136.28657162 C258.96779579 158.90344253 258.91505486 181.52022271 258.84815121 204.13701439 C260.15599575 204.20077263 261.46384029 204.26453087 262.81131649 204.33022118 C264.54251338 204.41723183 266.27370405 204.50436602 268.00488949 204.59160423 C268.8650819 204.63321175 269.72527431 204.67481926 270.61153316 204.71768761 C276.41099879 205.01318295 282.04071584 205.52056554 287.72315121 206.76201439 C288.53791927 206.93531273 289.35268734 207.10861107 290.19214535 207.28716087 C313.48400312 212.49943366 335.16142048 222.18321865 353.84815121 237.13701439 C354.43676937 237.6075222 355.02538754 238.07803001 355.63184261 238.56279564 C387.42218573 264.28692703 406.80548242 300.66871957 411.84815121 341.13701439 C414.1925058 385.02689344 404.26998742 426.29350717 374.84815121 460.13701439 C349.29191092 488.38713611 313.54862743 509.37353462 274.84815121 512.13701439 C241.93808751 513.49701339 212.05983158 509.28201688 182.84815121 493.13701439 C181.74729183 492.53760033 180.64643246 491.93818626 179.51221371 491.32060814 C171.77943012 486.96726524 171.77943012 486.96726524 168.95239878 484.44691914 C163.17422495 479.39570448 159.18073008 478.12458904 151.60120296 478.28418541 C150.11073853 478.27332202 150.11073853 478.27332202 148.59016371 478.26223916 C145.28011466 478.24643864 141.97249042 478.28027441 138.66260433 478.31401634 C136.28181757 478.31267595 133.90103082 478.30820065 131.52025509 478.30083275 C125.73694067 478.2903966 119.95435821 478.31154251 114.17115104 478.34580604 C107.42897689 478.38357411 100.68704168 478.37819721 93.94479257 478.36935928 C81.91070225 478.35436241 69.87682671 478.36755186 57.84278011 478.40141869 C57.12351103 478.40343582 56.40424195 478.40545296 55.66317683 478.40753122 C54.20748433 478.41162338 52.75179183 478.41571727 51.29609933 478.4198129 C50.21358346 478.42285315 50.21358346 478.42285315 49.10919857 478.42595482 C48.38691306 478.42798829 47.66462754 478.43002176 46.92045459 478.43211685 C38.89815345 478.45425995 30.87584396 478.46914366 22.8535223 478.48149681 C22.13513552 478.48261049 21.41674873 478.48372417 20.67659265 478.4848716 C8.68569515 478.502844 -3.30516974 478.50475053 -15.29607725 478.49770898 C-23.33968772 478.49404278 -31.38286222 478.51304144 -39.42639256 478.54870188 C-44.43193604 478.56726186 -49.43739582 478.56957626 -54.44296932 478.56779289 C-56.76129803 478.57044852 -59.07963083 478.57999652 -61.39789867 478.59700394 C-64.56718833 478.61938249 -67.73556347 478.61706516 -70.90490055 478.60889244 C-71.81804634 478.6214277 -72.73119212 478.63396295 -73.67200899 478.64687806 C-81.00741326 478.58597394 -87.07124186 476.76611252 -92.71044254 471.95342064 C-93.64050114 470.83773705 -93.64050114 470.83773705 -94.58934879 469.69951439 C-95.22743473 468.95830345 -95.86552067 468.21709251 -96.52294254 467.45342064 C-99.65305142 463.00221066 -100.40219038 459.26595303 -100.4091177 453.86498547 C-100.41556659 452.59324122 -100.42201548 451.32149698 -100.4286598 450.01121503 C-100.42571759 448.60220476 -100.42258216 447.19319487 -100.41927433 445.78418541 C-100.42301085 444.2855674 -100.42761238 442.78695133 -100.43300498 441.28833836 C-100.44525044 437.16874605 -100.44497268 433.04923486 -100.44261622 428.92962849 C-100.44220844 424.48707139 -100.45324362 420.04454042 -100.46273136 415.60199547 C-100.47935147 406.8970351 -100.48484139 398.19210182 -100.48595612 389.48712692 C-100.48690624 382.41066833 -100.49101473 375.33421868 -100.49735737 368.25776291 C-100.51497356 348.1950954 -100.5241958 328.1324493 -100.52269642 308.06977401 C-100.52261651 306.98796187 -100.5225366 305.90614973 -100.52245426 304.7915554 C-100.5223725 303.70842224 -100.52229074 302.62528907 -100.5222065 301.50933369 C-100.52139379 283.95975099 -100.54052681 266.41025416 -100.568731 248.86069629 C-100.59746169 230.84130585 -100.61127114 212.82195727 -100.60954344 194.80254334 C-100.60887954 184.68592688 -100.61437171 174.5694004 -100.63589954 164.45280457 C-100.6541139 155.83804916 -100.65845667 147.2234245 -100.6448807 138.60865817 C-100.63835197 134.21448982 -100.63823029 129.82057231 -100.6555872 125.42642784 C-100.67132757 121.40004714 -100.66844463 117.37411595 -100.65101893 113.34774616 C-100.64795111 111.89483162 -100.65157326 110.44188345 -100.66273908 108.98900858 C-100.73678601 98.66659657 -99.89100649 89.25898446 -92.39183903 81.51909447 C-91.60002232 80.6901165 -90.8082056 79.86113853 -89.99239445 79.00704002 C-89.04605006 78.04986609 -88.0991577 77.09323375 -87.15184879 76.13701439 C-86.00529849 74.95847127 -84.85952733 73.77916986 -83.71437931 72.59926414 C-79.60553256 68.38226414 -75.46138844 64.20080339 -71.31200504 60.02373314 C-70.56046083 59.26686525 -69.80891663 58.50999737 -69.03459835 57.73019409 C-65.06458006 53.7336318 -61.09101896 49.74062705 -57.11498356 45.7500515 C-53.8426334 42.4643185 -50.57772635 39.17145028 -47.31908512 35.87212181 C-43.35818411 31.86179946 -39.38505136 27.86398948 -35.402915 23.87475586 C-33.89688034 22.36203663 -32.39508032 20.84508836 -30.8977766 19.32372665 C-11.89982387 0.03775142 -11.89982387 0.03775142 0 0 Z " fill="#E2EEFD" transform="translate(100.15184879302979,-0.13701438903808594)"/>
<path d="M0 0 C0.84975468 -0.00507454 1.69950935 -0.01014909 2.57501417 -0.0153774 C3.50884584 -0.01587516 4.4426775 -0.01637292 5.40480709 -0.01688576 C6.39670148 -0.02126801 7.38859588 -0.02565027 8.41054767 -0.03016531 C11.74985816 -0.04356985 15.08914225 -0.04973594 18.42847347 -0.0558567 C20.81660234 -0.06375645 23.20473 -0.07202532 25.59285641 -0.08063698 C32.7715383 -0.10460888 39.95022546 -0.11978852 47.12893406 -0.13269705 C49.15729697 -0.13640982 51.18565921 -0.140383 53.21402144 -0.14444971 C65.8151314 -0.16969026 78.41624247 -0.1917392 91.01737213 -0.20417786 C93.93598147 -0.20710747 96.85459078 -0.21006914 99.77320004 -0.21308327 C100.49859043 -0.21382932 101.22398083 -0.21457537 101.97135275 -0.21534403 C113.71415913 -0.22798929 125.45681381 -0.26120121 137.19954932 -0.3028851 C149.26144595 -0.34535007 161.32326503 -0.36887826 173.3852362 -0.37409842 C180.15517477 -0.3775077 186.9248764 -0.38920518 193.69474125 -0.42220116 C200.06661385 -0.45228248 206.43807387 -0.45859295 212.81000233 -0.4468174 C215.14564076 -0.44659666 217.48129833 -0.45490137 219.81687069 -0.47247124 C223.01261129 -0.49519845 226.20686038 -0.48685013 229.40260983 -0.47098732 C230.32082644 -0.48486941 231.23904305 -0.49875149 232.1850844 -0.51305425 C239.65942793 -0.42202026 246.07823507 1.84098123 251.76492202 6.81284481 C260.32907631 15.67795457 259.26388412 27.54305924 259.18872738 38.95757103 C259.18788022 40.76183114 259.18835799 42.56609228 259.19005489 44.37035179 C259.19091279 49.247854 259.17332031 54.12513319 259.15233302 59.00258374 C259.13353195 64.10747654 259.13181308 69.2123749 259.1282568 74.31729698 C259.1189464 83.97498064 259.09434623 93.63256197 259.06420833 103.29020065 C259.03063301 114.28897647 259.01417043 125.28775728 258.99912202 136.28657162 C258.96779579 158.90344253 258.91505486 181.52022271 258.84815121 204.13701439 C260.15599575 204.20077263 261.46384029 204.26453087 262.81131649 204.33022118 C264.54251338 204.41723183 266.27370405 204.50436602 268.00488949 204.59160423 C268.8650819 204.63321175 269.72527431 204.67481926 270.61153316 204.71768761 C276.41099879 205.01318295 282.04071584 205.52056554 287.72315121 206.76201439 C288.53791927 206.93531273 289.35268734 207.10861107 290.19214535 207.28716087 C313.48400312 212.49943366 335.16142048 222.18321865 353.84815121 237.13701439 C354.43676937 237.6075222 355.02538754 238.07803001 355.63184261 238.56279564 C387.42218573 264.28692703 406.80548242 300.66871957 411.84815121 341.13701439 C414.1925058 385.02689344 404.26998742 426.29350717 374.84815121 460.13701439 C349.29191092 488.38713611 313.54862743 509.37353462 274.84815121 512.13701439 C241.93808751 513.49701339 212.05983158 509.28201688 182.84815121 493.13701439 C181.74729183 492.53760033 180.64643246 491.93818626 179.51221371 491.32060814 C171.77943012 486.96726524 171.77943012 486.96726524 168.95239878 484.44691914 C163.17422495 479.39570448 159.18073008 478.12458904 151.60120296 478.28418541 C150.11073853 478.27332202 150.11073853 478.27332202 148.59016371 478.26223916 C145.28011466 478.24643864 141.97249042 478.28027441 138.66260433 478.31401634 C136.28181757 478.31267595 133.90103082 478.30820065 131.52025509 478.30083275 C125.73694067 478.2903966 119.95435821 478.31154251 114.17115104 478.34580604 C107.42897689 478.38357411 100.68704168 478.37819721 93.94479257 478.36935928 C81.91070225 478.35436241 69.87682671 478.36755186 57.84278011 478.40141869 C57.12351103 478.40343582 56.40424195 478.40545296 55.66317683 478.40753122 C54.20748433 478.41162338 52.75179183 478.41571727 51.29609933 478.4198129 C50.21358346 478.42285315 50.21358346 478.42285315 49.10919857 478.42595482 C48.38691306 478.42798829 47.66462754 478.43002176 46.92045459 478.43211685 C38.89815345 478.45425995 30.87584396 478.46914366 22.8535223 478.48149681 C22.13513552 478.48261049 21.41674873 478.48372417 20.67659265 478.4848716 C8.68569515 478.502844 -3.30516974 478.50475053 -15.29607725 478.49770898 C-23.33968772 478.49404278 -31.38286222 478.51304144 -39.42639256 478.54870188 C-44.43193604 478.56726186 -49.43739582 478.56957626 -54.44296932 478.56779289 C-56.76129803 478.57044852 -59.07963083 478.57999652 -61.39789867 478.59700394 C-64.56718833 478.61938249 -67.73556347 478.61706516 -70.90490055 478.60889244 C-71.81804634 478.6214277 -72.73119212 478.63396295 -73.67200899 478.64687806 C-81.00741326 478.58597394 -87.07124186 476.76611252 -92.71044254 471.95342064 C-93.64050114 470.83773705 -93.64050114 470.83773705 -94.58934879 469.69951439 C-95.22743473 468.95830345 -95.86552067 468.21709251 -96.52294254 467.45342064 C-99.65305142 463.00221066 -100.40219038 459.26595303 -100.4091177 453.86498547 C-100.41556659 452.59324122 -100.42201548 451.32149698 -100.4286598 450.01121503 C-100.42571759 448.60220476 -100.42258216 447.19319487 -100.41927433 445.78418541 C-100.42301085 444.2855674 -100.42761238 442.78695133 -100.43300498 441.28833836 C-100.44525044 437.16874605 -100.44497268 433.04923486 -100.44261622 428.92962849 C-100.44220844 424.48707139 -100.45324362 420.04454042 -100.46273136 415.60199547 C-100.47935147 406.8970351 -100.48484139 398.19210182 -100.48595612 389.48712692 C-100.48690624 382.41066833 -100.49101473 375.33421868 -100.49735737 368.25776291 C-100.51497356 348.1950954 -100.5241958 328.1324493 -100.52269642 308.06977401 C-100.52261651 306.98796187 -100.5225366 305.90614973 -100.52245426 304.7915554 C-100.5223725 303.70842224 -100.52229074 302.62528907 -100.5222065 301.50933369 C-100.52139379 283.95975099 -100.54052681 266.41025416 -100.568731 248.86069629 C-100.59746169 230.84130585 -100.61127114 212.82195727 -100.60954344 194.80254334 C-100.60887954 184.68592688 -100.61437171 174.5694004 -100.63589954 164.45280457 C-100.6541139 155.83804916 -100.65845667 147.2234245 -100.6448807 138.60865817 C-100.63835197 134.21448982 -100.63823029 129.82057231 -100.6555872 125.42642784 C-100.67132757 121.40004714 -100.66844463 117.37411595 -100.65101893 113.34774616 C-100.64795111 111.89483162 -100.65157326 110.44188345 -100.66273908 108.98900858 C-100.73678601 98.66659657 -99.89100649 89.25898446 -92.39183903 81.51909447 C-91.60002232 80.6901165 -90.8082056 79.86113853 -89.99239445 79.00704002 C-89.04605006 78.04986609 -88.0991577 77.09323375 -87.15184879 76.13701439 C-86.00529849 74.95847127 -84.85952733 73.77916986 -83.71437931 72.59926414 C-79.60553256 68.38226414 -75.46138844 64.20080339 -71.31200504 60.02373314 C-70.56046083 59.26686525 -69.80891663 58.50999737 -69.03459835 57.73019409 C-65.06458006 53.7336318 -61.09101896 49.74062705 -57.11498356 45.7500515 C-53.8426334 42.4643185 -50.57772635 39.17145028 -47.31908512 35.87212181 C-43.35818411 31.86179946 -39.38505136 27.86398948 -35.402915 23.87475586 C-33.89688034 22.36203663 -32.39508032 20.84508836 -30.8977766 19.32372665 C-11.89982387 0.03775142 -11.89982387 0.03775142 0 0 Z M1.84815121 17.13701439 C1.84672619 17.95640999 1.84530117 18.77580559 1.84383297 19.62003136 C1.82594303 27.37295468 1.78415351 35.1252186 1.71606064 42.87785053 C1.68188812 46.86283269 1.65669598 50.84743546 1.65259457 54.83257103 C1.64829046 58.68439619 1.61965562 62.53536694 1.57471943 66.38692474 C1.56181129 67.85033806 1.55741289 69.31385398 1.56199741 70.77731705 C1.58487926 80.30657714 0.93867797 87.89658864 -5.9654932 95.00406456 C-11.14766982 99.83006237 -15.76706947 101.37560445 -22.86986637 101.45586205 C-23.52408573 101.46590767 -24.17830509 101.47595329 -24.85234928 101.48630333 C-27.00035114 101.51702889 -29.14822898 101.53414035 -31.29638004 101.55107689 C-32.79140119 101.56979714 -34.28641188 101.5893712 -35.78141117 101.60976219 C-39.70548665 101.66099902 -43.62959635 101.70066974 -47.55382633 101.7379055 C-51.56249747 101.7779983 -55.57102728 101.82906652 -59.57958317 101.87920189 C-67.43690835 101.97586106 -75.29430371 102.06029762 -83.15184879 102.13701439 C-83.24335406 147.02199765 -83.31386195 191.90697105 -83.35611011 236.79202915 C-83.36111309 242.08809535 -83.36629036 247.38416136 -83.37157536 252.68022728 C-83.3726246 253.73460274 -83.37367384 254.7889782 -83.37475488 255.87530444 C-83.39217204 272.9597513 -83.42371694 290.04414446 -83.46045998 307.12855943 C-83.49783292 324.65168252 -83.52007692 342.17477743 -83.52820277 359.69793874 C-83.53369812 370.51539955 -83.55107027 381.33270858 -83.58351466 392.15012268 C-83.60461755 399.56258001 -83.61105844 406.97495859 -83.6058543 414.3874438 C-83.60328592 418.6675556 -83.60729227 422.94740172 -83.62867069 427.22746658 C-83.64809086 431.14398153 -83.64914864 435.06005135 -83.63544437 438.9765865 C-83.63374985 440.39524836 -83.63886273 441.81393764 -83.65138152 443.23254528 C-83.66738771 445.15791302 -83.65641046 447.08344889 -83.64404011 449.00884342 C-83.64555899 450.07927503 -83.64707787 451.14970664 -83.64864278 452.25257558 C-83.02822029 455.85481464 -81.65929306 457.52749824 -79.15184879 460.13701439 C-75.84471386 461.79058186 -72.15640069 461.26966643 -68.52132511 461.25726891 C-67.61715119 461.25812333 -66.71297727 461.25897776 -65.78140414 461.25985807 C-62.73347919 461.26151306 -59.68560856 461.25599117 -56.63768864 461.25053978 C-54.46008143 461.25025789 -52.28247413 461.25041568 -50.10486698 461.25098228 C-44.17748023 461.25127017 -38.25011356 461.2453748 -32.32273149 461.23840833 C-26.13406792 461.23217338 -19.94540394 461.23157088 -13.75673771 461.23038292 C-2.69788936 461.22744717 8.36095066 461.22021859 19.4197952 461.2107402 C33.43394012 461.19879236 47.44808389 461.19261268 61.46223283 461.18733799 C88.92421077 461.17687454 116.38618047 461.15927589 143.84815121 461.13701439 C143.44099377 460.59504417 143.03383633 460.05307396 142.61434078 459.4946804 C142.07766277 458.77981468 141.54098476 458.06494896 140.98804379 457.32842064 C140.45713634 456.62145042 139.9262289 455.91448021 139.37923336 455.18608665 C125.85204981 437.08243586 115.93823074 418.26871995 110.03565121 396.38701439 C109.74319515 395.30843163 109.74319515 395.30843163 109.44483089 394.20805931 C106.49890841 382.60751535 105.47895387 370.95328383 105.53565121 359.01201439 C105.54129086 357.75010277 105.5469305 356.48819115 105.55274105 355.18803978 C106.08892751 313.47963493 123.27575704 276.78721938 152.51611996 247.46123314 C175.43255965 225.28149179 204.57211913 212.68386724 235.61695004 207.08110619 C236.5990797 206.90355293 237.58120937 206.72599968 238.59310055 206.54306602 C239.33726727 206.40906898 240.08143398 206.27507195 240.84815121 206.13701439 C240.91818306 182.21549851 240.97111081 158.29399797 241.00358772 134.37240028 C241.01906705 123.26558318 241.04017695 112.15882971 241.07446957 101.05205345 C241.10433927 91.37317925 241.12371845 81.69435113 241.13041669 72.01543212 C241.13433306 66.88889154 241.14355923 61.76248281 241.16534138 56.63598442 C241.18566815 51.81304396 241.19199273 46.99028994 241.18747425 42.16731071 C241.18830116 40.39516754 241.19428945 38.62301829 241.20576763 36.85091209 C241.22065231 34.43483874 241.21711981 32.01947311 241.20891476 29.60338402 C241.21765328 28.8991009 241.22639181 28.19481778 241.23539513 27.46919274 C241.20757844 24.44725068 240.99237667 22.39673498 239.51310349 19.73286629 C236.86722132 17.19679596 234.33688355 17.01208761 230.84016037 17.01396656 C230.02255606 17.01197551 229.20495174 17.00998446 228.36257154 17.00793308 C227.01579289 17.01230234 227.01579289 17.01230234 225.6418066 17.01675987 C224.21076014 17.01547824 224.21076014 17.01547824 222.75080365 17.01417071 C219.54015131 17.0125179 216.32955072 17.01803406 213.11890316 17.023489 C210.82292335 17.02377094 208.52694346 17.023613 206.23096371 17.02304649 C199.98546492 17.02275879 193.73998521 17.02865121 187.49449086 17.03562045 C180.97217578 17.04185843 174.44986029 17.04245814 167.92754269 17.04364586 C156.97618932 17.04640396 146.02484302 17.05265637 135.073493 17.06157494 C123.7928944 17.07075209 112.51229771 17.07783144 101.23169613 17.08208275 C100.18892343 17.08247683 100.18892343 17.08247683 99.12508462 17.08287888 C95.63760793 17.08418391 92.15013123 17.08544762 88.66265452 17.08669078 C59.7244821 17.09705973 30.78631682 17.11474912 1.84815121 17.13701439 Z " fill="#2A8DE6" transform="translate(100.15184879302979,-0.13701438903808594)"/>
<path d="M0 0 C0.84975468 -0.00507454 1.69950935 -0.01014909 2.57501417 -0.0153774 C3.50884584 -0.01587516 4.4426775 -0.01637292 5.40480709 -0.01688576 C6.39670148 -0.02126801 7.38859588 -0.02565027 8.41054767 -0.03016531 C11.74985816 -0.04356985 15.08914225 -0.04973594 18.42847347 -0.0558567 C20.81660234 -0.06375645 23.20473 -0.07202532 25.59285641 -0.08063698 C32.7715383 -0.10460888 39.95022546 -0.11978852 47.12893406 -0.13269705 C49.15729697 -0.13640982 51.18565921 -0.140383 53.21402144 -0.14444971 C65.8151314 -0.16969026 78.41624247 -0.1917392 91.01737213 -0.20417786 C93.93598147 -0.20710747 96.85459078 -0.21006914 99.77320004 -0.21308327 C100.49859043 -0.21382932 101.22398083 -0.21457537 101.97135275 -0.21534403 C113.71415913 -0.22798929 125.45681381 -0.26120121 137.19954932 -0.3028851 C149.26144595 -0.34535007 161.32326503 -0.36887826 173.3852362 -0.37409842 C180.15517477 -0.3775077 186.9248764 -0.38920518 193.69474125 -0.42220116 C200.06661385 -0.45228248 206.43807387 -0.45859295 212.81000233 -0.4468174 C215.14564076 -0.44659666 217.48129833 -0.45490137 219.81687069 -0.47247124 C223.01261129 -0.49519845 226.20686038 -0.48685013 229.40260983 -0.47098732 C230.32082644 -0.48486941 231.23904305 -0.49875149 232.1850844 -0.51305425 C239.65942793 -0.42202026 246.07823507 1.84098123 251.76492202 6.81284481 C260.32907631 15.67795457 259.26388412 27.54305924 259.18872738 38.95757103 C259.18788022 40.76183114 259.18835799 42.56609228 259.19005489 44.37035179 C259.19091279 49.247854 259.17332031 54.12513319 259.15233302 59.00258374 C259.13353195 64.10747654 259.13181308 69.2123749 259.1282568 74.31729698 C259.1189464 83.97498064 259.09434623 93.63256197 259.06420833 103.29020065 C259.03063301 114.28897647 259.01417043 125.28775728 258.99912202 136.28657162 C258.96779579 158.90344253 258.91505486 181.52022271 258.84815121 204.13701439 C260.15599575 204.20077263 261.46384029 204.26453087 262.81131649 204.33022118 C264.54251338 204.41723183 266.27370405 204.50436602 268.00488949 204.59160423 C268.8650819 204.63321175 269.72527431 204.67481926 270.61153316 204.71768761 C276.41099879 205.01318295 282.04071584 205.52056554 287.72315121 206.76201439 C288.53791927 206.93531273 289.35268734 207.10861107 290.19214535 207.28716087 C313.48400312 212.49943366 335.16142048 222.18321865 353.84815121 237.13701439 C354.43676937 237.6075222 355.02538754 238.07803001 355.63184261 238.56279564 C387.42218573 264.28692703 406.80548242 300.66871957 411.84815121 341.13701439 C414.1925058 385.02689344 404.26998742 426.29350717 374.84815121 460.13701439 C349.29191092 488.38713611 313.54862743 509.37353462 274.84815121 512.13701439 C241.93808751 513.49701339 212.05983158 509.28201688 182.84815121 493.13701439 C181.74729183 492.53760033 180.64643246 491.93818626 179.51221371 491.32060814 C171.77943012 486.96726524 171.77943012 486.96726524 168.95239878 484.44691914 C163.17422495 479.39570448 159.18073008 478.12458904 151.60120296 478.28418541 C150.11073853 478.27332202 150.11073853 478.27332202 148.59016371 478.26223916 C145.28011466 478.24643864 141.97249042 478.28027441 138.66260433 478.31401634 C136.28181757 478.31267595 133.90103082 478.30820065 131.52025509 478.30083275 C125.73694067 478.2903966 119.95435821 478.31154251 114.17115104 478.34580604 C107.42897689 478.38357411 100.68704168 478.37819721 93.94479257 478.36935928 C81.91070225 478.35436241 69.87682671 478.36755186 57.84278011 478.40141869 C57.12351103 478.40343582 56.40424195 478.40545296 55.66317683 478.40753122 C54.20748433 478.41162338 52.75179183 478.41571727 51.29609933 478.4198129 C50.21358346 478.42285315 50.21358346 478.42285315 49.10919857 478.42595482 C48.38691306 478.42798829 47.66462754 478.43002176 46.92045459 478.43211685 C38.89815345 478.45425995 30.87584396 478.46914366 22.8535223 478.48149681 C22.13513552 478.48261049 21.41674873 478.48372417 20.67659265 478.4848716 C8.68569515 478.502844 -3.30516974 478.50475053 -15.29607725 478.49770898 C-23.33968772 478.49404278 -31.38286222 478.51304144 -39.42639256 478.54870188 C-44.43193604 478.56726186 -49.43739582 478.56957626 -54.44296932 478.56779289 C-56.76129803 478.57044852 -59.07963083 478.57999652 -61.39789867 478.59700394 C-64.56718833 478.61938249 -67.73556347 478.61706516 -70.90490055 478.60889244 C-71.81804634 478.6214277 -72.73119212 478.63396295 -73.67200899 478.64687806 C-81.00741326 478.58597394 -87.07124186 476.76611252 -92.71044254 471.95342064 C-93.64050114 470.83773705 -93.64050114 470.83773705 -94.58934879 469.69951439 C-95.22743473 468.95830345 -95.86552067 468.21709251 -96.52294254 467.45342064 C-99.65305142 463.00221066 -100.40219038 459.26595303 -100.4091177 453.86498547 C-100.41556659 452.59324122 -100.42201548 451.32149698 -100.4286598 450.01121503 C-100.42571759 448.60220476 -100.42258216 447.19319487 -100.41927433 445.78418541 C-100.42301085 444.2855674 -100.42761238 442.78695133 -100.43300498 441.28833836 C-100.44525044 437.16874605 -100.44497268 433.04923486 -100.44261622 428.92962849 C-100.44220844 424.48707139 -100.45324362 420.04454042 -100.46273136 415.60199547 C-100.47935147 406.8970351 -100.48484139 398.19210182 -100.48595612 389.48712692 C-100.48690624 382.41066833 -100.49101473 375.33421868 -100.49735737 368.25776291 C-100.51497356 348.1950954 -100.5241958 328.1324493 -100.52269642 308.06977401 C-100.52261651 306.98796187 -100.5225366 305.90614973 -100.52245426 304.7915554 C-100.5223725 303.70842224 -100.52229074 302.62528907 -100.5222065 301.50933369 C-100.52139379 283.95975099 -100.54052681 266.41025416 -100.568731 248.86069629 C-100.59746169 230.84130585 -100.61127114 212.82195727 -100.60954344 194.80254334 C-100.60887954 184.68592688 -100.61437171 174.5694004 -100.63589954 164.45280457 C-100.6541139 155.83804916 -100.65845667 147.2234245 -100.6448807 138.60865817 C-100.63835197 134.21448982 -100.63823029 129.82057231 -100.6555872 125.42642784 C-100.67132757 121.40004714 -100.66844463 117.37411595 -100.65101893 113.34774616 C-100.64795111 111.89483162 -100.65157326 110.44188345 -100.66273908 108.98900858 C-100.73678601 98.66659657 -99.89100649 89.25898446 -92.39183903 81.51909447 C-91.60002232 80.6901165 -90.8082056 79.86113853 -89.99239445 79.00704002 C-89.04605006 78.04986609 -88.0991577 77.09323375 -87.15184879 76.13701439 C-86.00529849 74.95847127 -84.85952733 73.77916986 -83.71437931 72.59926414 C-79.60553256 68.38226414 -75.46138844 64.20080339 -71.31200504 60.02373314 C-70.56046083 59.26686525 -69.80891663 58.50999737 -69.03459835 57.73019409 C-65.06458006 53.7336318 -61.09101896 49.74062705 -57.11498356 45.7500515 C-53.8426334 42.4643185 -50.57772635 39.17145028 -47.31908512 35.87212181 C-43.35818411 31.86179946 -39.38505136 27.86398948 -35.402915 23.87475586 C-33.89688034 22.36203663 -32.39508032 20.84508836 -30.8977766 19.32372665 C-11.89982387 0.03775142 -11.89982387 0.03775142 0 0 Z M1.84815121 17.13701439 C1.84672619 17.95640999 1.84530117 18.77580559 1.84383297 19.62003136 C1.82594303 27.37295468 1.78415351 35.1252186 1.71606064 42.87785053 C1.68188812 46.86283269 1.65669598 50.84743546 1.65259457 54.83257103 C1.64829046 58.68439619 1.61965562 62.53536694 1.57471943 66.38692474 C1.56181129 67.85033806 1.55741289 69.31385398 1.56199741 70.77731705 C1.58487926 80.30657714 0.93867797 87.89658864 -5.9654932 95.00406456 C-11.14766982 99.83006237 -15.76706947 101.37560445 -22.86986637 101.45586205 C-23.52408573 101.46590767 -24.17830509 101.47595329 -24.85234928 101.48630333 C-27.00035114 101.51702889 -29.14822898 101.53414035 -31.29638004 101.55107689 C-32.79140119 101.56979714 -34.28641188 101.5893712 -35.78141117 101.60976219 C-39.70548665 101.66099902 -43.62959635 101.70066974 -47.55382633 101.7379055 C-51.56249747 101.7779983 -55.57102728 101.82906652 -59.57958317 101.87920189 C-67.43690835 101.97586106 -75.29430371 102.06029762 -83.15184879 102.13701439 C-83.24335406 147.02199765 -83.31386195 191.90697105 -83.35611011 236.79202915 C-83.36111309 242.08809535 -83.36629036 247.38416136 -83.37157536 252.68022728 C-83.3726246 253.73460274 -83.37367384 254.7889782 -83.37475488 255.87530444 C-83.39217204 272.9597513 -83.42371694 290.04414446 -83.46045998 307.12855943 C-83.49783292 324.65168252 -83.52007692 342.17477743 -83.52820277 359.69793874 C-83.53369812 370.51539955 -83.55107027 381.33270858 -83.58351466 392.15012268 C-83.60461755 399.56258001 -83.61105844 406.97495859 -83.6058543 414.3874438 C-83.60328592 418.6675556 -83.60729227 422.94740172 -83.62867069 427.22746658 C-83.64809086 431.14398153 -83.64914864 435.06005135 -83.63544437 438.9765865 C-83.63374985 440.39524836 -83.63886273 441.81393764 -83.65138152 443.23254528 C-83.66738771 445.15791302 -83.65641046 447.08344889 -83.64404011 449.00884342 C-83.64555899 450.07927503 -83.64707787 451.14970664 -83.64864278 452.25257558 C-83.02822029 455.85481464 -81.65929306 457.52749824 -79.15184879 460.13701439 C-75.84471386 461.79058186 -72.15640069 461.26966643 -68.52132511 461.25726891 C-67.61715119 461.25812333 -66.71297727 461.25897776 -65.78140414 461.25985807 C-62.73347919 461.26151306 -59.68560856 461.25599117 -56.63768864 461.25053978 C-54.46008143 461.25025789 -52.28247413 461.25041568 -50.10486698 461.25098228 C-44.17748023 461.25127017 -38.25011356 461.2453748 -32.32273149 461.23840833 C-26.13406792 461.23217338 -19.94540394 461.23157088 -13.75673771 461.23038292 C-2.69788936 461.22744717 8.36095066 461.22021859 19.4197952 461.2107402 C33.43394012 461.19879236 47.44808389 461.19261268 61.46223283 461.18733799 C88.92421077 461.17687454 116.38618047 461.15927589 143.84815121 461.13701439 C143.44099377 460.59504417 143.03383633 460.05307396 142.61434078 459.4946804 C142.07766277 458.77981468 141.54098476 458.06494896 140.98804379 457.32842064 C140.45713634 456.62145042 139.9262289 455.91448021 139.37923336 455.18608665 C125.85204981 437.08243586 115.93823074 418.26871995 110.03565121 396.38701439 C109.74319515 395.30843163 109.74319515 395.30843163 109.44483089 394.20805931 C106.49890841 382.60751535 105.47895387 370.95328383 105.53565121 359.01201439 C105.54129086 357.75010277 105.5469305 356.48819115 105.55274105 355.18803978 C106.08892751 313.47963493 123.27575704 276.78721938 152.51611996 247.46123314 C175.43255965 225.28149179 204.57211913 212.68386724 235.61695004 207.08110619 C236.5990797 206.90355293 237.58120937 206.72599968 238.59310055 206.54306602 C239.33726727 206.40906898 240.08143398 206.27507195 240.84815121 206.13701439 C240.91818306 182.21549851 240.97111081 158.29399797 241.00358772 134.37240028 C241.01906705 123.26558318 241.04017695 112.15882971 241.07446957 101.05205345 C241.10433927 91.37317925 241.12371845 81.69435113 241.13041669 72.01543212 C241.13433306 66.88889154 241.14355923 61.76248281 241.16534138 56.63598442 C241.18566815 51.81304396 241.19199273 46.99028994 241.18747425 42.16731071 C241.18830116 40.39516754 241.19428945 38.62301829 241.20576763 36.85091209 C241.22065231 34.43483874 241.21711981 32.01947311 241.20891476 29.60338402 C241.21765328 28.8991009 241.22639181 28.19481778 241.23539513 27.46919274 C241.20757844 24.44725068 240.99237667 22.39673498 239.51310349 19.73286629 C236.86722132 17.19679596 234.33688355 17.01208761 230.84016037 17.01396656 C230.02255606 17.01197551 229.20495174 17.00998446 228.36257154 17.00793308 C227.01579289 17.01230234 227.01579289 17.01230234 225.6418066 17.01675987 C224.21076014 17.01547824 224.21076014 17.01547824 222.75080365 17.01417071 C219.54015131 17.0125179 216.32955072 17.01803406 213.11890316 17.023489 C210.82292335 17.02377094 208.52694346 17.023613 206.23096371 17.02304649 C199.98546492 17.02275879 193.73998521 17.02865121 187.49449086 17.03562045 C180.97217578 17.04185843 174.44986029 17.04245814 167.92754269 17.04364586 C156.97618932 17.04640396 146.02484302 17.05265637 135.073493 17.06157494 C123.7928944 17.07075209 112.51229771 17.07783144 101.23169613 17.08208275 C100.18892343 17.08247683 100.18892343 17.08247683 99.12508462 17.08287888 C95.63760793 17.08418391 92.15013123 17.08544762 88.66265452 17.08669078 C59.7244821 17.09705973 30.78631682 17.11474912 1.84815121 17.13701439 Z M157.84815121 265.13701439 C142.41738659 281.5979897 131.11832011 302.21208841 125.84815121 324.13701439 C125.41889339 325.84051048 125.41889339 325.84051048 124.98096371 327.57842064 C116.31828988 363.17788497 123.50310075 398.89162019 141.62940121 430.21513939 C145.54798854 436.59174969 150.01633836 442.42915323 154.84815121 448.13701439 C155.54811214 448.97232689 156.24807308 449.80763939 156.96924496 450.66826439 C172.1207763 468.16949846 192.30439542 480.24425593 213.84815121 488.13701439 C214.65768246 488.44381126 215.46721371 488.75060814 216.30127621 489.06670189 C248.4247497 500.60735718 284.83383327 496.49745359 315.57276058 482.93486595 C330.07458549 476.09735886 342.19464619 467.1345274 353.84815121 456.13701439 C354.58549496 455.46412376 355.32283871 454.79123314 356.08252621 454.09795189 C380.2333411 431.23175481 393.89971256 396.86491205 395.12158871 363.96513939 C395.39151626 351.97096742 394.72526088 340.79197254 391.84815121 329.13701439 C391.63158871 328.1225222 391.41502621 327.10803001 391.19190121 326.06279564 C386.51992985 305.23359002 376.56860961 286.39114116 362.84815121 270.13701439 C362.03475277 269.17150658 361.22135433 268.20599876 360.38330746 267.21123314 C338.25231203 241.93365069 304.48121267 224.7905176 270.84815121 222.13701439 C226.98027581 220.40867316 188.99132185 233.61171896 157.84815121 265.13701439 Z " fill="#373738" transform="translate(100.15184879302979,-0.13701438903808594)"/>
<path d="M0 0 C7.08631714 5.0836623 11.79891348 12.20927718 16.48828125 19.44140625 C19.44394082 23.97514227 22.57365978 28.38666724 25.6875 32.8125 C29.94699809 38.87548291 34.18888945 44.94859589 38.375 51.0625 C42.40284986 56.94120395 46.47168097 62.7899448 50.5625 68.625 C57.73804609 78.86016475 64.88702423 89.11353618 72.01367188 99.3828125 C73.77161085 101.91365434 75.53393719 104.4413891 77.296875 106.96875 C78.3023258 108.41649831 79.30755068 109.86440355 80.3125 111.3125 C80.76713623 111.96186523 81.22177246 112.61123047 81.69018555 113.28027344 C84.70968457 117.64618563 86.06383222 120.89765821 86.3125 126.1875 C86.37308594 127.07695312 86.43367187 127.96640625 86.49609375 128.8828125 C84.96146805 136.73932397 78.23255278 143.27204036 73.1875 149.25 C68.77087178 154.54318866 64.4143359 159.86644376 60.1875 165.3125 C56.17581184 170.47048982 52.02603973 175.48712774 47.78393555 180.45678711 C44.47030185 184.34253343 41.25532486 188.2924214 38.08203125 192.29296875 C34.75671534 196.4657988 31.38548019 200.60101995 28.01757812 204.73950195 C25.13803629 208.27790089 22.26177028 211.81880791 19.39453125 215.3671875 C16.68878247 218.71464481 13.97305986 222.05368197 11.24658203 225.38427734 C10.06398941 226.83125878 8.8887119 228.28421311 7.71484375 229.73828125 C3.98507019 234.22220682 0.7920517 237.49470718 -5.25390625 238.37109375 C-10.732421 238.67700066 -14.87919087 237.64490146 -19.125 234.0625 C-24.81961797 228.39598048 -29.91492526 222.22025134 -34.875 215.91015625 C-37.69104627 212.34609769 -40.56517315 208.83123602 -43.4375 205.3125 C-47.59787283 200.2090134 -51.70467924 195.07007425 -55.75 189.875 C-59.78467105 184.69866213 -63.95522035 179.65991148 -68.21582031 174.66845703 C-71.5206203 170.79317155 -74.72844661 166.8552048 -77.890625 162.86328125 C-79.67999431 160.62031307 -81.48276051 158.39084523 -83.296875 156.16796875 C-83.8655127 155.47098877 -84.43415039 154.77400879 -85.02001953 154.0559082 C-86.13958457 152.68497032 -87.26027894 151.31495359 -88.38232422 149.94604492 C-101.9064838 133.37118288 -101.9064838 133.37118288 -101.60571289 123.16113281 C-101.06259671 119.66025388 -100.02361951 117.79222188 -98.0546875 114.8671875 C-97.41764893 113.91150879 -96.78061035 112.95583008 -96.12426758 111.97119141 C-95.13463013 110.53138916 -95.13463013 110.53138916 -94.125 109.0625 C-93.52518311 108.18126465 -92.92536621 107.3000293 -92.30737305 106.39208984 C-90.45015181 103.68734014 -88.57194089 100.99834805 -86.6875 98.3125 C-85.27207548 96.2865002 -83.85671264 94.26045732 -82.44140625 92.234375 C-81.72484863 91.21021484 -81.00829102 90.18605469 -80.27001953 89.13085938 C-76.87951162 84.28088175 -73.50267389 79.42141985 -70.125 74.5625 C-68.79173827 72.64578352 -67.45840479 70.72911696 -66.125 68.8125 C-65.465 67.86375 -64.805 66.915 -64.125 65.9375 C-62.125 63.0625 -60.125 60.1875 -58.125 57.3125 C-57.4645166 56.3630249 -56.8040332 55.4135498 -56.12353516 54.43530273 C-54.79519917 52.5258806 -53.46674934 50.61653766 -52.13818359 48.70727539 C-48.02753175 42.79953735 -43.92140777 36.88868179 -39.81811523 30.97583008 C-37.80364795 28.07719454 -35.7832266 25.18279071 -33.76171875 22.2890625 C-31.52966259 19.09246612 -29.32142794 15.88281195 -27.14453125 12.6484375 C-26.28388403 11.39060456 -25.42320952 10.1327903 -24.5625 8.875 C-23.85996094 7.82957031 -23.15742188 6.78414062 -22.43359375 5.70703125 C-16.2800906 -1.34190552 -8.76579031 -2.62973709 0 0 Z " fill="#383838" transform="translate(366.125,239.9375)"/>
<path d="M0 0 C1.06655146 -0.00638882 2.13310292 -0.01277764 3.23197412 -0.01936007 C6.81205226 -0.03464173 10.39102942 -0.01412636 13.97106934 0.00622559 C16.53509387 0.00272537 19.09911623 -0.00293207 21.66313171 -0.0105896 C27.908074 -0.02337855 34.15260654 -0.0128818 40.39751375 0.00852364 C47.66945508 0.03253449 54.94132192 0.03081922 62.21329409 0.02821773 C75.18812133 0.02452737 88.1627954 0.04535462 101.13757324 0.07946777 C113.72843294 0.11255926 126.31913187 0.12672609 138.91003418 0.1204834 C152.61975242 0.11371942 166.32940332 0.11617982 180.03911161 0.1358428 C180.76407665 0.13688229 181.48904168 0.13792177 182.23597535 0.13899276 C183.69203852 0.14108366 185.14810165 0.14319463 186.60416475 0.14532593 C191.6733968 0.15222168 196.74260811 0.15289081 201.81184387 0.15144348 C208.63430134 0.14985348 215.45653887 0.16474801 222.27895546 0.19067001 C224.78598916 0.19784474 227.29304335 0.19990919 229.80008507 0.19655228 C233.21613634 0.19285007 236.63162138 0.20754199 240.04760742 0.22705078 C241.04517012 0.22172286 242.04273282 0.21639493 243.07052469 0.21090555 C248.00113667 0.25965329 251.58613261 0.29812795 255.52380371 3.62145996 C257.52380371 6.62145996 257.52380371 6.62145996 257.39880371 10.05895996 C256.39402974 14.1498254 255.95157422 15.23337409 252.52380371 17.62145996 C249.05176713 18.22896325 245.60899081 18.16486953 242.0919342 18.13612366 C241.01807006 18.14306919 239.94420592 18.15001471 238.83780044 18.15717071 C235.22714771 18.17551691 231.61714636 18.1651548 228.00646973 18.15490723 C225.42288723 18.16196181 222.83930886 18.17070487 220.2557373 18.18101501 C213.95928528 18.20267331 207.66301385 18.20252346 201.3665368 18.19438947 C196.24937995 18.18809305 191.13227583 18.1892232 186.01511955 18.19566154 C185.28718512 18.1965632 184.55925069 18.19746485 183.80925764 18.19839383 C182.33052142 18.20024501 180.85178521 18.20210757 179.37304901 18.20398139 C165.50145711 18.22056635 151.62996686 18.2118349 137.75838106 18.19499581 C125.06489942 18.18029952 112.3716545 18.19492491 99.67820335 18.22376598 C86.64785372 18.25315226 73.61761337 18.26413444 60.58723205 18.25458378 C59.11358927 18.25356121 57.63994646 18.2525666 56.16630363 18.25160027 C55.44122615 18.25112388 54.71614866 18.25064749 53.96909912 18.25015666 C48.85826421 18.24799143 43.74753264 18.25780238 38.63672066 18.27237129 C31.75757427 18.29170724 24.87887569 18.2848277 17.99974823 18.26017189 C15.47174489 18.25514891 12.94370822 18.258692 10.41573143 18.27132034 C6.97086094 18.28717048 3.52745713 18.2723738 0.08265686 18.24964905 C-0.92336986 18.26148478 -1.92939657 18.2733205 -2.96590894 18.28551489 C-7.60677977 18.22309855 -9.78280137 18.13703198 -13.59706211 15.30094814 C-15.47619629 12.62145996 -15.47619629 12.62145996 -16.10119629 9.12145996 C-14.46095389 -0.06389745 -7.8023453 -0.0979072 0 0 Z " fill="#393939" transform="translate(58.4761962890625,178.3785400390625)"/>
<path d="M0 0 C1.06655146 -0.00638882 2.13310292 -0.01277764 3.23197412 -0.01936007 C6.81205226 -0.03464173 10.39102942 -0.01412636 13.97106934 0.00622559 C16.53509387 0.00272537 19.09911623 -0.00293207 21.66313171 -0.0105896 C27.908074 -0.02337855 34.15260654 -0.0128818 40.39751375 0.00852364 C47.66945508 0.03253449 54.94132192 0.03081922 62.21329409 0.02821773 C75.18812133 0.02452737 88.1627954 0.04535462 101.13757324 0.07946777 C113.72843294 0.11255926 126.31913187 0.12672609 138.91003418 0.1204834 C152.61975242 0.11371942 166.32940332 0.11617982 180.03911161 0.1358428 C180.76407665 0.13688229 181.48904168 0.13792177 182.23597535 0.13899276 C183.69203852 0.14108366 185.14810165 0.14319463 186.60416475 0.14532593 C191.6733968 0.15222168 196.74260811 0.15289081 201.81184387 0.15144348 C208.63430134 0.14985348 215.45653887 0.16474801 222.27895546 0.19067001 C224.78598916 0.19784474 227.29304335 0.19990919 229.80008507 0.19655228 C233.21613634 0.19285007 236.63162138 0.20754199 240.04760742 0.22705078 C241.04517012 0.22172286 242.04273282 0.21639493 243.07052469 0.21090555 C248.00113667 0.25965329 251.58613261 0.29812795 255.52380371 3.62145996 C257.52380371 6.62145996 257.52380371 6.62145996 257.46130371 10.05895996 C256.29657237 14.48493905 255.45251664 15.32713962 251.52380371 17.62145996 C248.01951933 18.21020385 244.55623436 18.16530786 241.00964355 18.13612366 C239.40369103 18.14654195 239.40369103 18.14654195 237.76529503 18.15717071 C234.17156626 18.1754923 230.57849377 18.16516162 226.98474121 18.15490723 C224.41086329 18.16196301 221.83698951 18.17070658 219.26312256 18.18101501 C212.99421294 18.20265905 206.72548482 18.20252724 200.45655012 18.19438947 C195.36182368 18.1880904 190.26715019 18.18922563 185.17242432 18.19566154 C184.08488895 18.19701403 184.08488895 18.19701403 182.97538316 18.19839383 C181.50252547 18.20024503 180.0296678 18.20210759 178.55681014 18.20398139 C164.74482527 18.22056106 150.93294255 18.21183905 137.12096381 18.19499581 C124.48251086 18.18029653 111.84429559 18.19493007 99.20587325 18.22376598 C86.22973245 18.25315207 73.25370138 18.26413472 60.27752876 18.25458378 C58.81008023 18.25356122 57.34263168 18.25256661 55.87518311 18.25160027 C55.15316471 18.25112388 54.43114632 18.25064749 53.68724859 18.25015666 C48.59844327 18.24799159 43.50974176 18.25780138 38.42095947 18.27237129 C31.57216785 18.29170679 24.72382602 18.28482812 17.87505341 18.26017189 C15.35833713 18.25514899 12.84158737 18.25869177 10.32489777 18.27132034 C6.89540523 18.28717086 3.46738587 18.27237355 0.03796387 18.24964905 C-1.4642166 18.26740264 -1.4642166 18.26740264 -2.99674416 18.28551489 C-7.62753467 18.22295642 -9.78880598 18.13302514 -13.5942688 15.30094814 C-15.47619629 12.62145996 -15.47619629 12.62145996 -16.10119629 9.12145996 C-14.46095389 -0.06389745 -7.8023453 -0.0979072 0 0 Z " fill="#373737" transform="translate(58.4761962890625,127.3785400390625)"/>
<path d="M0 0 C5.75750406 3.30606679 11.0604517 8.84535155 13.61328125 14.96875 C15.70545632 23.03998463 15.61703333 31.83425418 11.4375 39.1484375 C22.13899027 34.42108015 27.50241833 29.78495939 33.359375 19.84765625 C34.4375 18.1484375 34.4375 18.1484375 36.4375 16.1484375 C43.59556008 15.45572201 43.59556008 15.45572201 46.53125 17.87109375 C48.43889825 20.15010795 49.70837402 22.32329947 51.0625 24.9609375 C55.52136036 32.57581741 62.59869406 37.19584752 71.00390625 39.66796875 C74.88994552 40.43519641 78.78563846 40.66933759 82.73828125 40.83984375 C85.4952219 41.15503668 87.1285345 41.63461244 89.4375 43.1484375 C91.93781654 46.89891232 91.97353554 48.70700016 91.4375 53.1484375 C88.75247617 56.66551245 87.27569234 58.00062921 82.87109375 58.77734375 C66.30234873 58.50200781 53.74760825 53.38810155 41.4375 42.1484375 C38.34073928 43.5516572 36.01592634 45.25853166 33.4375 47.4609375 C23.45247161 55.34385465 11.23543834 58.42919559 -1.296875 58.51953125 C-2.49670013 58.53307396 -2.49670013 58.53307396 -3.72076416 58.54689026 C-5.40137044 58.56128932 -7.08203147 58.57025346 -8.76269531 58.57397461 C-11.29330996 58.58584747 -13.82146192 58.63511216 -16.3515625 58.68554688 C-29.45427487 58.81669937 -40.57482986 56.78001671 -50.9296875 47.97265625 C-52.5625 46.1484375 -52.5625 46.1484375 -53.9375 42.5859375 C-53.43033216 37.93689901 -52.10023902 36.17025624 -48.5625 33.1484375 C-43.81564081 32.16324031 -41.1141469 33.18869851 -37.125 35.6484375 C-35.92709382 36.46674153 -34.73575301 37.29516259 -33.5625 38.1484375 C-33.7790625 37.61476563 -33.995625 37.08109375 -34.21875 36.53125 C-37.05456383 28.94282224 -38.03225918 22.0477321 -34.875 14.3984375 C-31.68783464 8.11263916 -27.73049165 3.3304701 -21.421875 0.0703125 C-14.7747529 -2.07274872 -6.65504176 -2.211584 0 0 Z " fill="#393939" transform="translate(104.5625,376.8515625)"/>
<path d="M0 0 C1.07327223 -0.01169993 1.07327223 -0.01169993 2.16822672 -0.02363622 C4.55453614 -0.04350534 6.93924163 -0.0278134 9.32556152 -0.01205444 C11.04083687 -0.01883289 12.75610494 -0.0277373 14.47135925 -0.03860474 C19.12226682 -0.06137781 23.77261916 -0.05257004 28.4235363 -0.03670931 C33.29344033 -0.02403999 38.1632972 -0.03579329 43.03320312 -0.04364014 C51.21098353 -0.05273369 59.38853807 -0.0407565 67.56628418 -0.01693726 C77.01747758 0.01027346 86.46813167 0.00145909 95.919312 -0.02606928 C104.03755318 -0.04876773 112.15563212 -0.05195683 120.27389479 -0.03887594 C125.12098498 -0.03108548 129.96782177 -0.03002871 134.81489563 -0.04655838 C139.37219773 -0.06101459 143.92880532 -0.05096059 148.48603249 -0.0220871 C150.15734009 -0.0154824 151.82870626 -0.01736347 153.49999046 -0.02840042 C155.78422665 -0.04209312 158.06624639 -0.02489933 160.3503418 0 C161.62752831 0.00188513 162.90471481 0.00377026 164.22060394 0.00571251 C168.78273913 0.83664777 170.42460287 2.37956054 173.6751709 5.63491821 C174.73454446 8.69343221 174.20361887 10.30569597 173.6751709 13.63491821 C172.08921051 15.84884548 172.08921051 15.84884548 169.6751709 17.63491821 C166.39864349 18.14107609 166.39864349 18.14107609 162.42553711 18.14958191 C161.32821015 18.1600002 161.32821015 18.1600002 160.20871496 18.17062896 C157.75646862 18.18893111 155.30518622 18.17862635 152.85290527 18.16836548 C151.09527359 18.17542232 149.33764798 18.18416634 147.58003235 18.19447327 C142.8052602 18.21700228 138.03081897 18.21401955 133.25601387 18.2051518 C129.27218603 18.20004736 125.28842069 18.20732995 121.30459929 18.21462387 C111.90837375 18.23163369 102.51231059 18.22804571 93.11608887 18.21133423 C83.41611493 18.19440585 73.71659076 18.21025484 64.01666594 18.24255711 C55.69299087 18.2692281 47.36945603 18.27653593 39.04574251 18.26804203 C34.07236023 18.26310624 29.09924871 18.26536372 24.12590027 18.28582954 C19.45046774 18.30414798 14.77568387 18.29827527 10.10028648 18.27363014 C8.38298048 18.26861027 6.66562538 18.27214244 4.94835854 18.28477859 C2.60642248 18.30065002 0.26663809 18.28581777 -2.07519531 18.2631073 C-3.38632042 18.26252099 -4.69744553 18.26193468 -6.0483017 18.2613306 C-9.3248291 17.63491821 -9.3248291 17.63491821 -11.73886871 15.31440639 C-13.86010294 11.73057033 -14.05632919 9.73131869 -13.3248291 5.63491821 C-8.98385517 1.12945979 -6.40498625 0.00945376 0 0 Z " fill="#3B3B3B" transform="translate(56.3248291015625,229.36508178710938)"/>
<path d="M0 0 C1.20991104 -0.0112793 2.41982208 -0.02255859 3.66639709 -0.03417969 C5.00404598 -0.02640272 6.34169249 -0.01821006 7.67933655 -0.00964355 C9.09052248 -0.01506477 10.50170276 -0.02218743 11.91287231 -0.03088379 C15.74356861 -0.04912225 19.57383407 -0.04204729 23.40453792 -0.02936745 C27.41408242 -0.01924038 31.42359003 -0.02863249 35.43313599 -0.03491211 C42.16761395 -0.04219023 48.90191647 -0.03259745 55.6363678 -0.0135498 C63.41974107 0.00821054 71.2026951 0.00117453 78.98605818 -0.02085543 C85.66984993 -0.03901536 92.35351555 -0.04156462 99.03732401 -0.03110075 C103.02869541 -0.0248679 107.01986985 -0.02402414 111.01122856 -0.0372467 C114.76490429 -0.04881303 118.51804043 -0.04076585 122.27165794 -0.01766968 C123.64828852 -0.01238629 125.0249646 -0.01389014 126.401577 -0.02272034 C128.28259394 -0.03367232 130.16371026 -0.01749439 132.04467773 0 C133.09677901 0.0015081 134.14888029 0.0030162 135.23286343 0.00457001 C138.84328991 0.64157723 140.52723974 1.91908803 143.08583069 4.50793457 C143.78573226 8.78511082 143.58925567 10.73601627 141.21083069 14.38293457 C137.93127068 17.66249458 136.06437009 17.63732235 131.53279114 17.66183472 C130.35231705 17.67043518 129.17184296 17.67903564 127.95559692 17.68789673 C126.65375961 17.69215668 125.3519223 17.69641663 124.01063538 17.70080566 C122.63092848 17.70870609 121.25122364 17.716975 119.871521 17.72558594 C115.33360266 17.75181519 110.79567506 17.76711546 106.25770569 17.78137207 C104.69581852 17.78673157 103.13393142 17.79210908 101.57204437 17.79750443 C95.07473424 17.81913537 88.5774266 17.83787181 82.08008957 17.84912682 C72.7677587 17.86536385 63.45584525 17.89853273 54.14367175 17.95552766 C47.59667032 17.99423221 41.0497805 18.01376015 34.50266767 18.01904738 C30.59215734 18.02270048 26.68209211 18.03471628 22.77170563 18.06715012 C19.09109581 18.09723999 15.41120014 18.1035399 11.73049355 18.09176636 C9.73965392 18.09144065 7.74885832 18.11590089 5.75817871 18.1411438 C-4.00089329 18.07302513 -4.00089329 18.07302513 -7.7183075 15.10256958 C-10.70109635 11.57809991 -10.70109635 11.57809991 -10.53916931 8.44543457 C-9.48546908 1.80712312 -6.50718296 0.00933087 0 0 Z " fill="#3A3A3B" transform="translate(52.91416931152344,281.4920654296875)"/>
<path d="M0 0 C1.29967712 -0.0071553 2.59935425 -0.01431061 3.93841553 -0.02168274 C7.49645352 -0.04017958 11.05374109 -0.02726996 14.61174774 -0.00759244 C18.3383418 0.00881005 22.06488893 -0.00002105 25.79150391 -0.00511169 C32.04927539 -0.0096309 38.30674779 0.00622613 44.56445312 0.03417969 C51.79517091 0.06623108 59.02534934 0.06621546 66.25610542 0.04896492 C73.21709061 0.03309093 80.17787841 0.03983891 87.13885498 0.05690193 C90.09891018 0.06376744 93.05880692 0.06274521 96.01885986 0.05535698 C100.15350207 0.04626027 104.28731376 0.07024821 108.421875 0.09765625 C109.64904236 0.09113037 110.87620972 0.08460449 112.14056396 0.07788086 C120.39304717 0.17104407 120.39304717 0.17104407 124.44384766 2.44960022 C126.95006528 5.54356968 127.28033681 7.67534299 127.2109375 11.63110352 C125.12468411 15.05851981 124.0365064 16.35591388 120.2109375 17.63110352 C118.42093712 17.73193692 116.62743394 17.77472082 114.83462524 17.78500366 C113.71864456 17.79360413 112.60266388 17.80220459 111.4528656 17.81106567 C110.22785843 17.81532562 109.00285126 17.81958557 107.74072266 17.82397461 C105.80627541 17.83624084 105.80627541 17.83624084 103.83274841 17.84875488 C99.55518679 17.87494319 95.27761552 17.89027666 91 17.90454102 C89.52693043 17.90990151 88.05386092 17.91527902 86.58079147 17.92067337 C80.45402436 17.94229505 74.32725985 17.96103252 68.20046425 17.97229576 C59.42120914 17.98854211 50.64239606 18.02174402 41.8633076 18.07869661 C35.68912231 18.11738526 29.51505533 18.13692698 23.34075201 18.14221632 C19.65328357 18.14587057 15.96628695 18.15789895 12.27894974 18.19031906 C8.16567892 18.2259673 4.05335994 18.22203169 -0.06005859 18.21459961 C-1.89149666 18.23920761 -1.89149666 18.23920761 -3.75993347 18.26431274 C-11.98508484 18.20331102 -11.98508484 18.20331102 -16.04556274 15.31338501 C-18.36618323 11.74323401 -18.53554659 9.81141441 -17.7890625 5.63110352 C-13.43676215 -1.07168179 -7.39497063 -0.07045777 0 0 Z " fill="#383839" transform="translate(60.7890625,332.368896484375)"/>
<path d="M0 0 C0.33 0 0.66 0 1 0 C1 19.47 1 38.94 1 59 C-5.6953306 62.04333209 -12.31187785 65.01274952 -19.140625 67.69921875 C-20.35755035 68.18090263 -20.35755035 68.18090263 -21.59906006 68.6723175 C-23.29237184 69.34162904 -24.98624372 70.00952525 -26.68066406 70.67602539 C-29.26029581 71.69155317 -31.83725003 72.71367096 -34.4140625 73.73632812 C-36.07276043 74.39102097 -37.73160938 75.04533137 -39.390625 75.69921875 C-40.15119202 76.0013176 -40.91175903 76.30341644 -41.69537354 76.6146698 C-46.08307597 78.33415091 -50.44730664 79.78001928 -55 81 C-53.37868357 75.92716944 -50.32609445 72.0931576 -47.1875 67.875 C-42.57958367 61.59042975 -38.06604284 55.25908648 -33.6875 48.8125 C-28.12582256 40.6313585 -22.49476049 32.50090999 -16.83447266 24.38769531 C-13.72846291 19.93279424 -10.63153577 15.47287216 -7.57421875 10.984375 C-7.06068848 10.23115967 -6.5471582 9.47794434 -6.01806641 8.7019043 C-5.07076333 7.30954991 -4.12627464 5.91527518 -3.18505859 4.51879883 C-2.14823336 2.99531299 -1.07808711 1.49457146 0 0 Z " fill="#FBFBFB" transform="translate(349,268)"/>
<path d="M0 0 C5.36711606 5.24109339 5.36711606 5.24109339 7.40234375 8.28515625 C7.8099292 8.887229 8.21751465 9.48930176 8.63745117 10.10961914 C9.06646729 10.75406982 9.4954834 11.39852051 9.9375 12.0625 C10.91054575 13.50061788 11.88454895 14.93808829 12.859375 16.375 C13.37048828 17.13039063 13.88160156 17.88578125 14.40820312 18.6640625 C17.12931351 22.65725026 19.90992161 26.60848011 22.6875 30.5625 C28.57873637 38.95974056 34.4380421 47.37875246 40.28393555 55.80761719 C43.23758017 60.05923525 46.2009701 64.30089858 49.234375 68.49609375 C49.70842773 69.15174316 50.18248047 69.80739258 50.67089844 70.48291016 C51.52906334 71.66422679 52.39140712 72.84252415 53.25878906 74.01708984 C56 77.78355684 56 77.78355684 56 80 C48.89106223 77.99996453 42.06053282 75.56711125 35.21484375 72.8046875 C34.23254288 72.41177521 33.250242 72.01886292 32.23817444 71.61404419 C30.18277636 70.79082054 28.12821382 69.96550791 26.07446289 69.13818359 C22.916987 67.86673988 19.75657314 66.60282267 16.59570312 65.33984375 C14.59357426 64.53689639 12.59161483 63.7335264 10.58984375 62.9296875 C9.64205551 62.55053192 8.69426727 62.17137634 7.71775818 61.7807312 C6.84917679 61.43011627 5.9805954 61.07950134 5.08569336 60.71826172 C4.31865585 60.40976288 3.55161835 60.10126404 2.76133728 59.78341675 C1 59 1 59 0 58 C-0.09376053 56.18944975 -0.1174411 54.37522799 -0.11352539 52.56225586 C-0.11344986 51.40112778 -0.11337433 50.23999969 -0.11329651 49.04368591 C-0.10813522 47.780168 -0.10297394 46.51665009 -0.09765625 45.21484375 C-0.0962413 43.92888809 -0.09482635 42.64293243 -0.09336853 41.31800842 C-0.08954418 37.89356557 -0.07971462 34.46916491 -0.06866455 31.04473877 C-0.05844864 27.55261811 -0.05387053 24.06049066 -0.04882812 20.56835938 C-0.03809227 13.71222222 -0.02101684 6.85611313 0 0 Z " fill="#E2EEFC" transform="translate(367,269)"/>
<path d="M0 0 C0.12683815 7.02901938 0.21436744 14.0577434 0.2746582 21.08764648 C0.29979315 23.47870919 0.33390633 25.86969514 0.37719727 28.26049805 C0.43789061 31.69859764 0.46622072 35.13568096 0.48828125 38.57421875 C0.51408768 39.64210129 0.5398941 40.70998383 0.56648254 41.81022644 C0.56819112 46.33738453 0.45358678 49.20500382 -1.81640625 53.18359375 C-6.62973293 55.92984762 -10.97867814 55.61991583 -16.42578125 55.48828125 C-17.52850876 55.48120651 -18.63123627 55.47413177 -19.76737976 55.46684265 C-23.28311517 55.43889489 -26.79724743 55.37615165 -30.3125 55.3125 C-32.69854468 55.28741781 -35.08461437 55.26460451 -37.47070312 55.24414062 C-43.31434737 55.18906692 -49.15705915 55.10543545 -55 55 C-49.69295037 48.56297913 -43.84877248 42.70276816 -37.94921875 36.81640625 C-36.88387202 35.75038487 -35.81867368 34.68421517 -34.75361633 33.61790466 C-32.53552414 31.39834689 -30.31565488 29.18058646 -28.09448242 26.96411133 C-25.24169116 24.11705865 -22.3934692 21.26548334 -19.54652691 18.41258335 C-17.35483204 16.21728754 -15.16077679 14.02436332 -12.96598244 11.83216667 C-11.91382173 10.78067437 -10.86240701 9.72843507 -9.81174278 8.67544746 C-8.35174657 7.21292791 -6.88861211 5.75362438 -5.42456055 4.29516602 C-4.59216354 3.46356461 -3.75976654 2.6319632 -2.90214539 1.77516174 C-1 0 -1 0 0 0 Z " fill="#A3BBCD" transform="translate(85,30)"/>
<path d="M0 0 C0 13.86 0 27.72 0 42 C-3.70455865 41.25908827 -6.53902623 40.51083652 -9.97387695 39.14233398 C-10.93449539 38.76201523 -11.89511383 38.38169647 -12.88484192 37.98985291 C-13.9089769 37.57941238 -14.93311188 37.16897186 -15.98828125 36.74609375 C-17.04661667 36.32578384 -18.10495209 35.90547394 -19.19535828 35.47242737 C-22.56933449 34.13142203 -25.9409303 32.78454284 -29.3125 31.4375 C-31.60205903 30.52630437 -33.89177083 29.61549251 -36.18164062 28.70507812 C-41.78953953 26.47449915 -47.3954964 24.23909527 -53 22 C-53 21.34 -53 20.68 -53 20 C-51.046875 19.21875 -49.09375 18.4375 -47.140625 17.65625 C-46.22199425 17.28871613 -46.22199425 17.28871613 -45.2848053 16.91375732 C-41.90014768 15.55967064 -38.51518123 14.20636492 -35.12963867 12.85449219 C-28.96662198 10.3927251 -22.80577488 7.92686631 -16.66015625 5.421875 C-15.74395508 5.04998047 -14.82775391 4.67808594 -13.88378906 4.29492188 C-12.2056325 3.61295168 -10.52911318 2.92693464 -8.85449219 2.23632812 C-3.33581149 0 -3.33581149 0 0 0 Z " fill="#C2D8EC" transform="translate(350,346)"/>
<path d="M0 0 C5.57450834 1.76436345 10.96960587 3.92664542 16.39453125 6.09765625 C17.38249191 6.49198349 18.37045258 6.88631073 19.38835144 7.29258728 C21.46717813 8.12297299 23.54564732 8.95425418 25.6237793 9.78637695 C28.81758903 11.06453663 32.01321642 12.33807374 35.20898438 13.61132812 C37.22927836 14.4189915 39.2494645 15.2269247 41.26953125 16.03515625 C42.22986771 16.41744888 43.19020416 16.79974152 44.17964172 17.19361877 C45.06113388 17.5474614 45.94262604 17.90130402 46.85083008 18.26586914 C47.6299324 18.57738419 48.40903473 18.88889923 49.21174622 19.20985413 C51 20 51 20 52 21 C52.09268999 22.35094982 52.11747326 23.70667091 52.11352539 25.06079102 C52.11344986 25.92160782 52.11337433 26.78242462 52.11329651 27.66932678 C52.10813522 28.60473801 52.10297394 29.54014923 52.09765625 30.50390625 C52.0962413 31.45692123 52.09482635 32.40993622 52.09336853 33.39183044 C52.08775152 36.44875165 52.07519616 39.50560077 52.0625 42.5625 C52.05748719 44.62955624 52.05292391 46.69661362 52.04882812 48.76367188 C52.03777656 53.84247588 52.02050055 58.9212257 52 64 C49.30595297 61.33256784 46.635514 58.68028465 44.16796875 55.80078125 C43.68400635 55.23697754 43.20004395 54.67317383 42.70141602 54.09228516 C42.20182373 53.50495605 41.70223145 52.91762695 41.1875 52.3125 C40.65761475 51.69165527 40.12772949 51.07081055 39.58178711 50.43115234 C36.036824 46.26130525 32.57303069 42.03666748 29.1796875 37.7421875 C26.37965056 34.21956038 23.53206949 30.73669196 20.6875 27.25 C15.88992111 21.36564971 11.16000905 15.43390323 6.5144043 9.42871094 C4.82505569 7.25664498 3.16662919 5.16266183 1.1953125 3.23828125 C0 2 0 2 0 0 Z " fill="#FBFBFB" transform="translate(298,386)"/>
<path d="M0 0 C0 3.74591662 -0.78444301 4.16285309 -3.3125 6.8125 C-6.85175978 10.65708324 -10.11852449 14.62099469 -13.3125 18.75 C-17.0044773 23.50684702 -20.77732576 28.17067594 -24.6875 32.75 C-29.75932068 38.69218544 -34.649368 44.75908228 -39.4921875 50.88867188 C-41.13799057 52.96954968 -42.78766319 55.04731962 -44.4375 57.125 C-45.23692017 58.13989502 -45.23692017 58.13989502 -46.05249023 59.17529297 C-47.34537609 60.80203637 -48.66973318 62.40367982 -50 64 C-50.33 64 -50.66 64 -51 64 C-51 49.81 -51 35.62 -51 21 C-42 16.5 -42 16.5 -38.14453125 14.98535156 C-37.28424316 14.6453009 -36.42395508 14.30525024 -35.53759766 13.95489502 C-34.63831543 13.60368591 -33.7390332 13.25247681 -32.8125 12.890625 C-31.86938965 12.51895203 -30.9262793 12.14727905 -29.95458984 11.76434326 C-26.97106459 10.58945953 -23.98557921 9.41965307 -21 8.25 C-18.96471159 7.44955472 -16.92955398 6.64877676 -14.89453125 5.84765625 C-9.93119342 3.89458839 -4.96624057 1.94567413 0 0 Z " fill="#E1EDFB" transform="translate(418,386)"/>
<path d="M0 0 C4.20253968 0.84050794 7.51623827 1.88790494 11.453125 3.4765625 C12.06680939 3.72290436 12.68049377 3.96924622 13.31277466 4.22305298 C15.29358099 5.0194809 17.27181116 5.82209545 19.25 6.625 C20.60615624 7.17186282 21.9624392 7.71841151 23.31884766 8.26464844 C32.89914518 12.12769253 42.46392887 16.02896745 52 20 C52 20.66 52 21.32 52 22 C44.91778076 24.85311638 37.83343405 27.70089814 30.74755859 30.54492188 C28.33560249 31.51373562 25.92414224 32.48378479 23.51318359 33.45507812 C20.0543468 34.84827996 16.59377058 36.23707769 13.1328125 37.625 C11.50776291 38.28121338 11.50776291 38.28121338 9.84988403 38.95068359 C8.8489975 39.35109863 7.84811096 39.75151367 6.81689453 40.1640625 C5.93309113 40.51936035 5.04928772 40.8746582 4.13870239 41.24072266 C2 42 2 42 0 42 C0 28.14 0 14.28 0 0 Z " fill="#B3CBDB" transform="translate(367,346)"/>
<path d="M0 0 C2.5 1.4375 2.5 1.4375 4 4 C4.86189454 8.65063929 4.47712412 12.71427416 2.3125 16.9375 C-0.04640522 20.06145556 -1.26401391 21.06600348 -5 22 C-9.51142037 18.95174299 -11.40928657 16.21400515 -13 11 C-12.93389589 7.09985745 -12.54165335 4.84497922 -10.4375 1.5625 C-6.95253431 -0.67145236 -4.02642386 -0.78383251 0 0 Z " fill="#DFEBF9" transform="translate(98,393)"/>
</svg>
